<?xml version="1.0" standalone="no"?>
<!DOCTYPE svg PUBLIC "-//W3C//DTD SVG 1.1//EN" "http://www.w3.org/Graphics/SVG/1.1/DTD/svg11.dtd" >
<svg xmlns="http://www.w3.org/2000/svg">
<metadata>
Created by FontPrep 20130207 at Thu Mar  6 12:11:01 2014
 By Taylor Eke
Copyright (c) Emigre Inc, 2013. Designed by Zuzana Licko. All rights reserved.
</metadata>
<defs>
<font id="09f6af0f22f199cc6a1bbfae5d26cff8" horiz-adv-x='1024' >
  <font-face 
    font-family="ProgramNarOT-Regular"
    font-weight="400"
    font-stretch="normal"
    units-per-em="2048"
    panose-1="2 0 6 8 3 0 0 2 0 4"
    ascent="1581"
    descent="-467"
    x-height="983"
    cap-height="1313"
    bbox="-207.4 -457.053 1360 1712"
    underline-thickness="61"
    underline-position="-154"
    unicode-range="U+0020-FB02"
  />
<missing-glyph horiz-adv-x="1024" 
 />
    <glyph glyph-name="fi" unicode="fi" horiz-adv-x="698" 
d="M549 1159q-33 0 -57 25q-24 26 -25 58q0 32 25 56q26 24 58 25q32 0 56 -25q24 -26 25 -58q-1 -32 -25 -56t-57 -25zM518 0q-39 0 -39 39v905q0 39 39 39h62q39 0 38 -39v-905q0 -39 -38 -39h-62zM434 1436v-64q0 -29 -26 -29q-12 -1 -33 11t-56 12q-70 0 -69 -94v-289
h96q39 0 39 -39v-33q0 -39 -39 -39h-96v-833q0 -39 -39 -39h-61q-39 0 -39 39v833h-70q-39 0 -39 39v33q0 39 39 39h70v281q0 106 58 164q57 58 161 58t104 -50z" />
    <glyph glyph-name="fl" unicode="fl" horiz-adv-x="698" 
d="M518 0q-39 0 -39 39v1388q0 39 39 39h62q39 0 38 -39v-1388q0 -39 -38 -39h-62zM434 1436v-64q0 -29 -26 -29q-12 -1 -33 11t-56 12q-70 0 -69 -94v-289h96q39 0 39 -39v-33q0 -39 -39 -39h-96v-833q0 -39 -39 -39h-61q-39 0 -39 39v833h-70q-39 0 -39 39v33q0 39 39 39
h70v281q0 106 58 164q57 58 161 58t104 -50z" />
    <glyph glyph-name=".notdef" horiz-adv-x="1024" 
 />
    <glyph glyph-name=".null" horiz-adv-x="0" 
 />
    <glyph glyph-name="nonmarkingreturn" horiz-adv-x="681" 
 />
    <glyph glyph-name="space" unicode=" " horiz-adv-x="247" 
 />
    <glyph glyph-name="exclam" unicode="!" horiz-adv-x="352" 
d="M176 -6q-43 0 -73 30q-29 30 -29 72t29 73q30 30 73 30t73 -30t30 -73q0 -42 -30 -72t-73 -30zM100 1274q0 39 39 39h74q39 0 39 -39v-506q0 -53 -14 -197l-21 -190q-4 -39 -35 -39h-12q-31 0 -35 39l-20 190q-14 139 -15 197v506z" />
    <glyph glyph-name="quotedbl" unicode="&#x22;" horiz-adv-x="581" 
d="M70 1231q0 94 80 94q39 0 59 -27t20 -53t-18 -211l-21 -190q-4 -39 -34 -39h-13q-31 0 -34 39l-21 190q-18 180 -18 197zM432 1325q40 0 60 -27t20 -53t-18 -211l-21 -190q-4 -39 -35 -39h-12q-31 0 -35 39l-20 190q-18 180 -19 197q0 94 80 94z" />
    <glyph glyph-name="numbersign" unicode="#" horiz-adv-x="677" 
d="M637 1008q39 0 33 -39l-8 -43q-6 -39 -46 -39h-73l-47 -273h73q39 0 33 -39l-8 -43q-6 -39 -45 -38h-74l-47 -267q-6 -39 -45 -39h-37q-39 0 -33 39l47 267h-137l-47 -267q-6 -39 -45 -39h-37q-39 0 -33 39l48 267h-70q-39 0 -33 38l8 43q6 39 45 39h70l47 273h-70
q-39 0 -32 39l8 43q6 39 45 39h72l47 266q6 39 47 39h37q37 0 30 -39l-47 -266h138l47 266q6 39 47 39h37q37 0 30 -39l-47 -266h72zM428 887h-137l-47 -273h137z" />
    <glyph glyph-name="dollar" unicode="$" horiz-adv-x="567" 
d="M354 -78q0 -39 -39 -39h-61q-39 0 -39 39v184q-172 37 -172 304q0 49 51 49h45q45 0 39 -64q-12 -170 101 -170q65 0 91 42t25 124q0 111 -149 219q-195 145 -195 310q0 236 164 280v176q0 39 39 39h61q39 0 39 -39v-170q84 -16 125 -83t41 -199q0 -51 -51 -52h-45
q-43 0 -39 67t-14 107t-80 39q-111 0 -111 -145q0 -117 113 -201q63 -47 103 -83t84 -108t44 -142q0 -254 -170 -297v-187z" />
    <glyph glyph-name="percent" unicode="%" horiz-adv-x="927" 
d="M694 90q47 0 65 50q17 50 17 162t-16 161t-64 49t-66 -50t-18 -160t18 -161t64 -51zM694 -20q-202 0 -202 322t202 321q202 1 203 -321q0 -322 -203 -322zM143 0q-18 0 -26 11t0 28l575 1235q18 39 51 39h41q18 0 26 -11t1 -28l-575 -1235q-18 -39 -52 -39h-41zM233 801
q47 0 65 50q17 50 17 162t-16 161q-17 49 -65 49q-48 -1 -65 -51t-17 -160t17 -160q17 -51 64 -51zM233 690q-203 0 -202 322q0 322 202 321q203 1 203 -321t-203 -322z" />
    <glyph glyph-name="ampersand" unicode="&#x26;" horiz-adv-x="634" 
d="M557 614v-444q0 -62 -9 -82t-44 -41q-102 -59 -193 -59q-262 0 -262 374q0 240 115 318q-100 76 -101 289q0 356 248 356q127 0 187 -73t59 -255q0 -55 -51 -55h-49q-45 0 -41 68q12 186 -105 186q-51 0 -75 -45t-25 -185q0 -140 23 -186q24 -45 73 -45h293q39 0 39 -39
v-43q0 -39 -39 -39h-43zM418 614h-111q-55 0 -83 -48t-28 -179q1 -221 63 -257q24 -13 62 -13q37 1 67 23t30 53v421z" />
    <glyph glyph-name="quotesingle" unicode="'" horiz-adv-x="299" 
d="M70 1231q0 94 80 94q39 0 59 -27t20 -53t-18 -211l-21 -190q-4 -39 -34 -39h-13q-31 0 -34 39l-21 190q-18 180 -18 197z" />
    <glyph glyph-name="parenleft" unicode="(" horiz-adv-x="444" 
d="M477 -342q0 -29 -33 -29h-43q-33 0 -67 47q-113 154 -188 401q-74 247 -74 514t72 510q73 243 190 402q35 47 67 47h43q33 0 33 -28q0 -14 -10 -31q-260 -395 -260 -903t260 -899q10 -16 10 -31z" />
    <glyph glyph-name="parenright" unicode=")" horiz-adv-x="444" 
d="M-33 1522q0 29 33 28h43q33 0 68 -47q117 -161 189 -403t73 -509q0 -267 -75 -514t-187 -401q-35 -47 -68 -47h-43q-33 0 -33 29q0 15 10 31q261 391 261 899t-261 903q-10 16 -10 31z" />
    <glyph glyph-name="asterisk" unicode="*" horiz-adv-x="768" 
d="M382 1333q64 0 64 -76q0 -33 -18 -161l-12 -92l71 57q86 68 131 96q66 41 99 -15t-35 -93q-43 -25 -150 -66l-86 -35l86 -35q106 -41 150 -65q68 -37 35 -93q-33 -55 -89 -21t-141 102l-71 57l12 -92q18 -125 18 -162q0 -76 -63 -76t-64 76q0 33 19 162l12 92l-71 -57
q-75 -60 -135 -98t-94 18t34 92q43 25 149 65l86 35l-86 35q-106 41 -149 66q-68 37 -35 92q35 55 89 21t141 -101l71 -57l-12 92q-18 129 -19 161q-1 76 63 76z" />
    <glyph glyph-name="plus" unicode="+" 
d="M244 594h-154q-39 0 -39 39v49q0 39 39 39h154v338q0 39 39 39h49q39 0 39 -39v-338h153q39 0 39 -39v-49q0 -39 -39 -39h-153v-338q0 -39 -39 -39h-49q-39 0 -39 39v338z" />
    <glyph glyph-name="comma" unicode="," horiz-adv-x="352" 
d="M274 72q0 -164 -135 -353q-20 -31 -43 -30h-33q-16 0 -22 11t4 32q92 162 94 268q-23 6 -45 33t-20 63q0 36 28 66q29 28 71 28t72 -32q29 -33 29 -86z" />
    <glyph glyph-name="hyphen" unicode="-" horiz-adv-x="512" 
d="M90 506q-39 0 -39 39v61q0 39 39 39h332q39 0 39 -39v-61q0 -39 -39 -39h-332z" />
    <glyph glyph-name="period" unicode="." horiz-adv-x="352" 
d="M176 -6q-43 0 -73 30q-29 30 -29 72t29 73q30 30 73 30t73 -30t30 -73q0 -42 -30 -72t-73 -30z" />
    <glyph glyph-name="slash" unicode="/" horiz-adv-x="546" 
d="M18 0q-18 0 -27 11t-3 28l450 1235q14 39 49 39h41q16 0 26 -11t3 -28l-451 -1235q-14 -39 -47 -39h-41z" />
    <glyph glyph-name="zero" unicode="0" horiz-adv-x="651" 
d="M326 121q42 0 64 30q50 67 50 506t-50 505q-22 30 -64 30t-65 -30q-50 -68 -50 -507t51 -504q23 -30 64 -30zM326 -12q-92 0 -146 50q-117 110 -117 618t117 619q54 50 146 50t145 -50t85 -200t32 -418q0 -269 -32 -419t-85 -200t-145 -50z" />
    <glyph glyph-name="one" unicode="1" horiz-adv-x="393" 
d="M293 39q0 -39 -39 -39h-70q-39 0 -39 39v991h-86q-39 0 -39 39v45q0 39 39 39h19q96 0 96 107v14q0 39 39 39h41q39 0 39 -39v-1235z" />
    <glyph glyph-name="two" unicode="2" horiz-adv-x="575" 
d="M487 131q39 0 39 -39v-53q0 -39 -39 -39h-421q-37 0 -37 37v49q-1 39 29 109q30 69 127 239t153 301q55 131 55 250t-28 165q-29 46 -89 46q-117 0 -104 -186q4 -68 -41 -68h-49q-51 0 -51 55q0 180 61 254t191 74q258 0 258 -352q1 -129 -63 -269t-162 -305
q-98 -164 -138 -268h309z" />
    <glyph glyph-name="three" unicode="3" horiz-adv-x="593" 
d="M229 614q-39 0 -39 39v43q0 39 39 39h58q49 0 73 45q24 44 23 184q0 140 -27 186t-80 46q-111 0 -98 -186q4 -68 -41 -68h-49q-51 0 -51 55q0 182 59 255t187 73q248 0 247 -356q0 -213 -100 -289q115 -78 115 -318q0 -375 -262 -374q-129 0 -188 77q-58 77 -58 273
q0 55 51 55h49q45 0 41 -67q-10 -209 103 -209q61 0 89 45q28 44 28 200t-28 204t-83 48h-58z" />
    <glyph glyph-name="four" unicode="4" horiz-adv-x="581" 
d="M309 420v233q0 39 39 39h66q39 0 39 -39v-233h79q39 0 39 -39v-53q0 -39 -39 -39h-79v-250q0 -39 -39 -39h-66q-39 0 -39 39v250h-264q-37 0 -37 37v49q0 10 12 65l209 838q10 35 41 35h64q37 0 37 -37q0 -20 -17 -82l-202 -774h157z" />
    <glyph glyph-name="five" unicode="5" horiz-adv-x="600" 
d="M311 729q-107 0 -105 -127q0 -57 -36 -57h-35q-49 0 -49 49v680q0 39 39 39h383q39 0 39 -39v-53q0 -39 -39 -39h-279v-369q35 39 107 39q117 0 169 -103t52 -329t-57 -330q-56 -102 -192 -102t-190 80t-55 247q0 55 52 56h49q45 0 41 -68q0 -35 -2 -77q-1 -42 23 -76
t79 -35q55 0 84 62q29 61 29 243t-26 246t-81 63z" />
    <glyph glyph-name="six" unicode="6" horiz-adv-x="622" 
d="M329 111q56 0 84 54t27 218q0 164 -27 218q-28 54 -84 54t-89 -55t-33 -217t33 -217t89 -55zM573 997q0 -55 -51 -55h-47q-45 0 -41 68q12 186 -98 186q-84 0 -108 -105t-23 -393q20 40 61 60t84 20q117 0 177 -91q61 -91 61 -304t-66 -304t-192 -91q-152 0 -209 129
t-57 465t12 412q12 75 27 145t72 128q58 58 169 58t170 -74t59 -254z" />
    <glyph glyph-name="seven" unicode="7" horiz-adv-x="518" 
d="M164 0h-68q-37 0 -37 37q0 20 17 82l276 1063h-303q-39 0 -39 39v53q0 39 39 39h414q37 0 37 -37v-49q0 -10 -13 -66l-282 -1126q-10 -35 -41 -35z" />
    <glyph glyph-name="eight" unicode="8" 
d="M49 362q0 240 115 318q-100 76 -101 289q0 356 244 356t244 -356q0 -213 -100 -289q115 -78 114 -318q0 -375 -258 -374q-258 0 -258 374zM307 111q55 0 83 48q28 47 28 203t-28 204t-83 48t-83 -48t-28 -204t28 -204t83 -47zM307 735q49 0 73 45q24 44 24 188t-24 189
t-73 45t-73 -45t-24 -188t24 -189q24 -45 73 -45z" />
    <glyph glyph-name="nine" unicode="9" horiz-adv-x="622" 
d="M294 1202q-56 0 -84 -54t-28 -218t28 -218t84 -54t89 54q33 56 33 218t-33 217t-89 55zM287 -12q-119 0 -178 74t-60 253q0 55 51 56h47q45 0 41 -68q-12 -186 99 -186q84 0 107 105q24 105 24 392q-20 -39 -62 -59t-84 -20q-117 0 -177 91t-60 304t65 304q66 91 193 91
q152 0 209 -129q57 -128 57 -468t-12 -412q-29 -176 -54 -212q-57 -86 -119 -105q-38 -11 -87 -11z" />
    <glyph glyph-name="colon" unicode=":" horiz-adv-x="352" 
d="M176 -6q-43 0 -73 30q-29 30 -29 72t29 73q30 30 73 30t73 -30t30 -73q0 -42 -30 -72t-73 -30zM176 778q-43 0 -73 30t-29 73q0 43 30 73t72 29q43 0 73 -30q30 -31 30 -73t-30 -72t-73 -30z" />
    <glyph glyph-name="semicolon" unicode=";" horiz-adv-x="352" 
d="M176 778q-43 0 -73 30t-29 73q0 43 30 73t72 29q43 0 73 -30q30 -31 30 -73t-30 -72t-73 -30zM274 72q0 -164 -135 -353q-20 -31 -43 -30h-33q-16 0 -22 11t4 32q92 162 94 268q-23 6 -45 33t-20 63q0 36 28 66q29 28 71 28t72 -32q29 -33 29 -86z" />
    <glyph glyph-name="less" unicode="&#x3c;" horiz-adv-x="552" 
d="M47 655q0 31 41 76l350 373q16 14 28 7t11 -26v-73q0 -33 -18 -51l-285 -306l285 -305q18 -18 18 -51v-74q0 -18 -11 -25t-28 7l-348 373q-43 44 -43 75z" />
    <glyph glyph-name="equal" unicode="=" 
d="M90 756q-39 0 -39 39v49q0 39 39 39h434q39 0 39 -39v-49q0 -39 -39 -39h-434zM90 432q-39 0 -39 39v49q0 39 39 39h434q39 0 39 -39v-49q0 -39 -39 -39h-434z" />
    <glyph glyph-name="greater" unicode="&#x3e;" horiz-adv-x="552" 
d="M506 655q0 -31 -43 -75l-348 -373q-16 -14 -28 -7q-11 7 -11 25v74q0 33 18 51l285 305l-285 306q-18 18 -18 51v73q0 17 11 25t28 -6l350 -373q41 -45 41 -76z" />
    <glyph glyph-name="question" unicode="?" horiz-adv-x="565" 
d="M287 -6q-43 0 -73 30t-30 72t30 73q30 30 73 30t73 -30t29 -73q1 -42 -29 -72t-73 -30zM391 987q0 117 -27 161q-28 44 -93 44t-87 -48t-16 -125t-39 -77h-49q-51 0 -51 55q0 182 59 255t186 73q256 0 256 -352q0 -159 -87 -271t-87 -192v-121q0 -39 -39 -39h-61
q-39 0 -39 39v121q0 94 50 174l48 72q76 114 76 231z" />
    <glyph glyph-name="at" unicode="@" horiz-adv-x="1148" 
d="M626 881q-60 0 -110 -81q-49 -81 -65 -214q-37 -283 86 -283q45 0 86 55t53 154l43 324q-33 45 -93 45zM1096 752q0 -213 -102 -388t-214 -176q-94 0 -114 107q-68 -115 -167 -115t-152 118t-29 296t115 289t202 110q53 0 108 -41q115 12 103 -75l-62 -459
q-10 -70 -2 -99t41 -28q63 0 126 140q63 141 63 337t-102 328t-269 133q-211 0 -347 -196t-136 -469t121 -436t317 -163q104 0 184 37t170 115q20 2 22 -34t-22 -56q-168 -145 -370 -146q-240 -1 -390 191t-150 502t167 534q166 225 422 225q213 -1 340 -159t127 -422z" />
    <glyph glyph-name="A" unicode="A" horiz-adv-x="692" 
d="M346 1085q-10 -1 -10 -31t-21 -149l-63 -385h188l-63 385q-21 119 -21 149t-10 31zM129 0h-61q-37 0 -37 37q0 2 12 82l215 1157q6 37 41 37h94q35 0 41 -37l215 -1157q12 -80 13 -82q0 -37 -37 -37h-62q-35 0 -41 35l-61 366h-230l-61 -366q-6 -35 -41 -35z" />
    <glyph glyph-name="B" unicode="B" horiz-adv-x="681" 
d="M252 123h86q78 0 113 60t34 192q0 252 -149 252h-84v-504zM252 748h96q102 0 103 231q0 115 -28 163t-95 48h-76v-442zM139 0q-39 0 -39 39v1235q0 39 39 39h209q138 0 194 -85t56 -219q0 -272 -149 -307q188 -51 188 -327q0 -375 -283 -375h-215z" />
    <glyph glyph-name="C" unicode="C" horiz-adv-x="610" 
d="M346 -12q-164 0 -226 160t-63 509q-1 350 61 509t228 159q117 0 176 -75t60 -259q0 -49 -50 -49h-53q-41 0 -37 62q12 190 -96 190q-84 0 -110 -115t-25 -422q0 -307 26 -423t109 -115q109 0 96 213q-4 61 37 61h53q49 0 50 -49q0 -196 -60 -276t-176 -80z" />
    <glyph glyph-name="D" unicode="D" horiz-adv-x="696" 
d="M139 0q-39 0 -39 39v1235q0 39 39 39h193q162 0 234 -160t71 -494q0 -335 -72 -497t-233 -162h-193zM252 123h51q100 0 141 131t41 405q0 275 -41 403t-141 128h-51v-1067z" />
    <glyph glyph-name="E" unicode="E" horiz-adv-x="552" 
d="M139 0q-39 0 -39 39v1235q0 39 39 39h350q39 0 39 -39v-53q0 -39 -39 -39h-237v-426h192q39 0 39 -39v-53q0 -39 -39 -39h-192v-494h244q39 0 39 -39v-53q0 -39 -39 -39h-357z" />
    <glyph glyph-name="F" unicode="F" horiz-adv-x="528" 
d="M139 0q-39 0 -39 39v1235q0 39 39 39h350q39 0 39 -39v-53q0 -39 -39 -39h-237v-426h213q39 0 39 -39v-53q0 -39 -39 -39h-213v-586q0 -39 -39 -39h-74z" />
    <glyph glyph-name="G" unicode="G" horiz-adv-x="641" 
d="M340 -12q-160 0 -221 160t-62 509q-1 350 61 509t228 159q117 0 176 -75t60 -259q0 -49 -50 -49h-53q-41 0 -37 62q12 190 -96 190q-84 0 -110 -115t-25 -422q0 -307 26 -423t109 -115q84 0 84 74v342h-61q-39 0 -39 38v45q0 39 39 39h174q39 0 39 -39v-448
q0 -62 -10 -82t-44 -41q-102 -59 -188 -59z" />
    <glyph glyph-name="H" unicode="H" horiz-adv-x="737" 
d="M139 0q-39 0 -39 39v1235q0 39 39 39h74q39 0 39 -39v-520h233v520q0 39 39 39h74q39 0 39 -39v-1235q0 -39 -39 -39h-74q-39 0 -39 39v592h-233v-592q0 -39 -39 -39h-74z" />
    <glyph glyph-name="I" unicode="I" horiz-adv-x="352" 
d="M139 0q-39 0 -39 39v1235q0 39 39 39h74q39 0 39 -39v-1235q0 -39 -39 -39h-74z" />
    <glyph glyph-name="J" unicode="J" horiz-adv-x="376" 
d="M61 -12q-100 0 -100 63v47q0 31 31 31q2 0 26 -7t50 -7q28 0 43 28q14 29 14 119v1012q0 39 39 39h74q39 0 38 -39v-1024q0 -262 -215 -262z" />
    <glyph glyph-name="K" unicode="K" horiz-adv-x="675" 
d="M139 0q-39 0 -39 39v1235q0 39 39 39h74q39 0 39 -39v-537q57 0 78 58l147 422q17 55 37 75t72 21h45q37 0 37 -37q0 -20 -22 -34t-30 -38l-141 -430q-10 -30 -33 -54t-45 -28q53 -14 76 -88l156 -495q7 -31 29 -39t22 -33q0 -37 -37 -37h-55q-51 0 -74 23t-39 77
l-149 467q-20 63 -74 64v-592q0 -39 -39 -39h-74z" />
    <glyph glyph-name="L" unicode="L" horiz-adv-x="524" 
d="M139 0q-39 0 -39 39v1235q0 39 39 39h74q39 0 39 -39v-1143h237q39 0 39 -39v-53q0 -39 -39 -39h-350z" />
    <glyph glyph-name="M" unicode="M" horiz-adv-x="909" 
d="M432 305q-35 0 -43 35l-72 283q-57 225 -60 249t-11 23t-4 -31t4 -241v-584q0 -39 -39 -39h-68q-39 0 -39 39v1235q0 39 39 39h84q35 0 43 -39l125 -504q55 -222 55 -240t8 -18t9 18q0 18 55 240l125 504q8 39 43 39h84q39 0 39 -39v-1235q0 -39 -39 -39h-68
q-39 0 -38 39v584q0 211 4 241t-4 31t-12 -23t-60 -249l-72 -283q-8 -35 -43 -35h-45z" />
    <glyph glyph-name="N" unicode="N" horiz-adv-x="737" 
d="M240 696v-657q0 -39 -39 -39h-62q-39 0 -39 39v1235q0 39 39 39h62q31 0 39 -31l200 -666q43 -141 45 -160t11 -20q8 0 5 39t-3 141v658q0 39 39 39h61q39 0 39 -39v-1235q0 -39 -39 -39h-61q-31 0 -39 31l-201 665q-43 140 -45 160t-10 21q-8 -1 -5 -39t3 -142z" />
    <glyph glyph-name="O" unicode="O" horiz-adv-x="651" 
d="M326 121q42 0 64 30q50 67 50 506t-50 505q-22 30 -64 30t-65 -30q-50 -68 -50 -507t51 -504q23 -30 64 -30zM326 -12q-92 0 -147 50q-54 50 -88 201t-34 419t34 418q34 151 88 200q55 49 147 49t146 -49t88 -200t34 -419q0 -269 -34 -419t-88 -200t-146 -50z" />
    <glyph glyph-name="P" unicode="P" horiz-adv-x="661" 
d="M139 0q-39 0 -39 39v1235q0 39 39 39h201q164 -1 230 -101t67 -297q0 -401 -299 -401h-86v-475q0 -39 -39 -39h-74zM252 637h86q147 0 147 278q0 137 -35 206q-36 69 -126 69h-72v-553z" />
    <glyph glyph-name="Q" unicode="Q" horiz-adv-x="651" 
d="M590 -200q46 -38 87 -38q42 0 62 15q19 15 31 27t27 12q29 0 28 -33v-51q0 -41 -39 -75q-38 -34 -114 -34t-137 46q-61 47 -97 105q-110 182 -155 216q-76 12 -123 70q-103 127 -103 597q0 268 34 419t88 200q55 49 147 49t146 -49t88 -200t34 -447t-45 -444t-135 -183
q20 -20 75 -92t101 -110zM326 121q42 0 64 30q50 67 50 506t-50 505q-22 30 -64 30t-65 -30q-50 -68 -50 -507t51 -504q23 -30 64 -30z" />
    <glyph glyph-name="R" unicode="R" horiz-adv-x="696" 
d="M139 0q-39 0 -39 39v1235q0 39 39 39h201q164 0 230 -94t67 -285q0 -313 -193 -369q59 -25 86 -108l109 -338q14 -37 35 -49t20 -33q0 -37 -37 -37h-59q-53 0 -76 25t-47 110l-115 375q-14 41 -57 41h-51v-512q0 -39 -39 -39h-74zM252 674h86q80 0 114 61t34 197t-35 196
q-35 61 -127 62h-72v-516z" />
    <glyph glyph-name="S" unicode="S" horiz-adv-x="608" 
d="M308 -12q-140 0 -200 85t-61 267q0 53 55 53h50q43 0 38 -67q-12 -205 109 -205q73 0 99 49t26 170q0 154 -160 268q-209 154 -209 365q0 352 256 352q127 0 187 -73t59 -255q0 -55 -55 -55h-49q-45 0 -40 78t-15 125t-84 47t-92 -44t-27 -155q0 -160 118 -248
q248 -182 248 -391q0 -178 -56 -272q-57 -94 -197 -94z" />
    <glyph glyph-name="T" unicode="T" horiz-adv-x="585" 
d="M256 0q-39 0 -39 39v1143h-182q-39 0 -39 39v53q0 39 39 39h516q39 0 39 -39v-53q0 -39 -39 -39h-182v-1143q0 -39 -39 -39h-74z" />
    <glyph glyph-name="U" unicode="U" horiz-adv-x="733" 
d="M367 -18q-160 0 -214 99t-55 329v864q0 39 39 39h74q39 0 39 -39v-868q0 -162 22 -224q23 -61 95 -61q73 0 95 61t21 224v868q0 39 39 39h74q39 0 39 -39v-864q0 -228 -54 -328t-214 -100z" />
    <glyph glyph-name="V" unicode="V" horiz-adv-x="651" 
d="M279 0q-35 0 -41 37l-195 1157q-12 80 -12 82q0 37 37 37h67q35 0 41 -35l119 -795q20 -123 20 -151t11 -29q10 0 10 29t20 151l119 795q6 35 41 35h68q37 0 37 -37q0 -2 -13 -82l-194 -1157q-6 -37 -41 -37h-94z" />
    <glyph glyph-name="W" unicode="W" horiz-adv-x="942" 
d="M485 1128q35 0 41 -34l95 -637l24 -185q0 -20 8 -20t9 20l18 185l92 821q4 35 37 35h63q37 0 37 -37q0 -6 -10 -82l-154 -1157q-6 -37 -40 -37h-95q-35 0 -41 37l-67 487q-23 150 -23 176t-8 27q-8 -1 -8 -25t-23 -178l-67 -487q-6 -37 -41 -37h-94q-35 0 -41 37
l-154 1157q-10 76 -10 82q0 37 37 37h63q33 0 37 -35l92 -821l19 -185q0 -20 8 -20t8 20l119 822q6 35 41 34h28z" />
    <glyph glyph-name="X" unicode="X" horiz-adv-x="692" 
d="M57 0q-39 0 -39 39q0 16 21 67l209 568l-199 532q-20 51 -20 68q0 39 39 39h69q31 0 45 -41l92 -279q62 -176 62 -195t10 -20q10 0 10 16t62 199l92 279q14 41 45 41h70q39 0 39 -39q0 -16 -21 -68l-199 -532l209 -568q20 -51 21 -67q0 -39 -39 -39h-70q-31 0 -45 41
l-102 309q-62 190 -62 204t-10 13q-10 0 -10 -19t-62 -198l-102 -309q-14 -41 -45 -41h-70z" />
    <glyph glyph-name="Y" unicode="Y" horiz-adv-x="622" 
d="M274 0q-39 0 -38 39v450l-211 705q-20 66 -21 82q0 37 37 37h65q33 0 46 -43l114 -436q35 -126 35 -150t10 -25q11 0 11 24t34 151l115 436q12 43 45 43h66q37 0 36 -37q0 -16 -20 -82l-211 -705v-450q0 -39 -39 -39h-74z" />
    <glyph glyph-name="Z" unicode="Z" horiz-adv-x="579" 
d="M70 0q-37 0 -37 37v49q0 25 12 66l334 1030h-299q-39 0 -39 39v53q0 39 39 39h414q37 0 36 -37v-49q0 -29 -12 -66l-334 -1030h328q39 0 39 -39v-53q0 -39 -39 -39h-442z" />
    <glyph glyph-name="bracketleft" unicode="[" horiz-adv-x="380" 
d="M236 -256h98q39 0 39 -39v-37q0 -39 -39 -39h-187q-39 0 -38 39v1843q0 39 38 39h187q39 0 39 -39v-36q0 -39 -39 -39h-98v-1692z" />
    <glyph glyph-name="backslash" unicode="\" horiz-adv-x="546" 
d="M526 0h-41q-33 0 -47 39l-450 1235q-6 16 3 28t25 11h41q35 0 49 -39l451 -1235q6 -16 -3 -28q-10 -11 -28 -11z" />
    <glyph glyph-name="bracketright" unicode="]" horiz-adv-x="380" 
d="M145 -256v1692h-98q-39 0 -39 39v36q0 39 39 39h186q39 0 39 -39v-1843q0 -39 -39 -39h-186q-39 0 -39 39v37q0 39 39 39h98z" />
    <glyph glyph-name="asciicircum" unicode="^" horiz-adv-x="542" 
d="M271 1333q60 0 75 -41l180 -514q14 -39 -24 -39h-68q-33 0 -45 39l-119 379l-118 -379q-14 -39 -46 -39h-67q-39 0 -25 39l181 512q16 43 76 43z" />
    <glyph glyph-name="underscore" unicode="_" horiz-adv-x="731" 
d="M-14 -119q-39 0 -39 39v41q0 39 39 39h759q39 0 39 -39v-41q0 -39 -39 -39h-759z" />
    <glyph glyph-name="grave" unicode="`" horiz-adv-x="819" 
d="M506 1081q-33 0 -72 39l-190 189q-16 16 -11 28q6 12 25 13h76q37 0 72 -39l169 -189q13 -18 7 -29t-25 -12h-51z" />
    <glyph glyph-name="a" unicode="a" horiz-adv-x="618" 
d="M254 -12q-114 0 -165 79q-50 79 -50 207q0 305 270 306q41 0 90 -7v179q0 123 -98 122q-106 0 -98 -135q4 -61 -37 -61h-45q-49 0 -49 49q0 145 60 207t179 61q227 0 228 -241v-613q0 -66 51 -65v-25q0 -25 -26 -44t-75 -19q-72 0 -86 78q-35 -78 -149 -78zM290 102
q58 0 109 56v307q-47 6 -80 6q-141 0 -141 -195q0 -92 27 -133t85 -41z" />
    <glyph glyph-name="b" unicode="b" horiz-adv-x="626" 
d="M340 995q123 -1 181 -119q59 -118 59 -384t-58 -385t-172 -119q-112 0 -145 65q-27 -53 -80 -53h-6q-39 0 -39 39v1388q0 39 39 39h61q39 0 39 -39v-479q41 47 121 47zM301 104q45 0 72 23t47 112t20 253t-20 252t-47 112q-27 23 -72 23t-82 -21v-733q37 -21 82 -21z" />
    <glyph glyph-name="c" unicode="c" horiz-adv-x="565" 
d="M301 -12q-147 0 -201 127q-53 127 -53 377t53 376t201 127q117 -1 170 -71t53 -228q0 -49 -49 -49h-45q-41 0 -37 62q10 166 -92 165q-71 0 -93 -88t-22 -296t23 -294q23 -87 92 -87q104 0 92 186q-4 61 37 61h45q49 0 49 -49q0 -319 -223 -319z" />
    <glyph glyph-name="d" unicode="d" horiz-adv-x="626" 
d="M287 -12q-123 0 -182 118q-58 120 -58 386t58 385t182 118q90 0 121 -47v479q0 39 38 39h62q39 0 39 -39v-1286q0 -66 51 -65v-25q0 -25 -26 -44t-80 -19t-74 57q-37 -57 -131 -57zM326 104q45 0 82 21v733q-37 20 -82 20t-72 -22q-27 -23 -47 -112q-21 -88 -21 -252
t20 -253t48 -112q27 -23 72 -23z" />
    <glyph glyph-name="e" unicode="e" horiz-adv-x="577" 
d="M301 -12q-147 0 -201 127q-53 127 -53 377t54 376t202 127q119 0 172 -79t53 -271q0 -76 -14 -168h-328q0 -203 24 -286t95 -82q104 0 98 145q-4 61 37 61h35q49 0 49 -49q0 -278 -223 -278zM188 586h211q4 50 4 122t-20 119q-19 47 -81 47t-88 -65t-26 -223z" />
    <glyph glyph-name="f" unicode="f" horiz-adv-x="399" 
d="M434 1436v-64q0 -29 -26 -29q-12 -1 -33 11t-56 12q-70 0 -69 -94v-289h96q39 0 39 -39v-33q0 -39 -39 -39h-96v-833q0 -39 -39 -39h-61q-39 0 -39 39v833h-70q-39 0 -39 39v33q0 39 39 39h70v281q0 106 58 164q57 58 161 58t104 -50z" />
    <glyph glyph-name="g" unicode="g" horiz-adv-x="559" 
d="M291 -336q73 0 111 47t38 121t-38 121t-112 47t-111 -47q-38 -47 -38 -121t38 -121t112 -47zM274 420q111 0 111 233t-111 234t-111 -233t111 -234zM203 218q0 -68 39 -95q25 4 49 4q129 0 203 -86t74 -209t-74 -206t-203 -83t-203 83t-74 206q0 166 117 248
q-55 55 -55 140t63 136q-102 82 -102 297q0 170 63 256t174 86q55 0 113 -28q43 90 120 90t77 -64v-61q0 -33 -31 -33q-12 0 -36 13t-73 3q68 -86 68 -259t-63 -259t-175 -86l-20 2q-51 -27 -51 -95z" />
    <glyph glyph-name="h" unicode="h" horiz-adv-x="655" 
d="M119 0q-39 0 -39 39v1388q0 39 39 39h61q39 0 39 -39v-489q84 57 172 57q188 0 189 -223v-733q0 -39 -39 -39h-62q-39 0 -39 39v733q0 94 -86 94q-66 0 -135 -37v-790q0 -39 -39 -39h-61z" />
    <glyph glyph-name="i" unicode="i" horiz-adv-x="299" 
d="M150 1147q-37 -1 -63 25t-26 63t26 63t63 25q36 0 62 -26q26 -27 26 -63t-26 -62t-62 -25zM119 0q-39 0 -39 39v905q0 39 39 39h61q39 0 39 -39v-905q0 -39 -39 -39h-61z" />
    <glyph glyph-name="j" unicode="j" horiz-adv-x="299" 
d="M150 1147q-37 -1 -63 25t-26 63t26 63t63 25q36 0 62 -26q26 -27 26 -63t-26 -62t-62 -25zM4 -457q-36 1 -62 17t-26 47v41q0 31 29 30q3 0 27 -7t52 -7t42 29t14 119v1132q0 39 39 39h61q39 0 39 -39v-1139q0 -262 -215 -262z" />
    <glyph glyph-name="k" unicode="k" 
d="M123 0q-39 0 -39 39v1388q0 39 39 39h61q39 0 39 -39v-854q31 -1 46 11t32 43q156 314 172 335t68 21h37q37 0 36 -37q0 -25 -17 -32t-34 -40l-131 -264q-39 -76 -72 -82q35 -10 70 -88l145 -331q12 -31 32 -39t20 -33q0 -37 -37 -37h-45q-34 0 -47 7q-12 7 -17 9
q-4 2 -10 10t-10 13q-4 4 -16 31q-11 26 -13 30l-133 306q-17 37 -31 49t-45 12v-428q0 -39 -39 -39h-61z" />
    <glyph glyph-name="l" unicode="l" horiz-adv-x="299" 
d="M119 0q-39 0 -39 39v1388q0 39 39 39h61q39 0 39 -39v-1388q0 -39 -39 -39h-61z" />
    <glyph glyph-name="m" unicode="m" horiz-adv-x="1015" 
d="M119 0q-39 0 -39 39v905q0 39 39 39h61q39 0 39 -39v-6q84 57 180 57t142 -69q109 70 211 69q188 0 188 -223v-733q0 -39 -39 -39h-61q-39 0 -39 39v733q0 94 -86 94q-68 0 -137 -39q2 -12 2 -55v-733q0 -39 -39 -39h-62q-39 0 -39 39v733q0 94 -86 94q-66 0 -135 -37
v-790q0 -39 -39 -39h-61z" />
    <glyph glyph-name="n" unicode="n" horiz-adv-x="655" 
d="M119 0q-39 0 -39 39v905q0 39 39 39h61q39 0 39 -39v-6q84 57 172 57q188 0 189 -223v-733q0 -39 -39 -39h-62q-39 0 -39 39v733q0 94 -86 94q-66 0 -135 -37v-790q0 -39 -39 -39h-61z" />
    <glyph glyph-name="o" unicode="o" horiz-adv-x="593" 
d="M297 111q39 0 58 18t36 105q17 88 17 258t-17 257q-15 87 -35 105t-59 18t-58 -18t-35 -105t-18 -257q0 -170 16 -258t36 -105q20 -18 59 -18zM297 -12q-127 0 -188 112t-62 392t61 392t189 112t188 -114q61 -112 61 -390t-60 -392q-62 -112 -189 -112z" />
    <glyph glyph-name="p" unicode="p" horiz-adv-x="626" 
d="M301 104q45 0 72 23t47 112t20 253t-20 252t-47 112q-27 23 -72 23t-82 -21v-733q37 -21 82 -21zM119 -442q-39 0 -39 39v1347q0 39 39 39h6q53 0 80 -53q33 66 135 65q123 -1 181 -119q59 -118 59 -384t-58 -386t-182 -118q-80 0 -121 47v-438q0 -39 -39 -39h-61z" />
    <glyph glyph-name="q" unicode="q" horiz-adv-x="626" 
d="M326 104q45 0 82 21v733q-37 20 -82 20t-72 -22q-27 -23 -47 -112q-21 -88 -21 -252t20 -253t48 -112q27 -23 72 -23zM446 -442q-39 0 -38 39v438q-41 -47 -121 -47q-123 0 -182 118q-58 120 -58 386t58 385t182 118q102 0 135 -65q27 53 80 53h6q39 0 39 -39v-1347
q0 -39 -39 -39h-62z" />
    <glyph glyph-name="r" unicode="r" horiz-adv-x="430" 
d="M403 825q-13 1 -31 11t-58 10t-95 -39v-768q0 -39 -39 -39h-61q-39 0 -39 39v905q0 39 39 39h61q39 0 39 -39v-26q71 66 143 66t72 -64v-62q0 -33 -31 -33z" />
    <glyph glyph-name="s" unicode="s" horiz-adv-x="548" 
d="M270 -12q-229 0 -229 288q0 49 49 50h45q41 0 37 -62q-8 -156 98 -155q113 0 113 143q0 92 -145 197q-188 139 -188 273t60 204t173 70t167 -61q54 -60 54 -208q0 -49 -49 -49h-45q-41 0 -37 61q8 135 -92 135q-51 0 -79 -32t-28 -90q0 -98 109 -179q61 -45 100 -79
t82 -99q43 -66 43 -131q0 -276 -238 -276z" />
    <glyph glyph-name="t" unicode="t" horiz-adv-x="405" 
d="M399 68q0 -78 -161 -78q-133 0 -134 149v733h-69q-39 0 -39 39v33q0 39 39 39h69v199q0 39 39 39h62q39 0 39 -39v-199h92q39 0 39 -39v-33q0 -39 -39 -39h-92v-702q0 -70 55 -70q25 0 45 10t31 9q25 0 24 -27v-24z" />
    <glyph glyph-name="u" unicode="u" horiz-adv-x="655" 
d="M264 -12q-188 0 -188 223v733q0 39 39 39h61q39 0 39 -39v-733q0 -94 86 -94q66 0 135 37v790q0 39 39 39h62q39 0 38 -39v-803q0 -66 52 -65v-25q0 -25 -26 -44q-25 -19 -83 -19t-74 63q-84 -63 -180 -63z" />
    <glyph glyph-name="v" unicode="v" horiz-adv-x="577" 
d="M29 946q0 37 37 37h55q35 0 41 -35l92 -530q25 -140 25 -160t10 -20t10 22t25 158l92 530q6 35 41 35h55q16 0 26 -10q10 -11 11 -23q0 -12 -3 -26t-6 -32t-5 -28l-173 -827q-6 -37 -40 -37h-66q-35 0 -41 37l-172 827q-2 8 -5 26t-6 34q-3 14 -3 22z" />
    <glyph glyph-name="w" unicode="w" horiz-adv-x="995" 
d="M305 -12q-115 0 -176 88t-61 317v551q0 39 38 39h62q39 0 39 -39v-551q-1 -166 27 -224t82 -58t83 58t29 224v551q0 39 39 39h61q39 0 39 -39v-551q0 -166 29 -224t83 -58t82 58t27 224v551q0 39 39 39h62q39 0 39 -39v-551q0 -229 -62 -317t-176 -88q-143 0 -192 116
q-52 -116 -193 -116z" />
    <glyph glyph-name="x" unicode="x" horiz-adv-x="577" 
d="M47 0q-39 0 -39 39q0 10 23 70l166 389l-148 379q-20 57 -20 67q0 39 37 39h49q33 0 47 -41l71 -197q45 -121 45 -139t11 -18q10 0 10 18t45 139l72 197q14 41 47 41h49q37 0 37 -39q0 -10 -21 -67l-147 -379l166 -389q23 -59 22 -70q0 -39 -39 -39h-49q-33 0 -49 45
l-76 193q-57 143 -57 159t-10 17q-10 0 -10 -16t-58 -160l-76 -193q-16 -45 -49 -45h-49z" />
    <glyph glyph-name="y" unicode="y" horiz-adv-x="655" 
d="M297 -457q-61 1 -115 21t-53 53v55q0 31 31 31q12 1 46 -17t83 -18q147 0 147 234v143q-82 -57 -172 -57q-188 0 -188 223v733q0 39 39 39h61q39 0 39 -39v-733q0 -94 86 -94q66 0 135 37v790q0 39 39 39h62q39 0 38 -39v-1042q-1 -193 -79 -276t-199 -83z" />
    <glyph glyph-name="z" unicode="z" horiz-adv-x="485" 
d="M51 0q-37 0 -37 37v47q0 25 17 66l282 704h-254q-14 0 -26 11t-13 28v51q0 14 12 26t27 13h357q37 0 37 -35v-49q0 -29 -17 -65l-282 -705h282q39 0 39 -39v-51q0 -39 -39 -39h-385z" />
    <glyph glyph-name="braceleft" unicode="{" horiz-adv-x="512" 
d="M68 647q147 0 147 336q1 241 23 338q22 96 54 138q71 93 214 91h10q39 0 39 -39v-28q0 -39 -39 -39h-10q-86 0 -121 -69t-39 -176t-4 -239t-34 -231q-34 -100 -124 -139q158 -61 158 -397q0 -267 26 -345t71 -99q28 -13 67 -13h10q39 0 39 -39v-29q0 -39 -39 -39h-10
q-143 0 -207 83t-79 283q-5 81 -5 204q0 338 -147 338h-15q-39 0 -39 38v33q0 39 39 39h15z" />
    <glyph glyph-name="bar" unicode="|" horiz-adv-x="372" 
d="M162 -371q-39 0 -39 39v1843q0 39 39 39h49q39 0 39 -39v-1843q0 -39 -39 -39h-49z" />
    <glyph glyph-name="braceright" unicode="}" horiz-adv-x="512" 
d="M444 647h15q39 0 39 -39v-33q0 -39 -39 -38h-15q-147 0 -147 -338q-1 -243 -23 -340t-54 -139q-69 -91 -214 -91h-10q-39 0 -39 39v29q0 39 39 39h10q81 0 114 61t42 146q8 86 8 250q0 336 158 397q-90 39 -124 139t-34 231q0 132 -2 190q-6 162 -37 219q-38 75 -125 75
h-10q-39 0 -39 39v28q0 39 39 39h10q145 0 208 -83t78 -281q5 -80 5 -203q0 -336 147 -336z" />
    <glyph glyph-name="asciitilde" unicode="~" horiz-adv-x="673" 
d="M61 502q0 102 32 156t120 55q41 0 80 -25q39 -24 63 -54q63 -78 99 -79q51 0 51 92v21q0 39 39 39h28q39 0 39 -39v-21q0 -102 -31 -157q-33 -54 -105 -54t-119 40q-46 40 -78 79q-33 39 -60 39q-51 0 -51 -92v-21q0 -39 -39 -39h-29q-39 0 -39 39v21z" />
    <glyph glyph-name="nbspace" unicode="&#xa0;" horiz-adv-x="247" 
 />
    <glyph glyph-name="exclamdown" unicode="&#xa1;" horiz-adv-x="352" 
d="M176 791q-43 -1 -73 29t-29 73q0 43 29 73q30 30 73 30t73 -30t30 -73t-30 -73t-73 -29zM100 -291v506q0 57 15 197l20 190q4 39 35 39h12q31 0 35 -39l21 -190q14 -143 14 -197v-506q0 -39 -39 -39h-74q-39 0 -39 39z" />
    <glyph glyph-name="cent" unicode="&#xa2;" horiz-adv-x="571" 
d="M375 -78q0 -39 -39 -39h-62q-39 0 -38 39v193q-106 35 -146 168q-39 133 -39 375t39 374q39 133 146 168v176q0 39 38 39h62q39 0 39 -39v-168q168 -33 168 -305q0 -49 -49 -49h-50q-41 0 -36 61q12 172 -93 172q-73 0 -97 -95t-24 -335q0 -241 24 -335t97 -95
q104 0 93 195q-4 61 36 61h50q49 0 49 -49q0 -288 -168 -325v-187z" />
    <glyph glyph-name="sterling" unicode="&#xa3;" 
d="M272 707h187q39 0 39 -39v-33q0 -39 -39 -39h-187v-115q0 -242 -82 -327q33 6 74 6q42 0 100 -20t93 -21q41 0 41 45t39 45h20q39 0 43 -47q8 -96 -24 -135t-84 -39q-54 0 -131 22t-129 21q-52 0 -160 -47q-16 -6 -28 2q-11 8 -11 24v53q0 33 42 53t50 84q8 65 8 281v115
h-63q-39 0 -39 39v33q0 39 39 39h63v260q0 193 79 275t200 83q61 0 115 -20t55 -54v-55q0 -31 -31 -31q-12 0 -47 18t-84 17q-147 0 -148 -233v-260z" />
    <glyph glyph-name="currency" unicode="&#xa4;" horiz-adv-x="610" 
d="M231 707v-99h140q39 0 39 -39v-32q0 -39 -39 -39h-140q3 -217 23 -298t92 -81q109 0 96 213q-4 61 37 61h53q49 0 50 -49q0 -196 -60 -276t-176 -80q-143 0 -201 121q-57 121 -65 389h-19q-39 0 -38 39v32q0 39 38 39h17v99h-17q-39 0 -38 38v33q0 39 38 39h19
q10 268 66 388t200 120q117 0 176 -75t60 -259q0 -49 -50 -49h-53q-41 0 -37 62q12 190 -96 190q-70 0 -92 -81t-23 -296h140q39 0 39 -39v-33q0 -39 -39 -38h-140z" />
    <glyph glyph-name="yen" unicode="&#xa5;" horiz-adv-x="622" 
d="M387 459v-94h121q39 0 39 -39v-33q0 -39 -39 -39h-121v-215q0 -39 -39 -39h-74q-39 0 -38 39v215h-121q-39 0 -39 39v33q0 39 39 39h121v94h-121q-39 0 -39 39v32q0 39 39 39h96l-186 625q-20 66 -21 82q0 37 37 37h65q33 0 46 -43l114 -436q35 -126 35 -150t10 -25
q11 0 11 24t34 151l115 436q12 43 45 43h66q37 0 36 -37q0 -16 -20 -82l-186 -625h96q39 0 39 -39v-32q0 -39 -39 -39h-121z" />
    <glyph glyph-name="brokenbar" unicode="&#xa6;" horiz-adv-x="372" 
d="M162 721q-39 0 -39 39v751q0 39 39 39h49q39 0 39 -39v-751q0 -39 -39 -39h-49zM162 -371q-39 0 -39 39v752q0 39 39 39h49q39 0 39 -39v-752q0 -39 -39 -39h-49z" />
    <glyph glyph-name="section" unicode="&#xa7;" horiz-adv-x="616" 
d="M428 381q0 135 -125 227q-69 51 -102 80q-12 -31 -13 -80q0 -135 125 -227q70 -51 103 -80q12 31 12 80zM299 -336q-252 0 -252 332q0 53 55 53h50q43 0 38 -67q-12 -184 109 -185q73 0 99 47t26 124t-12 116q-22 71 -148 160q-209 154 -209 344q0 109 68 186
q-68 92 -68 205q1 162 57 254t205 92q252 0 252 -332q0 -53 -55 -53h-49q-43 0 -39 68q12 184 -109 184q-73 0 -99 -47t-26 -124t13 -116q20 -66 147 -160q209 -154 209 -344q1 -106 -67 -186q68 -91 68 -229t-57 -230q-56 -92 -206 -92z" />
    <glyph glyph-name="dieresis" unicode="&#xa8;" horiz-adv-x="819" 
d="M547 1081q-35 0 -59 25q-24 26 -24 58t24 57t59 25t59 -26q24 -24 23 -57q1 -33 -23 -57t-59 -25zM272 1081q-34 0 -58 25q-24 26 -24 58t24 57t58 25t59 -26q23 -24 23 -57t-24 -57t-58 -25z" />
    <glyph glyph-name="copyright" unicode="&#xa9;" horiz-adv-x="1298" 
d="M649 72q231 0 365 166q133 166 133 416t-133 414q-132 165 -364 165t-365 -165t-133 -415q0 -249 133 -415t364 -166zM649 -20q-268 0 -430 194t-162 478q0 286 162 480t430 194t430 -194t162 -480t-162 -479t-430 -193zM643 199q-133 1 -181 115t-48 338t48 339t181 115
q105 0 153 -65t48 -205q0 -43 -45 -43h-39q-39 0 -35 55q10 147 -82 147q-61 0 -82 -77q-20 -78 -20 -266t20 -267q20 -78 82 -78q94 0 82 168q-4 55 35 55h39q45 0 45 -45q0 -286 -201 -286z" />
    <glyph glyph-name="ordfeminine" unicode="&#xaa;" horiz-adv-x="516" 
d="M264 899q-106 0 -106 -147q0 -72 20 -103t66 -32t82 40v240q-25 2 -62 2zM492 578q0 -23 -22 -41q-22 -19 -76 -19t-64 64q-31 -64 -124 -64t-134 65t-41 167q0 242 217 241q51 0 78 -4v139q0 92 -76 93q-80 0 -76 -101q2 -49 -29 -49h-49q-39 0 -39 39q0 217 201 217
q193 0 193 -203v-473q0 -51 41 -51v-20z" />
    <glyph glyph-name="guillemotleft" unicode="&#xab;" horiz-adv-x="675" 
d="M285 573v7q0 27 39 71l270 314q12 14 26 9t15 -24v-82q0 -25 -39 -71l-186 -222l186 -221q39 -47 39 -69v-82q0 -19 -13 -25t-28 10l-270 314q-39 44 -39 71zM35 573v7q0 27 39 71l270 314q12 14 26 9t15 -24v-82q0 -25 -39 -71l-186 -222l186 -221q39 -47 39 -69v-82
q0 -19 -13 -25t-28 10l-270 314q-39 44 -39 71z" />
    <glyph glyph-name="logicalnot" unicode="&#xac;" 
d="M414 594h-324q-39 0 -39 39v49q0 39 39 39h412q39 0 39 -39v-283q0 -39 -39 -39h-49q-39 0 -39 39v195z" />
    <glyph glyph-name="registered" unicode="&#xae;" horiz-adv-x="1144" 
d="M572 305q187 0 306 134q118 134 118 330t-118 330t-306 134t-305 -134t-117 -330t118 -330t304 -134zM572 1325q226 0 370 -161q144 -162 145 -396q-1 -234 -145 -394t-370 -161q-226 0 -370 161t-144 395t144 395t370 161zM637 897q0 61 -12 84t-45 23h-62v-216h66
q31 0 42 24t11 85zM780 459q0 -18 -18 -19h-57q-35 0 -47 16t-25 64l-35 160q-4 20 -27 20h-53v-241q0 -18 -20 -19h-70q-18 0 -18 19v618q0 18 18 19h166q156 0 156 -189q0 -156 -97 -184q27 -9 39 -25t23 -55l41 -147q2 -14 13 -22t11 -15z" />
    <glyph glyph-name="macron" unicode="&#xaf;" horiz-adv-x="819" 
d="M264 1081q-39 0 -39 39v33q0 39 39 39h291q39 0 39 -39v-33q0 -39 -39 -39h-291z" />
    <glyph glyph-name="degree" unicode="&#xb0;" horiz-adv-x="600" 
d="M299 864q68 0 117 48t49 116t-49 117t-117 49t-116 -49t-48 -117t48 -116t116 -48zM299 756q-113 0 -193 80t-80 192t80 194q80 81 193 81t194 -81t81 -194q0 -112 -82 -192q-80 -80 -193 -80z" />
    <glyph glyph-name="plusminus" unicode="&#xb1;" 
d="M244 594h-154q-39 0 -39 39v49q0 39 39 39h154v297q0 39 39 39h49q39 0 39 -39v-297h153q39 0 39 -39v-49q0 -39 -39 -39h-153v-297q0 -39 -39 -39h-49q-39 0 -39 39v297zM90 0q-39 0 -39 39v49q0 39 39 39h434q39 0 39 -39v-49q0 -39 -39 -39h-434z" />
    <glyph glyph-name="twosuperior" unicode="&#xb2;" horiz-adv-x="452" 
d="M397 1348q0 -78 -36 -158t-96 -173t-85 -145h185q25 0 24 -24v-55q0 -23 -24 -23h-289q-23 0 -23 23v41q0 43 84 180t114 205t30 137q0 111 -62 110q-59 0 -53 -110q2 -37 -23 -37h-59q-31 0 -31 33q0 115 41 164t127 49q176 0 176 -217z" />
    <glyph glyph-name="threesuperior" unicode="&#xb3;" horiz-adv-x="464" 
d="M403 993q0 -231 -178 -231q-88 0 -128 50t-40 177q0 35 31 35h57q27 0 23 -41q-6 -121 55 -121q31 0 44 25t13 109t-12 110q-14 27 -43 27h-32q-23 0 -23 22v37q0 25 23 25h32q25 -1 37 25t12 100t-13 100q-13 25 -42 24q-55 0 -51 -106q0 -41 -23 -41h-57q-31 0 -31 33
q0 117 40 165t128 48q168 0 168 -219q0 -119 -59 -168q69 -48 69 -185z" />
    <glyph glyph-name="acute" unicode="&#xb4;" horiz-adv-x="819" 
d="M311 1081h-51q-18 -1 -26 11t8 30l170 189q35 39 71 39h76q19 0 25 -12t-11 -29l-190 -189q-39 -39 -72 -39z" />
    <glyph glyph-name="mu" unicode="&#xb5;" horiz-adv-x="655" 
d="M76 944q0 39 39 39h61q39 0 39 -39v-733q0 -94 86 -94q66 0 135 37v790q0 39 39 39h62q39 0 38 -39v-803q0 -66 52 -65v-25q0 -25 -26 -44q-25 -19 -83 -19t-74 63q-84 -63 -180 -63q-16 0 -49 4v-395q0 -39 -39 -39h-61q-39 0 -39 39v1347z" />
    <glyph glyph-name="paragraph" unicode="&#xb6;" horiz-adv-x="806" 
d="M33 1019q0 120 87 207t212 87h413q39 0 39 -39v-49q0 -39 -39 -39h-69v-1604q0 -39 -39 -39h-49q-39 0 -39 39v1604h-123v-1604q0 -39 -39 -39h-49q-39 0 -39 39v1137q-115 12 -191 96t-75 204z" />
    <glyph glyph-name="periodcentered" unicode="&#xb7;" horiz-adv-x="380" 
d="M190 457q-49 0 -86 36t-36 85q0 49 36 85q37 35 86 35t85 -36t36 -84q0 -49 -36 -85t-85 -36z" />
    <glyph glyph-name="cedilla" unicode="&#xb8;" horiz-adv-x="819" 
d="M229 -350v41q-1 14 9 22t18 5q8 -4 53 -26t86 -22q72 0 72 64q0 33 -25 50q-24 17 -56 17q-58 0 -50 39l29 180h102l-21 -126q70 -10 103 -56t33 -108t-47 -109t-124 -47t-151 39q-31 16 -31 37z" />
    <glyph glyph-name="onesuperior" unicode="&#xb9;" horiz-adv-x="327" 
d="M236 793q0 -23 -25 -23h-74q-23 0 -22 23v587h-43q-25 0 -25 23v35q0 25 25 24h8q63 0 63 64v8q0 25 23 25h45q25 0 25 -25v-741z" />
    <glyph glyph-name="ordmasculine" unicode="&#xba;" horiz-adv-x="499" 
d="M206 1202q-40 -39 -40 -282q0 -244 40 -279q15 -14 44 -14t44 14q40 37 40 282q0 244 -40 279q-15 14 -44 14t-44 -14zM463 922q0 -220 -54 -312q-55 -92 -159 -92t-159 91q-54 91 -54 313t54 312q55 91 159 91t158 -91t55 -312z" />
    <glyph glyph-name="guillemotright" unicode="&#xbb;" horiz-adv-x="675" 
d="M391 573q0 -27 -39 -71l-270 -314q-14 -16 -28 -10q-13 6 -13 25v82q0 23 39 69l186 221l-186 222q-39 47 -39 71v82q0 18 14 24t27 -9l270 -314q39 -45 39 -71v-7zM641 573q0 -27 -39 -71l-270 -314q-14 -16 -28 -10q-13 6 -13 25v82q0 23 39 69l186 221l-186 222
q-39 47 -39 71v82q0 18 14 24t27 -9l270 -314q39 -45 39 -71v-7z" />
    <glyph glyph-name="onequarter" unicode="&#xbc;" horiz-adv-x="849" 
d="M225 547q0 -23 -24 -23h-74q-25 0 -25 23v588h-43q-23 0 -22 22v35q0 25 22 25h11q61 0 61 63v8q0 25 25 25h45q25 0 24 -25v-741zM137 0q-18 0 -27 11t-4 28l451 1235q14 39 49 39h41q15 0 25 -11t4 -28l-451 -1235q-14 -39 -47 -39h-41zM662 788q23 0 22 -22
q0 -4 -10 -49l-119 -445h76v123q0 25 24 25h70q23 0 23 -25v-123h47q25 0 24 -22v-53q0 -23 -24 -23h-47v-151q0 -23 -23 -23h-70q-25 0 -24 23v151h-172q-23 0 -23 21v43l8 41l127 487q6 23 25 22h66z" />
    <glyph glyph-name="onehalf" unicode="&#xbd;" horiz-adv-x="901" 
d="M225 547q0 -23 -24 -23h-74q-25 0 -25 23v588h-43q-23 0 -22 22v35q0 25 22 25h11q61 0 61 63v8q0 25 25 25h45q25 0 24 -25v-741zM860 578q0 -78 -36 -158t-96 -173t-85 -145h182q25 0 25 -24v-55q0 -23 -25 -23h-290q-23 0 -23 23v40q0 38 84 176q84 139 114 209
t29 138q0 111 -61 110q-59 0 -53 -110q2 -37 -25 -37h-55q-31 0 -31 33q0 116 40 164t126 49q180 0 180 -217zM137 0q-18 0 -27 11t-4 28l451 1235q14 39 49 39h41q15 0 25 -11t4 -28l-451 -1235q-14 -39 -47 -39h-41z" />
    <glyph glyph-name="threequarters" unicode="&#xbe;" horiz-adv-x="983" 
d="M401 748q0 -231 -178 -232q-86 0 -127 50t-41 177q0 35 31 35h57q29 0 25 -41q-6 -121 51 -121q35 0 48 25t14 109q-1 84 -15 110t-43 27h-33q-23 0 -22 22v37q0 25 22 25h33q27 -1 39 25t12 101t-13 99t-42 25q-57 0 -51 -107q4 -41 -25 -41h-57q-31 0 -31 33
q0 117 41 165t127 48q168 0 168 -219q0 -119 -59 -168q69 -49 69 -184zM270 0q-18 0 -27 11t-3 28l450 1235q14 39 49 39h41q16 0 26 -11t3 -28l-451 -1235q-14 -39 -47 -39h-41zM952 197q0 -23 -24 -23h-47v-151q0 -23 -23 -23h-70q-25 0 -24 23v151h-172q-23 0 -23 21v43
q0 14 9 41l127 487q6 23 24 22h66q23 0 22 -22q0 -4 -10 -49l-119 -445h76v123q0 25 24 25h70q23 0 23 -25v-123h47q25 0 24 -22v-53z" />
    <glyph glyph-name="questiondown" unicode="&#xbf;" horiz-adv-x="565" 
d="M279 791q-43 -1 -73 29t-30 73t30 73t73 30t73 -30t29 -73q1 -43 -29 -73t-73 -29zM174 2q0 -117 28 -161t92 -44t86 48q22 47 16 125t40 77h49q51 0 52 -55q1 -182 -59 -255t-187 -73q-256 0 -256 352q0 158 87 270t87 193v121q0 39 39 39h61q39 0 39 -39v-121
q0 -94 -50 -174q-4 -8 -24 -37t-24 -35q-76 -114 -76 -231z" />
    <glyph glyph-name="Agrave" unicode="&#xc0;" horiz-adv-x="692" 
d="M358 1399q-33 0 -71 39l-191 188q-16 16 -10 28t25 13h75q37 0 72 -39l170 -188q14 -18 7 -30t-25 -11h-52zM346 1085q-10 -1 -10 -31t-21 -149l-63 -385h188l-63 385q-21 119 -21 149t-10 31zM129 0h-61q-37 0 -37 37q0 2 12 82l215 1157q6 37 41 37h94q35 0 41 -37
l215 -1157q12 -80 13 -82q0 -37 -37 -37h-62q-35 0 -41 35l-61 366h-230l-61 -366q-6 -35 -41 -35z" />
    <glyph glyph-name="Aacute" unicode="&#xc1;" horiz-adv-x="692" 
d="M336 1399h-51q-18 0 -26 11q-7 11 7 30l170 188q35 39 72 39h76q18 0 24 -12t-10 -29l-190 -188q-39 -39 -72 -39zM346 1085q-10 -1 -10 -31t-21 -149l-63 -385h188l-63 385q-21 119 -21 149t-10 31zM129 0h-61q-37 0 -37 37q0 2 12 82l215 1157q6 37 41 37h94
q35 0 41 -37l215 -1157q12 -80 13 -82q0 -37 -37 -37h-62q-35 0 -41 35l-61 366h-230l-61 -366q-6 -35 -41 -35z" />
    <glyph glyph-name="Acircumflex" unicode="&#xc2;" horiz-adv-x="692" 
d="M193 1399h-58q-18 0 -24 12t6 29l151 209q29 39 72 39h16q43 0 72 -39l152 -209q12 -16 6 -28t-25 -13h-57q-41 0 -66 39l-90 139l-90 -139q-27 -39 -65 -39zM346 1085q-10 -1 -10 -31t-21 -149l-63 -385h188l-63 385q-21 119 -21 149t-10 31zM129 0h-61q-37 0 -37 37
q0 2 12 82l215 1157q6 37 41 37h94q35 0 41 -37l215 -1157q12 -80 13 -82q0 -37 -37 -37h-62q-35 0 -41 35l-61 366h-230l-61 -366q-6 -35 -41 -35z" />
    <glyph glyph-name="Atilde" unicode="&#xc3;" horiz-adv-x="692" 
d="M115 1444q-1 168 119 168q60 0 123 -56q62 -56 81 -55q41 0 41 53v17q0 33 31 33h37q33 0 33 -33v-15q0 -166 -129 -165q-57 0 -117 55t-80 55q-21 0 -30 -11t-9 -44v-16q0 -12 -9 -22t-22 -9h-39q-12 0 -21 9t-9 22v14zM346 1085q-10 -1 -10 -31t-21 -149l-63 -385h188
l-63 385q-21 119 -21 149t-10 31zM129 0h-61q-37 0 -37 37q0 2 12 82l215 1157q6 37 41 37h94q35 0 41 -37l215 -1157q12 -80 13 -82q0 -37 -37 -37h-62q-35 0 -41 35l-61 366h-230l-61 -366q-6 -35 -41 -35z" />
    <glyph glyph-name="Adieresis" unicode="&#xc4;" horiz-adv-x="692" 
d="M483 1399q-33 -1 -57 23t-25 59q0 35 25 59q26 24 58 23q32 0 57 -24q25 -25 25 -59t-25 -58q-25 -23 -58 -23zM209 1399q-33 -1 -57 23t-25 59q0 35 25 59q26 24 58 23q32 0 56 -24q24 -25 25 -59q-1 -34 -25 -58t-57 -23zM346 1085q-10 -1 -10 -31t-21 -149l-63 -385
h188l-63 385q-21 119 -21 149t-10 31zM129 0h-61q-37 0 -37 37q0 2 12 82l215 1157q6 37 41 37h94q35 0 41 -37l215 -1157q12 -80 13 -82q0 -37 -37 -37h-62q-35 0 -41 35l-61 366h-230l-61 -366q-6 -35 -41 -35z" />
    <glyph glyph-name="Aring" unicode="&#xc5;" horiz-adv-x="692" 
d="M346 1450q37 0 63 27q25 27 25 63t-25 63q-26 25 -63 25q-36 0 -62 -26t-26 -62q0 -38 26 -64t62 -26zM346 1712q72 0 122 -51t50 -122t-51 -122t-121 -51t-121 51t-51 122t50 122t122 51zM346 1085q-10 -1 -10 -31t-21 -149l-63 -385h188l-63 385q-21 119 -21 149
t-10 31zM129 0h-61q-37 0 -37 37q0 2 12 82l215 1157q6 37 41 37h94q35 0 41 -37l215 -1157q12 -80 13 -82q0 -37 -37 -37h-62q-35 0 -41 35l-61 366h-230l-61 -366q-6 -35 -41 -35z" />
    <glyph glyph-name="AE" unicode="&#xc6;" horiz-adv-x="866" 
d="M803 1313q39 0 39 -39v-53q0 -39 -39 -39h-350l77 -426h228q39 0 39 -39v-53q0 -39 -39 -39h-203l92 -494h162q39 0 39 -39v-53q0 -39 -39 -39h-246q-35 0 -41 35l-61 366h-230l-61 -366q-6 -35 -41 -35h-61q-37 0 -37 37q0 2 12 82l215 1157q6 37 41 37h504zM346 1085
q-10 -1 -10 -31t-21 -149l-63 -385h188l-63 385q-21 119 -21 149t-10 31z" />
    <glyph glyph-name="Ccedilla" unicode="&#xc7;" horiz-adv-x="610" 
d="M57 676q-1 330 61 490q62 159 228 159q117 0 176 -75t60 -259q0 -49 -50 -49h-53q-41 0 -37 62q12 190 -96 190q-84 0 -110 -115t-25 -422q0 -307 26 -423t109 -115q109 0 96 213q-4 61 37 61h53q49 0 50 -49q0 -182 -52 -264t-153 -90l-17 -96q70 -10 103 -56t33 -108
t-47 -109t-124 -47t-151 39q-31 16 -31 37v41q-1 14 9 22t18 5q8 -4 53 -26t86 -22q72 0 72 64q0 33 -25 50q-24 17 -56 17q-58 0 -50 39l24 156q-123 34 -170 192t-47 488z" />
    <glyph glyph-name="Egrave" unicode="&#xc8;" horiz-adv-x="552" 
d="M375 1399q-33 0 -72 39l-190 188q-16 16 -11 29q6 12 25 12h76q37 0 71 -39l170 -188q14 -18 8 -30q-7 -11 -26 -11h-51zM139 0q-39 0 -39 39v1235q0 39 39 39h350q39 0 39 -39v-53q0 -39 -39 -39h-237v-426h192q39 0 39 -39v-53q0 -39 -39 -39h-192v-494h244
q39 0 39 -39v-53q0 -39 -39 -39h-357z" />
    <glyph glyph-name="Eacute" unicode="&#xc9;" horiz-adv-x="552" 
d="M276 1399h-51q-18 0 -25 11t7 30l170 188q35 39 72 39h75q18 0 24 -12t-9 -29l-191 -188q-39 -39 -72 -39zM139 0q-39 0 -39 39v1235q0 39 39 39h350q39 0 39 -39v-53q0 -39 -39 -39h-237v-426h192q39 0 39 -39v-53q0 -39 -39 -39h-192v-494h244q39 0 39 -39v-53
q0 -39 -39 -39h-357z" />
    <glyph glyph-name="Ecircumflex" unicode="&#xca;" horiz-adv-x="552" 
d="M158 1399h-58q-18 0 -24 12t6 29l151 209q29 39 72 39h17q43 0 71 -39l152 -209q12 -16 6 -28t-25 -13h-57q-41 0 -66 39l-90 139l-90 -139q-27 -39 -65 -39zM139 0q-39 0 -39 39v1235q0 39 39 39h350q39 0 39 -39v-53q0 -39 -39 -39h-237v-426h192q39 0 39 -39v-53
q0 -39 -39 -39h-192v-494h244q39 0 39 -39v-53q0 -39 -39 -39h-357z" />
    <glyph glyph-name="Edieresis" unicode="&#xcb;" horiz-adv-x="552" 
d="M451 1399q-33 -1 -58 23t-24 59t25 59t57 23q33 0 57 -24q24 -25 24 -59t-24 -58t-57 -23zM176 1399q-34 -1 -58 23t-24 59t25 59t57 23q32 0 58 -24q24 -25 24 -59t-24 -58t-58 -23zM139 0q-39 0 -39 39v1235q0 39 39 39h350q39 0 39 -39v-53q0 -39 -39 -39h-237v-426
h192q39 0 39 -39v-53q0 -39 -39 -39h-192v-494h244q39 0 39 -39v-53q0 -39 -39 -39h-357z" />
    <glyph glyph-name="Igrave" unicode="&#xcc;" horiz-adv-x="352" 
d="M211 1399q-33 0 -72 39l-190 188q-16 16 -10 28t24 13h76q37 0 72 -39l170 -188q14 -18 7 -30t-26 -11h-51zM139 0q-39 0 -39 39v1235q0 39 39 39h74q39 0 39 -39v-1235q0 -39 -39 -39h-74z" />
    <glyph glyph-name="Iacute" unicode="&#xcd;" horiz-adv-x="352" 
d="M141 1399h-51q-18 0 -25 11t7 30l170 188q35 39 71 39h76q19 0 25 -12t-11 -29l-190 -188q-39 -39 -72 -39zM139 0q-39 0 -39 39v1235q0 39 39 39h74q39 0 39 -39v-1235q0 -39 -39 -39h-74z" />
    <glyph glyph-name="Icircumflex" unicode="&#xce;" horiz-adv-x="352" 
d="M23 1399h-58q-18 0 -24 12t6 29l151 209q29 39 72 39h16q43 0 72 -39l152 -209q12 -16 6 -28t-25 -13h-57q-41 0 -66 39l-90 139l-90 -139q-27 -39 -65 -39zM139 0q-39 0 -39 39v1235q0 39 39 39h74q39 0 39 -39v-1235q0 -39 -39 -39h-74z" />
    <glyph glyph-name="Idieresis" unicode="&#xcf;" horiz-adv-x="352" 
d="M313 1399q-35 -1 -59 23t-23 59q0 35 24 59q25 24 59 23q34 0 58 -24q24 -25 24 -59t-24 -58q-24 -23 -59 -23zM39 1399q-35 -1 -59 23t-23 59q0 35 24 59q25 24 59 23q34 0 58 -24q24 -25 23 -59q1 -34 -23 -58t-59 -23zM139 0q-39 0 -39 39v1235q0 39 39 39h74
q39 0 39 -39v-1235q0 -39 -39 -39h-74z" />
    <glyph glyph-name="Eth" unicode="&#xd0;" horiz-adv-x="696" 
d="M100 606h-59q-39 0 -39 39v53q0 39 39 39h59v537q0 39 39 39h193q162 0 234 -160t71 -494q0 -335 -72 -497t-233 -162h-193q-39 0 -39 39v567zM252 737h92q39 0 39 -39v-53q0 -39 -39 -39h-92v-483h51q100 0 141 131t41 405q0 275 -41 403t-141 128h-51v-453z" />
    <glyph glyph-name="Ntilde" unicode="&#xd1;" horiz-adv-x="737" 
d="M141 1444q0 168 120 168q61 0 123 -56t81 -55q41 0 41 53v17q0 33 31 33h36q33 0 33 -33v-15q0 -166 -129 -165q-57 0 -117 55t-80 55t-29 -11t-9 -44v-16q0 -12 -10 -22t-21 -9h-39q-12 0 -21 9t-10 22v14zM240 696v-657q0 -39 -39 -39h-62q-39 0 -39 39v1235
q0 39 39 39h62q31 0 39 -31l200 -666q43 -141 45 -160t11 -20q8 0 5 39t-3 141v658q0 39 39 39h61q39 0 39 -39v-1235q0 -39 -39 -39h-61q-31 0 -39 31l-201 665q-43 140 -45 160t-10 21q-8 -1 -5 -39t3 -142z" />
    <glyph glyph-name="Ograve" unicode="&#xd2;" horiz-adv-x="651" 
d="M352 1399q-33 0 -71 39l-191 188q-16 16 -10 28t24 13h76q37 0 72 -39l170 -188q14 -18 7 -30t-26 -11h-51zM326 121q42 0 64 30q50 67 50 506t-50 505q-22 30 -64 30t-65 -30q-50 -68 -50 -507t51 -504q23 -30 64 -30zM326 -12q-92 0 -147 50q-54 50 -88 201t-34 419
t34 418q34 151 88 200q55 49 147 49t146 -49t88 -200t34 -419q0 -269 -34 -419t-88 -200t-146 -50z" />
    <glyph glyph-name="Oacute" unicode="&#xd3;" horiz-adv-x="651" 
d="M295 1399h-51q-18 0 -26 11q-7 11 7 30l170 188q35 39 72 39h76q18 0 24 -12t-10 -29l-190 -188q-39 -39 -72 -39zM326 121q42 0 64 30q50 67 50 506t-50 505q-22 30 -64 30t-65 -30q-50 -68 -50 -507t51 -504q23 -30 64 -30zM326 -12q-92 0 -147 50q-54 50 -88 201
t-34 419t34 418q34 151 88 200q55 49 147 49t146 -49t88 -200t34 -419q0 -269 -34 -419t-88 -200t-146 -50z" />
    <glyph glyph-name="Ocircumflex" unicode="&#xd4;" horiz-adv-x="651" 
d="M170 1399h-57q-18 0 -25 12q-6 12 6 29l152 209q29 39 71 39h17q43 0 72 -39l151 -209q12 -16 6 -28t-24 -13h-58q-41 0 -65 39l-90 139l-90 -139q-27 -39 -66 -39zM326 121q42 0 64 30q50 67 50 506t-50 505q-22 30 -64 30t-65 -30q-50 -68 -50 -507t51 -504
q23 -30 64 -30zM326 -12q-92 0 -147 50q-54 50 -88 201t-34 419t34 418q34 151 88 200q55 49 147 49t146 -49t88 -200t34 -419q0 -269 -34 -419t-88 -200t-146 -50z" />
    <glyph glyph-name="Otilde" unicode="&#xd5;" horiz-adv-x="651" 
d="M92 1444q0 168 120 168q60 0 122 -56t82 -55q41 0 41 53v17q0 33 30 33h37q33 0 33 -33v-15q0 -166 -129 -165q-56 0 -116 55t-81 55t-29 -11t-9 -44v-16q1 -12 -9 -22t-22 -9h-39q-12 0 -22 9q-9 9 -9 22v14zM326 121q42 0 64 30q50 67 50 506t-50 505q-22 30 -64 30
t-65 -30q-50 -68 -50 -507t51 -504q23 -30 64 -30zM326 -12q-92 0 -147 50q-54 50 -88 201t-34 419t34 418q34 151 88 200q55 49 147 49t146 -49t88 -200t34 -419q0 -269 -34 -419t-88 -200t-146 -50z" />
    <glyph glyph-name="Odieresis" unicode="&#xd6;" horiz-adv-x="651" 
d="M463 1399q-33 -1 -57 23t-25 59q0 35 25 59q26 24 58 23q32 0 56 -24q24 -25 25 -59q-1 -34 -25 -58t-57 -23zM188 1399q-34 -1 -58 23t-24 59t25 59t57 23q32 0 58 -24q24 -25 24 -59t-24 -58q-25 -23 -58 -23zM326 121q42 0 64 30q50 67 50 506t-50 505q-22 30 -64 30
t-65 -30q-50 -68 -50 -507t51 -504q23 -30 64 -30zM326 -12q-92 0 -147 50q-54 50 -88 201t-34 419t34 418q34 151 88 200q55 49 147 49t146 -49t88 -200t34 -419q0 -269 -34 -419t-88 -200t-146 -50z" />
    <glyph glyph-name="multiply" unicode="&#xd7;" 
d="M221 657l-168 168q-29 27 0 56l31 30q27 27 55 0l168 -168l168 168q29 27 55 0l31 -30q29 -29 0 -56l-168 -168l168 -168q29 -27 0 -55l-31 -31q-27 -27 -55 0l-168 168l-168 -168q-29 -27 -55 0l-31 31q-29 29 0 55z" />
    <glyph glyph-name="Oslash" unicode="&#xd8;" horiz-adv-x="651" 
d="M594 671q0 -283 -34 -433t-88 -200t-146 -50q-125 0 -181 96l-39 -94q-16 -39 -51 -39h-24q-18 0 -27 11q-8 11 0 28l90 223q-37 152 -37 432t34 431t88 200t147 49q125 0 180 -96l39 94q16 39 51 39h25q18 0 26 -11t0 -28l-90 -223q37 -147 37 -429zM326 121q42 0 64 30
q50 67 50 506q0 107 -2 152l-213 -524q12 -100 36 -132t65 -32zM324 1192q-42 0 -63 -30q-50 -68 -50 -505q0 -108 2 -153l211 524q-12 100 -35 132t-65 32z" />
    <glyph glyph-name="Ugrave" unicode="&#xd9;" horiz-adv-x="733" 
d="M391 1399q-33 0 -72 39l-190 188q-16 16 -10 28t24 13h76q37 0 72 -39l170 -188q14 -18 7 -30t-26 -11h-51zM367 -18q-160 0 -214 99t-55 329v864q0 39 39 39h74q39 0 39 -39v-868q0 -162 22 -224q23 -61 95 -61q73 0 95 61t21 224v868q0 39 39 39h74q39 0 39 -39v-864
q0 -228 -54 -328t-214 -100z" />
    <glyph glyph-name="Uacute" unicode="&#xda;" horiz-adv-x="733" 
d="M346 1399h-51q-18 0 -26 11q-7 11 7 30l170 188q35 39 72 39h76q18 0 24 -12t-10 -29l-190 -188q-39 -39 -72 -39zM367 -18q-160 0 -214 99t-55 329v864q0 39 39 39h74q39 0 39 -39v-868q0 -162 22 -224q23 -61 95 -61q73 0 95 61t21 224v868q0 39 39 39h74q39 0 39 -39
v-864q0 -228 -54 -328t-214 -100z" />
    <glyph glyph-name="Ucircumflex" unicode="&#xdb;" horiz-adv-x="733" 
d="M213 1399h-57q-18 0 -25 12q-6 12 6 29l152 209q29 39 71 39h17q43 0 72 -39l151 -209q12 -16 6 -28t-24 -13h-58q-41 0 -65 39l-90 139l-90 -139q-27 -39 -66 -39zM367 -18q-160 0 -214 99t-55 329v864q0 39 39 39h74q39 0 39 -39v-868q0 -162 22 -224q23 -61 95 -61
q73 0 95 61t21 224v868q0 39 39 39h74q39 0 39 -39v-864q0 -228 -54 -328t-214 -100z" />
    <glyph glyph-name="Udieresis" unicode="&#xdc;" horiz-adv-x="733" 
d="M506 1399q-35 -1 -59 23t-23 59q0 35 24 59t58 23q34 0 58 -24q24 -25 24 -59t-24 -58t-58 -23zM231 1399q-35 -1 -59 23t-22 59q0 35 24 59t58 23q34 0 58 -24q24 -25 24 -59t-24 -58q-24 -23 -59 -23zM367 -18q-160 0 -214 99t-55 329v864q0 39 39 39h74q39 0 39 -39
v-868q0 -162 22 -224q23 -61 95 -61q73 0 95 61t21 224v868q0 39 39 39h74q39 0 39 -39v-864q0 -228 -54 -328t-214 -100z" />
    <glyph glyph-name="Yacute" unicode="&#xdd;" horiz-adv-x="622" 
d="M297 1399h-51q-18 0 -26 11q-7 11 7 30l170 188q35 39 72 39h76q18 0 24 -12t-10 -29l-190 -188q-39 -39 -72 -39zM274 0q-39 0 -38 39v450l-211 705q-20 66 -21 82q0 37 37 37h65q33 0 46 -43l114 -436q35 -126 35 -150t10 -25q11 0 11 24t34 151l115 436q12 43 45 43
h66q37 0 36 -37q0 -16 -20 -82l-211 -705v-450q0 -39 -39 -39h-74z" />
    <glyph glyph-name="Thorn" unicode="&#xde;" horiz-adv-x="661" 
d="M100 1274q0 39 39 39h74q39 0 39 -39v-207h88q164 0 230 -100t67 -297q0 -401 -299 -402h-86v-229q0 -39 -39 -39h-74q-39 0 -39 39v1235zM252 391h86q147 0 147 279q0 137 -35 206q-36 69 -126 68h-72v-553z" />
    <glyph glyph-name="germandbls" unicode="&#xdf;" horiz-adv-x="778" 
d="M618 228q0 66 -32 111q-33 46 -78 85t-91 81q-112 102 -112 240q0 102 77 196q32 38 64 75q80 89 78 182q0 66 -36 107t-110 41q-158 0 -159 -287v-1020q0 -39 -39 -39h-61q-39 0 -39 39v1030q0 203 86 300t218 97t203 -74t71 -172t-36 -168t-78 -108
q-114 -106 -114 -196t113 -183q47 -39 94 -80q113 -99 113 -229q0 -131 -62 -200t-176 -68q-229 0 -229 288q0 49 49 50h45q41 0 37 -62q-8 -156 98 -155t106 119z" />
    <glyph glyph-name="agrave" unicode="&#xe0;" horiz-adv-x="618" 
d="M371 1081q-33 0 -72 39l-190 189q-16 16 -11 28q6 12 25 13h76q37 0 71 -39l170 -189q14 -18 7 -29t-25 -12h-51zM254 -12q-114 0 -165 79q-50 79 -50 207q0 305 270 306q41 0 90 -7v179q0 123 -98 122q-106 0 -98 -135q4 -61 -37 -61h-45q-49 0 -49 49q0 145 60 207
t179 61q227 0 228 -241v-613q0 -66 51 -65v-25q0 -25 -26 -44t-75 -19q-72 0 -86 78q-35 -78 -149 -78zM290 102q58 0 109 56v307q-47 6 -80 6q-141 0 -141 -195q0 -92 27 -133t85 -41z" />
    <glyph glyph-name="aacute" unicode="&#xe1;" horiz-adv-x="618" 
d="M264 1081h-51q-17 -1 -25 11t7 30l170 189q35 39 71 39h76q18 0 24 -12t-10 -29l-190 -189q-39 -39 -72 -39zM254 -12q-114 0 -165 79q-50 79 -50 207q0 305 270 306q41 0 90 -7v179q0 123 -98 122q-106 0 -98 -135q4 -61 -37 -61h-45q-49 0 -49 49q0 145 60 207t179 61
q227 0 228 -241v-613q0 -66 51 -65v-25q0 -25 -26 -44t-75 -19q-72 0 -86 78q-35 -78 -149 -78zM290 102q58 0 109 56v307q-47 6 -80 6q-141 0 -141 -195q0 -92 27 -133t85 -41z" />
    <glyph glyph-name="acircumflex" unicode="&#xe2;" horiz-adv-x="618" 
d="M150 1081h-58q-18 1 -24 13t6 28l151 209q29 39 72 39h16q43 0 72 -39l152 -209q12 -16 6 -28t-25 -13h-57q-41 0 -66 39l-90 140l-90 -140q-27 -39 -65 -39zM254 -12q-114 0 -165 79q-50 79 -50 207q0 305 270 306q41 0 90 -7v179q0 123 -98 122q-106 0 -98 -135
q4 -61 -37 -61h-45q-49 0 -49 49q0 145 60 207t179 61q227 0 228 -241v-613q0 -66 51 -65v-25q0 -25 -26 -44t-75 -19q-72 0 -86 78q-35 -78 -149 -78zM290 102q58 0 109 56v307q-47 6 -80 6q-141 0 -141 -195q0 -92 27 -133t85 -41z" />
    <glyph glyph-name="atilde" unicode="&#xe3;" horiz-adv-x="618" 
d="M76 1126q0 168 120 168q60 0 122 -55t81 -55q41 0 41 53v16q0 33 31 33h37q33 0 33 -33v-14q0 -166 -129 -166q-56 0 -116 55q-60 56 -81 56t-30 -12t-9 -44v-16q0 -12 -9 -21t-22 -10h-39q-12 -1 -21 9t-9 22v14zM254 -12q-114 0 -165 79q-50 79 -50 207q0 305 270 306
q41 0 90 -7v179q0 123 -98 122q-106 0 -98 -135q4 -61 -37 -61h-45q-49 0 -49 49q0 145 60 207t179 61q227 0 228 -241v-613q0 -66 51 -65v-25q0 -25 -26 -44t-75 -19q-72 0 -86 78q-35 -78 -149 -78zM290 102q58 0 109 56v307q-47 6 -80 6q-141 0 -141 -195q0 -92 27 -133
t85 -41z" />
    <glyph glyph-name="adieresis" unicode="&#xe4;" horiz-adv-x="618" 
d="M444 1081q-34 0 -58 25q-24 26 -24 58t24 57t58 25t59 -26q23 -24 23 -57t-24 -57t-58 -25zM170 1081q-34 0 -58 25q-24 26 -24 58t24 57t58 25t58 -26q24 -24 24 -57t-24 -57t-58 -25zM254 -12q-114 0 -165 79q-50 79 -50 207q0 305 270 306q41 0 90 -7v179
q0 123 -98 122q-106 0 -98 -135q4 -61 -37 -61h-45q-49 0 -49 49q0 145 60 207t179 61q227 0 228 -241v-613q0 -66 51 -65v-25q0 -25 -26 -44t-75 -19q-72 0 -86 78q-35 -78 -149 -78zM290 102q58 0 109 56v307q-47 6 -80 6q-141 0 -141 -195q0 -92 27 -133t85 -41z" />
    <glyph glyph-name="aring" unicode="&#xe5;" horiz-adv-x="618" 
d="M315 1145q37 1 63 27t25 63q1 37 -25 63t-63 25q-37 0 -63 -26q-26 -27 -25 -63q-1 -36 25 -62t63 -27zM315 1407q70 0 121 -50t51 -122t-51 -123t-121 -51q-71 0 -121 51t-51 123q0 72 51 122t121 50zM254 -12q-114 0 -165 79q-50 79 -50 207q0 305 270 306q41 0 90 -7
v179q0 123 -98 122q-106 0 -98 -135q4 -61 -37 -61h-45q-49 0 -49 49q0 145 60 207t179 61q227 0 228 -241v-613q0 -66 51 -65v-25q0 -25 -26 -44t-75 -19q-72 0 -86 78q-35 -78 -149 -78zM290 102q58 0 109 56v307q-47 6 -80 6q-141 0 -141 -195q0 -92 27 -133t85 -41z" />
    <glyph glyph-name="ae" unicode="&#xe6;" horiz-adv-x="929" 
d="M541 586h211q4 50 4 122t-20 119t-82 47t-88 -65t-25 -223zM539 477q-1 -203 23 -286t95 -82q104 0 99 145q-4 61 37 61h34q49 0 50 -49q0 -279 -224 -278q-125 0 -184 98q-72 -98 -227 -98q-102 0 -153 79q-50 79 -50 207q0 305 270 306q41 0 90 -7v179q0 123 -98 122
q-106 0 -98 -135q4 -61 -37 -61h-45q-49 0 -49 49q0 145 60 207t177 62t180 -76q63 76 174 76t164 -80q53 -79 54 -271q0 -76 -15 -168h-327zM319 471q-141 0 -141 -195q0 -92 27 -133t97 -41t124 93q-27 106 -27 270q-43 6 -80 6z" />
    <glyph glyph-name="ccedilla" unicode="&#xe7;" horiz-adv-x="565" 
d="M47 503q0 239 53 365t201 127q117 -1 170 -71t53 -228q0 -49 -49 -49h-45q-41 0 -37 62q10 166 -92 165q-71 0 -93 -88t-22 -296t23 -294q23 -87 92 -87q104 0 92 186q-4 61 37 61h45q49 0 49 -49q0 -281 -170 -315l-16 -98q70 -10 102 -56t33 -108q0 -62 -46 -109
q-45 -47 -123 -47t-152 39q-31 16 -31 37v41q0 14 9 22q10 8 18 5l52 -26t87 -22q72 0 71 64q0 33 -24 50q-25 17 -57 17q-59 0 -50 39l25 152q-117 24 -161 148t-44 363z" />
    <glyph glyph-name="egrave" unicode="&#xe8;" horiz-adv-x="577" 
d="M354 1081q-33 0 -71 39l-191 189q-16 16 -10 28t24 13h76q37 0 72 -39l170 -189q14 -18 7 -29t-25 -12h-52zM301 -12q-147 0 -201 127q-53 127 -53 377t54 376t202 127q119 0 172 -79t53 -271q0 -76 -14 -168h-328q0 -203 24 -286t95 -82q104 0 98 145q-4 61 37 61h35
q49 0 49 -49q0 -278 -223 -278zM188 586h211q4 50 4 122t-20 119q-19 47 -81 47t-88 -65t-26 -223z" />
    <glyph glyph-name="eacute" unicode="&#xe9;" horiz-adv-x="577" 
d="M283 1081h-52q-18 -1 -25 11t7 30l170 189q35 39 72 39h75q18 0 24 -12t-9 -29l-191 -189q-38 -39 -71 -39zM301 -12q-147 0 -201 127q-53 127 -53 377t54 376t202 127q119 0 172 -79t53 -271q0 -76 -14 -168h-328q0 -203 24 -286t95 -82q104 0 98 145q-4 61 37 61h35
q49 0 49 -49q0 -278 -223 -278zM188 586h211q4 50 4 122t-20 119q-19 47 -81 47t-88 -65t-26 -223z" />
    <glyph glyph-name="ecircumflex" unicode="&#xea;" horiz-adv-x="577" 
d="M166 1081h-57q-19 1 -25 13t6 28l152 209q29 39 71 39h17q43 0 71 -39l152 -209q12 -16 6 -28t-24 -13h-58q-41 0 -65 39l-90 140l-91 -140q-27 -39 -65 -39zM301 -12q-147 0 -201 127q-53 127 -53 377t54 376t202 127q119 0 172 -79t53 -271q0 -76 -14 -168h-328
q0 -203 24 -286t95 -82q104 0 98 145q-4 61 37 61h35q49 0 49 -49q0 -278 -223 -278zM188 586h211q4 50 4 122t-20 119q-19 47 -81 47t-88 -65t-26 -223z" />
    <glyph glyph-name="edieresis" unicode="&#xeb;" horiz-adv-x="577" 
d="M449 1081q-35 0 -59 25q-24 26 -24 58t24 57t59 25t59 -26q24 -24 22 -57q0 -33 -23 -57t-58 -25zM174 1081q-34 0 -58 25q-24 26 -24 58t24 57t58 25t58 -26q24 -24 24 -57t-24 -57t-58 -25zM301 -12q-147 0 -201 127q-53 127 -53 377t54 376t202 127q119 0 172 -79
t53 -271q0 -76 -14 -168h-328q0 -203 24 -286t95 -82q104 0 98 145q-4 61 37 61h35q49 0 49 -49q0 -278 -223 -278zM188 586h211q4 50 4 122t-20 119q-19 47 -81 47t-88 -65t-26 -223z" />
    <glyph glyph-name="igrave" unicode="&#xec;" horiz-adv-x="299" 
d="M119 0q-39 0 -39 39v905q0 39 39 39h61q39 0 39 -39v-905q0 -39 -39 -39h-61zM184 1081q-33 0 -71 39l-191 189q-16 16 -10 28t25 13h75q37 0 72 -39l170 -189q14 -18 7 -29t-25 -12h-52z" />
    <glyph glyph-name="iacute" unicode="&#xed;" horiz-adv-x="299" 
d="M119 0q-39 0 -39 39v905q0 39 39 39h61q39 0 39 -39v-905q0 -39 -39 -39h-61zM115 1081h-52q-18 -1 -25 11t7 30l170 189q35 39 72 39h75q18 0 24 -12t-9 -29l-191 -189q-38 -39 -71 -39z" />
    <glyph glyph-name="icircumflex" unicode="&#xee;" horiz-adv-x="299" 
d="M-6 1081h-57q-19 1 -25 13t6 28l152 209q29 39 71 39h17q43 0 71 -39l152 -209q12 -16 6 -28t-25 -13h-57q-41 0 -65 39l-90 140l-91 -140q-27 -39 -65 -39zM119 0q-39 0 -39 39v905q0 39 39 39h61q39 0 39 -39v-905q0 -39 -39 -39h-61z" />
    <glyph glyph-name="idieresis" unicode="&#xef;" horiz-adv-x="299" 
d="M287 1081q-33 0 -58 25q-25 26 -25 58t25 57t58 25t57 -26q24 -24 25 -57q-1 -33 -25 -57t-57 -25zM12 1081q-34 0 -58 25q-24 26 -24 58t25 57t57 25t58 -26q24 -24 24 -57t-24 -57t-58 -25zM119 0q-39 0 -39 39v905q0 39 39 39h61q39 0 39 -39v-905q0 -39 -39 -39h-61z
" />
    <glyph glyph-name="eth" unicode="&#xf0;" horiz-adv-x="593" 
d="M547 492q1 -279 -61 -392q-62 -112 -189 -112t-188 112t-62 392t61 392t189 111q31 0 61 -6q-18 90 -57 178l-113 -57q-38 -17 -38 23v45q0 35 38 55l62 33q-66 111 -135 161q-25 19 -18 39t30 21h25q104 0 208 -166l107 55q39 17 39 -22v-45q0 -35 -39 -56l-53 -28
q133 -276 133 -733zM297 111q39 0 58 18t36 105q17 88 17 258t-17 257q-15 87 -35 105t-59 18t-58 -18t-35 -105t-18 -257q0 -170 16 -258t36 -105q20 -18 59 -18z" />
    <glyph glyph-name="ntilde" unicode="&#xf1;" horiz-adv-x="655" 
d="M111 1126q-1 168 119 168q60 0 123 -55q62 -55 81 -55q41 0 41 53v16q0 33 31 33h37q33 0 32 -33v-14q0 -166 -129 -166q-57 0 -116 55q-59 56 -80 56t-30 -12t-9 -44v-16q0 -12 -9 -21t-22 -10h-39q-12 -1 -21 9t-9 22v14zM119 0q-39 0 -39 39v905q0 39 39 39h61
q39 0 39 -39v-6q84 57 172 57q188 0 189 -223v-733q0 -39 -39 -39h-62q-39 0 -39 39v733q0 94 -86 94q-66 0 -135 -37v-790q0 -39 -39 -39h-61z" />
    <glyph glyph-name="ograve" unicode="&#xf2;" horiz-adv-x="593" 
d="M315 1081q-33 0 -71 39l-191 189q-16 16 -10 28t25 13h75q37 0 72 -39l170 -189q14 -18 7 -29t-25 -12h-52zM297 111q39 0 58 18t36 105q17 88 17 258t-17 257q-15 87 -35 105t-59 18t-58 -18t-35 -105t-18 -257q0 -170 16 -258t36 -105q20 -18 59 -18zM297 -12
q-127 0 -188 112t-62 392t61 392t189 112t188 -114q61 -112 61 -390t-60 -392q-62 -112 -189 -112z" />
    <glyph glyph-name="oacute" unicode="&#xf3;" horiz-adv-x="593" 
d="M279 1081h-52q-18 -1 -25 11t7 30l170 189q35 39 72 39h75q18 0 24 -12t-9 -29l-191 -189q-38 -39 -71 -39zM297 111q39 0 58 18t36 105q17 88 17 258t-17 257q-15 87 -35 105t-59 18t-58 -18t-35 -105t-18 -257q0 -170 16 -258t36 -105q20 -18 59 -18zM297 -12
q-127 0 -188 112t-62 392t61 392t189 112t188 -114q61 -112 61 -390t-60 -392q-62 -112 -189 -112z" />
    <glyph glyph-name="ocircumflex" unicode="&#xf4;" horiz-adv-x="593" 
d="M143 1081h-57q-18 1 -24 13t6 28l151 209q29 39 72 39h16q43 0 72 -39l151 -209q12 -16 6 -28t-24 -13h-57q-41 0 -66 39l-90 140l-90 -140q-27 -39 -66 -39zM297 111q39 0 58 18t36 105q17 88 17 258t-17 257q-15 87 -35 105t-59 18t-58 -18t-35 -105t-18 -257
q0 -170 16 -258t36 -105q20 -18 59 -18zM297 -12q-127 0 -188 112t-62 392t61 392t189 112t188 -114q61 -112 61 -390t-60 -392q-62 -112 -189 -112z" />
    <glyph glyph-name="otilde" unicode="&#xf5;" horiz-adv-x="593" 
d="M70 1126q0 168 120 168q60 0 122 -55t81 -55q41 0 41 53v16q0 33 31 33h37q33 0 33 -33v-14q0 -166 -129 -166q-56 0 -116 55q-60 56 -81 56t-30 -12t-9 -44v-16q0 -12 -9 -21t-22 -10h-39q-12 -1 -21 9t-9 22v14zM297 111q39 0 58 18t36 105q17 88 17 258t-17 257
q-15 87 -35 105t-59 18t-58 -18t-35 -105t-18 -257q0 -170 16 -258t36 -105q20 -18 59 -18zM297 -12q-127 0 -188 112t-62 392t61 392t189 112t188 -114q61 -112 61 -390t-60 -392q-62 -112 -189 -112z" />
    <glyph glyph-name="odieresis" unicode="&#xf6;" horiz-adv-x="593" 
d="M434 1081q-34 0 -58 25q-24 26 -24 58t25 57t57 25t58 -26q24 -24 24 -57t-24 -57t-58 -25zM160 1081q-33 0 -58 25q-24 26 -24 58t24 57q25 25 58 25q34 0 58 -26q24 -24 24 -57t-24 -57t-58 -25zM297 111q39 0 58 18t36 105q17 88 17 258t-17 257q-15 87 -35 105
t-59 18t-58 -18t-35 -105t-18 -257q0 -170 16 -258t36 -105q20 -18 59 -18zM297 -12q-127 0 -188 112t-62 392t61 392t189 112t188 -114q61 -112 61 -390t-60 -392q-62 -112 -189 -112z" />
    <glyph glyph-name="divide" unicode="&#xf7;" 
d="M307 864q-35 0 -61 26t-25 60q0 34 26 61q27 25 61 25t60 -26t26 -60t-26 -60t-61 -26zM307 276q-35 0 -61 26t-25 60q0 34 26 61q27 26 61 26t60 -26t26 -61q0 -34 -26 -60t-61 -26zM90 594q-39 0 -39 39v49q0 39 39 39h434q39 0 39 -39v-49q0 -39 -39 -39h-434z" />
    <glyph glyph-name="oslash" unicode="&#xf8;" horiz-adv-x="593" 
d="M547 479q1 -266 -61 -379t-189 -112q-86 0 -137 45l-19 -43q-16 -39 -51 -39h-20q-18 0 -27 11q-8 11 0 28l55 133q-51 115 -51 381q-1 266 61 380q62 112 189 111q84 0 137 -45l19 47q16 39 51 39h20q18 0 26 -11t1 -28l-55 -137q51 -115 51 -381zM297 111q39 0 58 18
t36 105q16 87 16 204t-4 199l-188 -465q23 -61 82 -61zM297 872q-39 0 -58 -18t-40 -131t-9 -373l187 463q-20 59 -80 59z" />
    <glyph glyph-name="ugrave" unicode="&#xf9;" horiz-adv-x="655" 
d="M332 1081q-33 0 -72 39l-190 189q-16 16 -11 28q6 12 25 13h76q37 0 71 -39l170 -189q13 -18 7 -29t-25 -12h-51zM264 -12q-188 0 -188 223v733q0 39 39 39h61q39 0 39 -39v-733q0 -94 86 -94q66 0 135 37v790q0 39 39 39h62q39 0 38 -39v-803q0 -66 52 -65v-25
q0 -25 -26 -44q-25 -19 -83 -19t-74 63q-84 -63 -180 -63z" />
    <glyph glyph-name="uacute" unicode="&#xfa;" horiz-adv-x="655" 
d="M315 1081h-51q-18 -1 -25 11t7 30l170 189q35 39 71 39h76q19 0 25 -12t-10 -29l-191 -189q-39 -39 -72 -39zM264 -12q-188 0 -188 223v733q0 39 39 39h61q39 0 39 -39v-733q0 -94 86 -94q66 0 135 37v790q0 39 39 39h62q39 0 38 -39v-803q0 -66 52 -65v-25
q0 -25 -26 -44q-25 -19 -83 -19t-74 63q-84 -63 -180 -63z" />
    <glyph glyph-name="ucircumflex" unicode="&#xfb;" horiz-adv-x="655" 
d="M168 1081h-57q-19 1 -25 13t6 28l152 209q29 39 71 39h17q43 0 71 -39l152 -209q12 -16 6 -28t-24 -13h-58q-41 0 -65 39l-90 140l-91 -140q-27 -39 -65 -39zM264 -12q-188 0 -188 223v733q0 39 39 39h61q39 0 39 -39v-733q0 -94 86 -94q66 0 135 37v790q0 39 39 39h62
q39 0 38 -39v-803q0 -66 52 -65v-25q0 -25 -26 -44q-25 -19 -83 -19t-74 63q-84 -63 -180 -63z" />
    <glyph glyph-name="udieresis" unicode="&#xfc;" horiz-adv-x="655" 
d="M461 1081q-35 0 -59 25q-24 26 -24 58t24 57t59 25t59 -26q24 -24 23 -57q1 -33 -23 -57t-59 -25zM186 1081q-34 0 -58 25q-24 26 -24 58t24 57t58 25t59 -26q23 -24 23 -57t-24 -57t-58 -25zM264 -12q-188 0 -188 223v733q0 39 39 39h61q39 0 39 -39v-733q0 -94 86 -94
q66 0 135 37v790q0 39 39 39h62q39 0 38 -39v-803q0 -66 52 -65v-25q0 -25 -26 -44q-25 -19 -83 -19t-74 63q-84 -63 -180 -63z" />
    <glyph glyph-name="yacute" unicode="&#xfd;" horiz-adv-x="655" 
d="M295 1081h-51q-18 -1 -26 11t7 30l170 189q35 39 72 39h76q18 0 24 -12t-10 -29l-190 -189q-39 -39 -72 -39zM297 -457q-61 1 -115 21t-53 53v55q0 31 31 31q12 1 46 -17t83 -18q147 0 147 234v143q-82 -57 -172 -57q-188 0 -188 223v733q0 39 39 39h61q39 0 39 -39v-733
q0 -94 86 -94q66 0 135 37v790q0 39 39 39h62q39 0 38 -39v-1042q-1 -193 -79 -276t-199 -83z" />
    <glyph glyph-name="thorn" unicode="&#xfe;" horiz-adv-x="626" 
d="M80 1427q0 39 39 39h61q39 0 39 -39v-475q41 43 121 43q123 -1 181 -119q59 -118 59 -384t-58 -386t-182 -118q-80 0 -121 47v-438q0 -39 -39 -39h-61q-39 0 -39 39v1830zM301 104q45 0 72 23t47 112t20 253t-20 252t-47 112q-27 23 -72 23t-82 -21v-733q37 -21 82 -21z
" />
    <glyph glyph-name="ydieresis" unicode="&#xff;" horiz-adv-x="655" 
d="M461 1081q-35 0 -59 25q-24 26 -24 58t24 57t59 25t59 -26q24 -24 23 -57q1 -33 -23 -57t-59 -25zM186 1081q-34 0 -58 25q-24 26 -24 58t24 57t58 25t59 -26q23 -24 23 -57t-24 -57t-58 -25zM297 -457q-61 1 -115 21t-53 53v55q0 31 31 31q12 1 46 -17t83 -18
q147 0 147 234v143q-82 -57 -172 -57q-188 0 -188 223v733q0 39 39 39h61q39 0 39 -39v-733q0 -94 86 -94q66 0 135 37v790q0 39 39 39h62q39 0 38 -39v-1042q-1 -193 -79 -276t-199 -83z" />
    <glyph glyph-name="dotlessi" unicode="&#x131;" horiz-adv-x="299" 
d="M119 0q-39 0 -39 39v905q0 39 39 39h61q39 0 39 -39v-905q0 -39 -39 -39h-61z" />
    <glyph glyph-name="Lslash" unicode="&#x141;" horiz-adv-x="524" 
d="M252 131h237q39 0 39 -39v-53q0 -39 -39 -39h-350q-39 0 -39 39v475l-59 -31q-39 -17 -39 23v43q0 37 39 55l59 31v639q0 39 39 39h74q39 0 39 -39v-563l94 49q39 18 39 -23v-43q0 -35 -39 -55l-94 -49v-459z" />
    <glyph glyph-name="lslash" unicode="&#x142;" horiz-adv-x="299" 
d="M219 39q0 -39 -39 -39h-61q-39 0 -39 39v573l-41 -20q-39 -18 -39 22v43q0 35 39 56l41 20v694q0 39 39 39h61q39 0 39 -39v-622l41 20q39 18 39 -22v-43q0 -35 -39 -55l-41 -21v-645z" />
    <glyph glyph-name="OE" unicode="&#x152;" horiz-adv-x="897" 
d="M834 1313q39 0 38 -39v-53q0 -39 -38 -39h-238v-426h192q39 0 39 -39v-53q0 -39 -39 -39h-192v-494h244q39 0 39 -39v-53q0 -39 -39 -39h-475q-162 0 -234 163t-72 497t72 493q72 160 234 160h469zM444 123v1067h-51q-100 0 -141 -128t-41 -402t41 -406q41 -131 141 -131
h51z" />
    <glyph glyph-name="oe" unicode="&#x153;" horiz-adv-x="937" 
d="M549 586h211q4 50 4 122t-20 119t-82 47q-61 0 -87 -65t-26 -223zM297 111q39 0 58 18t36 105q17 88 17 258t-17 257q-15 87 -35 105t-59 18t-58 -18t-35 -105t-18 -257q0 -170 16 -258t36 -105q20 -18 59 -18zM293 -12q-123 0 -184 112t-62 392t61 392t185 112t184 -103
q63 102 185 102t174 -79q53 -79 53 -271q0 -76 -15 -168h-327q-1 -203 23 -286t96 -82q104 0 98 145q-4 61 37 61h35q49 0 49 -49q0 -279 -223 -278q-122 0 -185 102q-61 -102 -184 -102z" />
    <glyph glyph-name="Scaron" unicode="&#x160;" horiz-adv-x="608" 
d="M463 1688h57q18 0 24 -12t-5 -29l-152 -209q-29 -39 -72 -39h-16q-43 0 -72 39l-151 209q-12 16 -6 28t24 13h58q41 0 65 -39l90 -140l90 140q27 39 66 39zM308 -12q-140 0 -200 85t-61 267q0 53 55 53h50q43 0 38 -67q-12 -205 109 -205q73 0 99 49t26 170
q0 154 -160 268q-209 154 -209 365q0 352 256 352q127 0 187 -73t59 -255q0 -55 -55 -55h-49q-45 0 -40 78t-15 125t-84 47t-92 -44t-27 -155q0 -160 118 -248q248 -182 248 -391q0 -178 -56 -272q-57 -94 -197 -94z" />
    <glyph glyph-name="scaron" unicode="&#x161;" horiz-adv-x="548" 
d="M432 1370h57q19 0 25 -12t-6 -29l-152 -209q-29 -39 -71 -39h-17q-43 0 -71 39l-152 209q-12 17 -6 29t24 12h58q41 0 65 -39l90 -139l91 139q27 39 65 39zM270 -12q-229 0 -229 288q0 49 49 50h45q41 0 37 -62q-8 -156 98 -155q113 0 113 143q0 92 -145 197
q-188 139 -188 273t60 204t173 70t167 -61q54 -60 54 -208q0 -49 -49 -49h-45q-41 0 -37 61q8 135 -92 135q-51 0 -79 -32t-28 -90q0 -98 109 -179q61 -45 100 -79t82 -99q43 -66 43 -131q0 -276 -238 -276z" />
    <glyph glyph-name="Ydieresis" unicode="&#x178;" horiz-adv-x="622" 
d="M449 1399q-35 -1 -59 23t-23 59q-1 35 23 59t59 23q35 0 59 -24q24 -25 22 -59q0 -34 -23 -58t-58 -23zM174 1399q-34 -1 -58 23t-24 59t24 59t58 23q34 0 58 -24q24 -25 24 -59t-24 -58t-58 -23zM274 0q-39 0 -38 39v450l-211 705q-20 66 -21 82q0 37 37 37h65
q33 0 46 -43l114 -436q35 -126 35 -150t10 -25q11 0 11 24t34 151l115 436q12 43 45 43h66q37 0 36 -37q0 -16 -20 -82l-211 -705v-450q0 -39 -39 -39h-74z" />
    <glyph glyph-name="Zcaron" unicode="&#x17d;" horiz-adv-x="579" 
d="M444 1688h58q18 0 24 -12t-6 -29l-151 -209q-29 -39 -72 -39h-16q-43 0 -72 39l-152 209q-12 16 -6 28t25 13h57q41 0 66 -39l90 -140l90 140q27 39 65 39zM70 0q-37 0 -37 37v49q0 25 12 66l334 1030h-299q-39 0 -39 39v53q0 39 39 39h414q37 0 36 -37v-49
q0 -29 -12 -66l-334 -1030h328q39 0 39 -39v-53q0 -39 -39 -39h-442z" />
    <glyph glyph-name="zcaron" unicode="&#x17e;" horiz-adv-x="485" 
d="M395 1370h58q18 0 24 -12t-6 -29l-152 -209q-29 -39 -71 -39h-17q-43 0 -71 39l-152 209q-12 17 -6 29t25 12h57q41 0 66 -39l90 -139l90 139q27 39 65 39zM51 0q-37 0 -37 37v47q0 25 17 66l282 704h-254q-14 0 -26 11t-13 28v51q0 14 12 26t27 13h357q37 0 37 -35v-49
q0 -29 -17 -65l-282 -705h282q39 0 39 -39v-51q0 -39 -39 -39h-385z" />
    <glyph glyph-name="florin" unicode="&#x192;" horiz-adv-x="399" 
d="M39 717q-39 0 -35 39l4 32q4 39 41 39h70l39 437q8 104 72 163q65 59 147 59t102 -16q20 -18 19 -34l-6 -64q-2 -29 -29 -29q-12 -1 -33 11t-53 12q-70 0 -78 -94l-41 -445h96q16 0 28 -11t9 -28l-4 -32q-4 -39 -43 -39h-96l-78 -912q-23 -262 -238 -262q-34 1 -60 17
t-24 47l5 41q4 31 30 30q4 0 28 -7q23 -7 51 -7t44 29t25 119l78 905h-70z" />
    <glyph glyph-name="circumflex" unicode="&#x2c6;" horiz-adv-x="819" 
d="M254 1081h-57q-19 1 -25 13t6 28l152 209q29 39 71 39h17q43 0 71 -39l152 -209q12 -16 6 -28t-24 -13h-58q-41 0 -65 39l-90 140l-91 -140q-27 -39 -65 -39z" />
    <glyph glyph-name="caron" unicode="&#x2c7;" horiz-adv-x="819" 
d="M563 1370h58q18 0 24 -12t-6 -29l-152 -209q-29 -39 -71 -39h-17q-43 0 -71 39l-152 209q-12 17 -6 29t25 12h57q41 0 65 -39l91 -139l90 139q27 39 65 39z" />
    <glyph glyph-name="breve" unicode="&#x2d8;" horiz-adv-x="819" 
d="M637 1321q0 -121 -57 -180q-58 -59 -158 -59t-158 58q-58 60 -57 181v10q0 39 39 39h28q39 0 39 -39v-10q0 -135 109 -135t108 135v10q0 39 39 39h29q39 0 39 -39v-10z" />
    <glyph glyph-name="dotaccent" unicode="&#x2d9;" horiz-adv-x="819" 
d="M410 1081q-37 0 -63 26q-25 27 -25 63t25 62q26 26 63 26q36 0 62 -26t26 -63t-26 -63t-62 -25z" />
    <glyph glyph-name="ring" unicode="&#x2da;" horiz-adv-x="819" 
d="M410 1145q36 1 62 27t26 63t-26 63t-62 25q-36 0 -63 -26q-25 -27 -25 -63t25 -63q26 -26 63 -26zM410 1407q70 0 120 -50t52 -122q0 -72 -52 -123t-120 -51q-70 0 -121 51t-51 123t51 122t121 50z" />
    <glyph glyph-name="ogonek" unicode="&#x2db;" horiz-adv-x="819" 
d="M582 -203q0 -20 -29 -43q-65 -47 -137 -47t-120 45t-48 117q0 73 58 143t145 103l61 -41q-61 -35 -97 -85t-36 -100q0 -76 65 -75q40 0 70 20t40 26t19 1q8 -6 9 -21v-43z" />
    <glyph glyph-name="tilde" unicode="&#x2dc;" horiz-adv-x="819" 
d="M176 1126q0 168 120 168q60 0 122 -55t82 -55q41 0 41 53v16q0 33 30 33h37q33 0 33 -33v-14q0 -166 -129 -166q-56 0 -116 55q-60 56 -81 56t-29 -12t-10 -44v-16q0 -12 -9 -21t-21 -10h-39q-11 -1 -21 9t-10 22v14z" />
    <glyph glyph-name="hungarumlaut" unicode="&#x2dd;" horiz-adv-x="819" 
d="M418 1081h-37q-17 -1 -25 11t6 30l170 189q35 39 72 39h62q18 0 24 -12t-10 -29l-191 -189q-38 -39 -71 -39zM188 1081h-36q-18 -1 -26 11t7 30l170 189q35 39 72 39h61q18 0 24 -12t-9 -29l-191 -189q-39 -39 -72 -39z" />
    <glyph glyph-name="pi" unicode="&#x3c0;" horiz-adv-x="718" 
d="M682 43q0 -55 -77 -55t-113 37t-37 135v696h-191v-817q0 -39 -39 -39h-61q-39 0 -39 39v817h-51q-39 0 -39 39v49q0 39 39 39h571q39 0 39 -39v-49q0 -39 -39 -39h-51v-680q0 -51 12 -65q12 -15 44 -15t32 -22v-31z" />
    <glyph glyph-name="endash" unicode="&#x2013;" horiz-adv-x="731" 
d="M109 512q-39 0 -39 39v49q0 39 39 39h514q39 0 39 -39v-49q0 -39 -39 -39h-514z" />
    <glyph glyph-name="emdash" unicode="&#x2014;" horiz-adv-x="821" 
d="M35 512q-39 0 -39 39v49q0 39 39 39h751q39 0 39 -39v-49q0 -39 -39 -39h-751z" />
    <glyph glyph-name="quoteleft" unicode="&#x2018;" horiz-adv-x="342" 
d="M68 942q0 164 135 352q23 31 43 31h33q16 0 22 -11t-4 -32q-92 -162 -94 -268q23 -6 45 -33t20 -63q0 -36 -28 -66q-28 -29 -71 -29q-42 0 -72 33q-29 33 -29 86z" />
    <glyph glyph-name="quoteright" unicode="&#x2019;" horiz-adv-x="342" 
d="M274 1206q0 -164 -135 -352q-20 -31 -43 -31h-33q-16 -1 -22 11t4 32q92 162 94 269q-23 7 -45 33t-20 63q0 37 28 65t71 29q41 0 71 -33t30 -86z" />
    <glyph glyph-name="quotesinglbase" unicode="&#x201a;" horiz-adv-x="342" 
d="M274 72q0 -164 -135 -353q-20 -31 -43 -30h-33q-16 0 -22 11t4 32q92 162 94 268q-23 6 -45 33t-20 63q0 36 28 66q29 28 71 28t72 -32q29 -33 29 -86z" />
    <glyph glyph-name="quotedblleft" unicode="&#x201c;" horiz-adv-x="628" 
d="M68 942q0 164 135 352q23 31 43 31h33q16 0 22 -11t-4 -32q-92 -162 -94 -268q23 -6 45 -33t20 -63q0 -36 -28 -66q-28 -29 -71 -29q-42 0 -72 33q-29 33 -29 86zM354 942q0 164 135 352q23 31 43 31h33q17 0 23 -11t-4 -32q-92 -162 -95 -268q23 -6 45 -33t22 -63
t-30 -66q-28 -29 -70 -29t-72 33t-30 86z" />
    <glyph glyph-name="quotedblright" unicode="&#x201d;" horiz-adv-x="628" 
d="M561 1206q0 -164 -135 -352q-20 -31 -43 -31h-33q-16 -1 -22 11t4 32q92 162 94 269q-22 7 -44 33t-22 63t29 65t71 29q42 0 72 -33t29 -86zM274 1206q0 -164 -135 -352q-20 -31 -43 -31h-33q-16 -1 -22 11t4 32q92 162 94 269q-23 7 -45 33t-20 63q0 37 28 65t71 29
q41 0 71 -33t30 -86z" />
    <glyph glyph-name="quotedblbase" unicode="&#x201e;" horiz-adv-x="628" 
d="M561 72q0 -164 -135 -353q-20 -31 -43 -30h-33q-16 0 -22 11t4 32q92 162 94 268q-22 6 -44 33t-22 63t29 66q29 28 71 28t72 -32t29 -86zM274 72q0 -164 -135 -353q-20 -31 -43 -30h-33q-16 0 -22 11t4 32q92 162 94 268q-23 6 -45 33t-20 63q0 36 28 66q29 28 71 28
t72 -32q29 -33 29 -86z" />
    <glyph glyph-name="dagger" unicode="&#x2020;" horiz-adv-x="503" 
d="M188 967v481q0 39 39 39h49q39 0 39 -39v-481h136q39 0 38 -39v-49q0 -39 -38 -39h-136v-1172q0 -39 -39 -39h-49q-39 0 -39 39v1172h-135q-39 0 -39 39v49q0 39 39 39h135z" />
    <glyph glyph-name="daggerdbl" unicode="&#x2021;" horiz-adv-x="503" 
d="M188 840h-135q-39 0 -39 39v49q0 39 39 39h135v481q0 39 39 39h49q39 0 39 -39v-481h136q39 0 38 -39v-49q0 -39 -38 -39h-136v-564h136q39 0 38 -38v-50q0 -39 -38 -38h-136v-482q0 -39 -39 -39h-49q-39 0 -39 39v482h-135q-39 0 -39 38v50q0 39 39 38h135v564z" />
    <glyph glyph-name="bullet" unicode="&#x2022;" horiz-adv-x="477" 
d="M420 578q0 -74 -53 -126t-128 -53t-128 51t-53 127t52 128q54 53 129 53t128 -53t53 -127z" />
    <glyph glyph-name="ellipsis" unicode="&#x2026;" horiz-adv-x="1056" 
d="M881 -6q-43 0 -73 30t-30 72t30 73q30 30 73 30t73 -30t29 -73q1 -42 -29 -72t-73 -30zM528 -6q-42 0 -72 30t-30 72t30 73q30 30 72 30t73 -30q30 -30 30 -73q0 -42 -30 -72t-73 -30zM176 -6q-43 0 -73 30q-29 30 -29 72t29 73q30 30 73 30t73 -30t30 -73q0 -42 -30 -72
t-73 -30z" />
    <glyph glyph-name="perthousand" unicode="&#x2030;" horiz-adv-x="1390" 
d="M694 90q47 0 65 50q17 50 17 162t-16 161t-64 49t-66 -50t-18 -160t18 -161t64 -51zM694 -20q-202 0 -202 322t202 321q202 1 203 -321q0 -322 -203 -322zM1157 90q47 0 65 50q17 50 17 162t-16 161q-17 49 -65 49t-65 -50t-17 -160t16 -161q18 -51 65 -51zM1157 -20
q-203 0 -203 322t203 321q203 1 203 -321t-203 -322zM143 0q-18 0 -26 11t0 28l575 1235q18 39 51 39h41q18 0 26 -11t1 -28l-575 -1235q-18 -39 -52 -39h-41zM233 801q47 0 65 50q17 50 17 162t-16 161q-17 49 -65 49q-48 -1 -65 -51t-17 -160t17 -160q17 -51 64 -51z
M233 690q-203 0 -202 322q0 322 202 321q203 1 203 -321t-203 -322z" />
    <glyph glyph-name="guilsinglleft" unicode="&#x2039;" horiz-adv-x="425" 
d="M35 573v7q0 27 39 71l270 314q12 14 26 9t15 -24v-82q0 -25 -39 -71l-186 -222l186 -221q39 -47 39 -69v-82q0 -19 -13 -25t-28 10l-270 314q-39 44 -39 71z" />
    <glyph glyph-name="guilsinglright" unicode="&#x203a;" horiz-adv-x="425" 
d="M391 573q0 -27 -39 -71l-270 -314q-14 -16 -28 -10q-13 6 -13 25v82q0 23 39 69l186 221l-186 222q-39 47 -39 71v82q0 18 14 24t27 -9l270 -314q39 -45 39 -71v-7z" />
    <glyph glyph-name="fraction" unicode="&#x2044;" horiz-adv-x="161" 
d="M-174 0q-18 0 -28 11q-9 11 -3 28l451 1235q14 39 49 39h41q16 0 25 -11t4 -28l-451 -1235q-14 -39 -47 -39h-41z" />
    <glyph glyph-name="zerosuperior" unicode="&#x2070;" horiz-adv-x="499" 
d="M309 1110q0 186 -7 252t-18 83t-35 17t-35 -17q-22 -34 -23 -224q-1 -189 5 -255t18 -83q11 -19 35 -19t35 19q25 41 25 227zM250 1565q92 1 136 -83t44 -318t-44 -318t-136 -84t-136 83t-44 319t44 319q44 82 136 82z" />
    <glyph glyph-name="foursuperior" unicode="&#x2074;" horiz-adv-x="458" 
d="M430 967q0 -23 -24 -23h-50v-151q0 -23 -22 -23h-70q-25 0 -24 23v151h-172q-23 0 -23 21v43l8 41l127 487q6 23 25 23h65q23 0 23 -23q0 -4 -10 -49l-119 -445h76v123q0 25 24 25h70q23 0 22 -25v-123h50q25 0 24 -22v-53z" />
    <glyph glyph-name="fivesuperior" unicode="&#x2075;" horiz-adv-x="468" 
d="M408 1022q0 -136 -40 -198t-132 -62t-130 49q-37 49 -36 154q0 33 30 32h56q29 0 24 -39q-6 -100 51 -100q31 0 45 34t14 132t-12 132q-13 34 -47 34q-51 0 -51 -64q0 -37 -22 -36h-45q-31 0 -31 28v416q0 25 24 25h271q23 0 22 -25v-55q0 -23 -22 -23h-176v-196
q23 23 67 22q74 0 107 -62t33 -198z" />
    <glyph glyph-name="sixsuperior" unicode="&#x2076;" horiz-adv-x="477" 
d="M305 1001q0 88 -14 117t-44 29t-45 -30q-16 -30 -16 -116q0 -85 16 -115t45 -30q30 0 44 28t14 117zM420 998q0 -236 -172 -236q-104 0 -142 82q-36 82 -36 303t33 319q34 98 149 99q80 0 119 -49t39 -164q0 -33 -31 -33h-53q-23 0 -23 37q4 111 -53 110q-43 0 -55 -56
t-13 -218q29 43 88 43q150 -1 150 -237z" />
    <glyph glyph-name="sevensuperior" unicode="&#x2077;" horiz-adv-x="413" 
d="M367 1489q0 -8 -7 -39l-174 -659q-6 -20 -24 -21h-72q-23 0 -22 23q0 10 8 47l170 616h-180q-23 0 -23 23v55q0 25 23 25h280q20 0 21 -23v-47z" />
    <glyph glyph-name="eightsuperior" unicode="&#x2078;" horiz-adv-x="483" 
d="M242 856q29 0 43 26t14 112q0 85 -13 111q-13 25 -44 25t-44 -26q-14 -26 -14 -110q0 -86 14 -112t44 -26zM242 1473q-27 0 -39 -25q-13 -24 -13 -102t12 -102t40 -24q27 0 39 26q12 24 12 100t-12 102t-39 25zM420 993q0 -231 -178 -231t-179 231q0 137 70 185
q-61 47 -61 168q0 219 169 219t169 -219q0 -119 -60 -168q70 -50 70 -185z" />
    <glyph glyph-name="ninesuperior" unicode="&#x2079;" horiz-adv-x="477" 
d="M291 1327q1 86 -15 116t-46 30t-44 -29t-14 -117t14 -117q14 -28 44 -28t46 30t15 115zM229 1565q103 0 141 -81q38 -80 38 -302t-34 -321t-149 -99q-80 0 -119 50t-38 165q0 31 30 31h54q25 0 22 -37q-6 -109 51 -109q45 0 57 56t13 217q-29 -43 -88 -43
q-150 0 -150 236t172 237z" />
    <glyph glyph-name="zeroinferior" unicode="&#x2080;" horiz-adv-x="499" 
d="M309 150q0 130 -7 196t-18 83t-35 17t-35 -17q-22 -34 -23 -223t5 -255t18 -84q11 -19 35 -19t35 18t18 86q7 67 7 198zM430 148q0 -234 -44 -318t-136 -84t-136 83t-44 320t44 319t136 81q92 0 136 -83q44 -84 44 -318z" />
    <glyph glyph-name="oneinferior" unicode="&#x2081;" horiz-adv-x="327" 
d="M236 -223q0 -23 -25 -23h-74q-23 0 -22 23v588h-43q-25 0 -25 22v35q0 25 25 24h8q63 0 63 64v8q0 25 23 25h45q25 0 25 -25v-741z" />
    <glyph glyph-name="twoinferior" unicode="&#x2082;" horiz-adv-x="452" 
d="M397 332q0 -78 -36 -158t-96 -173t-85 -144h185q25 0 24 -25v-55q0 -23 -24 -23h-289q-23 0 -23 23v41q0 43 84 180t114 205t30 137q-1 111 -61 111t-54 -111q2 -37 -23 -37h-59q-31 0 -31 33q0 115 41 164t127 49q176 0 176 -217z" />
    <glyph glyph-name="threeinferior" unicode="&#x2083;" horiz-adv-x="464" 
d="M403 -23q0 -231 -178 -231q-88 0 -128 50t-40 177q0 35 31 35h57q27 0 23 -41q-6 -121 55 -121q31 0 44 25t14 109t-13 110t-43 27h-32q-23 0 -23 22v37q0 25 23 25h32q25 -1 37 25t12 101t-13 99t-42 25q-55 0 -51 -107q0 -41 -23 -41h-57q-31 0 -31 33q0 117 40 165
t128 48q168 0 168 -219q0 -119 -59 -168q69 -48 69 -185z" />
    <glyph glyph-name="fourinferior" unicode="&#x2084;" horiz-adv-x="458" 
d="M205 543h65q23 0 23 -23q0 -4 -10 -49l-119 -444h76v123q0 25 24 24h70q23 0 22 -24v-123h50q25 0 24 -23v-53q0 -23 -24 -23h-50v-151q0 -23 -22 -23h-70q-25 0 -24 23v151h-172q-23 0 -23 21v43l8 41l127 487q6 23 25 23z" />
    <glyph glyph-name="fiveinferior" unicode="&#x2085;" horiz-adv-x="468" 
d="M408 6q0 -135 -40 -197q-40 -63 -132 -63t-130 49q-37 49 -36 154q0 33 30 33h56q29 0 24 -39q-6 -100 51 -101q31 0 45 34t14 132t-12 132q-13 34 -47 34q-51 0 -51 -63q0 -37 -22 -37h-45q-31 0 -31 28v416q0 25 24 25h271q23 0 22 -25v-55q0 -23 -22 -23h-176v-196
q23 23 67 22q74 0 107 -62t33 -198z" />
    <glyph glyph-name="sixinferior" unicode="&#x2086;" horiz-adv-x="477" 
d="M305 -14q0 88 -14 116t-44 29q-30 0 -45 -30q-16 -29 -16 -115t16 -116t45 -30q30 0 44 29t14 117zM270 219q150 -1 150 -237t-172 -236q-104 0 -142 82q-36 82 -36 303t33 320q34 98 149 98q80 0 119 -49t39 -164q0 -33 -31 -33h-53q-23 0 -23 37q4 111 -53 111
q-43 -1 -55 -57t-13 -218q29 43 88 43z" />
    <glyph glyph-name="seveninferior" unicode="&#x2087;" horiz-adv-x="413" 
d="M367 473q0 -8 -7 -39l-174 -659q-6 -20 -24 -21h-72q-23 0 -22 23q0 10 8 47l170 616h-180q-23 0 -23 23v55q0 25 23 25h280q20 0 21 -23v-47z" />
    <glyph glyph-name="eightinferior" unicode="&#x2088;" horiz-adv-x="483" 
d="M242 -160q29 0 43 26t14 112q0 85 -13 111t-44 26t-44 -26q-14 -26 -14 -111q0 -86 14 -112t44 -26zM242 457q-27 0 -39 -25q-13 -24 -13 -102t12 -102t40 -24q27 0 39 26q12 24 12 100t-12 102t-39 25zM420 -23q0 -231 -178 -231t-179 231q0 137 70 185q-61 47 -61 168
q0 219 169 219t169 -219q0 -119 -60 -168q70 -50 70 -185z" />
    <glyph glyph-name="nineinferior" unicode="&#x2089;" horiz-adv-x="477" 
d="M291 311q1 86 -15 116t-46 30t-44 -29t-14 -117q0 -89 14 -117t44 -28t46 30t15 115zM229 549q103 -1 141 -81t38 -302t-34 -320q-34 -100 -149 -100q-80 0 -119 50t-38 165q0 31 30 31h54q25 0 22 -37q-6 -109 51 -109q45 0 57 56t13 217q-29 -43 -88 -43
q-150 0 -150 236t172 237z" />
    <glyph glyph-name="Euro" unicode="&#x20ac;" horiz-adv-x="610" 
d="M231 707v-99h140q39 0 39 -39v-32q0 -39 -39 -39h-140q3 -217 23 -298t92 -81q109 0 96 213q-4 61 37 61h53q49 0 50 -49q0 -196 -60 -276t-176 -80q-143 0 -201 121q-57 121 -65 389h-19q-39 0 -38 39v32q0 39 38 39h17v99h-17q-39 0 -38 38v33q0 39 38 39h19
q10 268 66 388t200 120q117 0 176 -75t60 -259q0 -49 -50 -49h-53q-41 0 -37 62q12 190 -96 190q-70 0 -92 -81t-23 -296h140q39 0 39 -39v-33q0 -39 -39 -38h-140z" />
    <glyph glyph-name="trademark" unicode="&#x2122;" horiz-adv-x="817" 
d="M317 1227q0 -18 -18 -19h-82v-532q0 -20 -18 -21h-80q-20 0 -21 21v532h-80q-20 0 -20 19v65q0 20 20 21h281q18 0 18 -21v-65zM758 676q0 -20 -19 -21h-67q-20 0 -21 21v248q0 111 2 123t-3 12t-5 -12t-29 -123l-24 -99q-2 -16 -23 -16h-16q-20 0 -23 16l-24 99
q-29 106 -29 120t-5 15q-5 0 -3 -12t2 -123v-248q0 -20 -18 -21h-70q-18 0 -18 21v616q0 20 18 21h78q18 0 22 -19l43 -176q31 -131 31 -137t4 -6t4 11q1 11 15 64q14 54 16 68l43 176q4 18 23 19h77q18 0 19 -21v-616z" />
    <glyph glyph-name="Omega" unicode="&#x2126;" horiz-adv-x="782" 
d="M719 39q0 -39 -39 -39h-205q-39 0 -39 39v315q0 20 8 28t22 19q52 41 66 87q43 132 43 319q0 397 -184 397t-184 -397q0 -194 38 -304q21 -71 89 -116q12 -12 12 -33v-315q0 -39 -39 -39h-205q-39 0 -39 39v61q0 39 39 39h131v168q-79 69 -121 177t-42 325q0 516 322 516
t321 -516q0 -217 -42 -325t-122 -177v-168h131q39 0 39 -39v-61z" />
    <glyph glyph-name="onethird" unicode="&#x2153;" horiz-adv-x="909" 
d="M860 223q0 -231 -178 -231q-86 0 -127 50t-41 177q0 35 31 35h57q29 0 25 -41q-6 -121 51 -121q35 0 48 25t13 109t-14 110q-14 27 -43 26h-33q-23 0 -22 23v37q0 25 22 24h33q27 0 39 26t12 100t-13 100q-13 25 -42 24q-57 0 -51 -106q4 -41 -25 -41h-57q-31 0 -31 33
q0 116 41 164t127 49q168 0 168 -220q0 -119 -59 -167q69 -50 69 -185zM225 547q0 -23 -24 -23h-74q-25 0 -25 23v588h-43q-23 0 -22 22v35q0 25 22 25h11q61 0 61 63v8q0 25 25 25h45q25 0 24 -25v-741zM137 0q-18 0 -27 11t-4 28l451 1235q14 39 49 39h41q15 0 25 -11
t4 -28l-451 -1235q-14 -39 -47 -39h-41z" />
    <glyph glyph-name="twothirds" unicode="&#x2154;" horiz-adv-x="1052" 
d="M399 1102q1 -78 -35 -158t-96 -173t-86 -144h183q25 0 24 -25v-55q0 -23 -24 -23h-291q-23 0 -23 23v41q0 24 22 66t84 146t92 173q30 70 30 137q-1 111 -61 111t-54 -111q4 -37 -25 -37h-55q-31 0 -31 33q0 115 40 164t126 49q180 0 180 -217zM1004 223
q0 -231 -179 -231q-86 0 -127 50t-41 177q0 35 31 35h57q29 0 25 -41q-6 -121 51 -121q35 0 48 25t13 109t-14 110q-14 27 -43 26h-32q-23 0 -23 23v37q0 25 23 24h32q27 0 39 26t12 100t-12 100q-14 25 -43 24q-57 0 -51 -106q4 -41 -25 -41h-57q-31 0 -31 33q0 116 41 164
t127 49q168 0 168 -220q0 -119 -59 -167q70 -50 70 -185zM281 0q-18 0 -28 11q-9 11 -3 28l450 1235q14 39 50 39h41q16 0 25 -11t3 -28l-450 -1235q-14 -39 -47 -39h-41z" />
    <glyph glyph-name="oneeighth" unicode="&#x215b;" horiz-adv-x="911" 
d="M680 86q29 0 43 26t14 112q0 85 -13 111q-13 25 -44 25t-44 -26t-13 -110q0 -86 14 -112t43 -26zM680 702q-27 0 -39 -24t-12 -103q0 -77 12 -101t39 -24t39 26q12 24 12 100t-12 100q-12 26 -39 26zM858 223q0 -231 -178 -231t-178 231q0 137 69 185q-61 47 -61 167
q0 219 170 220q168 0 168 -220q0 -119 -60 -167q70 -50 70 -185zM225 547q0 -23 -24 -23h-74q-25 0 -25 23v588h-43q-23 0 -22 22v35q0 25 22 25h11q61 0 61 63v8q0 25 25 25h45q25 0 24 -25v-741zM137 0q-18 0 -27 11t-4 28l451 1235q14 39 49 39h41q15 0 25 -11t4 -28
l-451 -1235q-14 -39 -47 -39h-41z" />
    <glyph glyph-name="threeeighths" unicode="&#x215c;" horiz-adv-x="1044" 
d="M401 748q0 -231 -178 -232q-86 0 -127 50t-41 177q0 35 31 35h57q29 0 25 -41q-6 -121 51 -121q35 0 48 25t14 109q-1 84 -15 110t-43 27h-33q-23 0 -22 22v37q0 25 22 25h33q27 -1 39 25t12 101t-13 99t-42 25q-57 0 -51 -107q4 -41 -25 -41h-57q-31 0 -31 33
q0 117 41 165t127 48q168 0 168 -219q0 -119 -59 -168q69 -49 69 -184zM813 86q29 0 43 26t14 112q0 85 -13 111q-13 25 -44 25t-44 -26t-13 -110q0 -86 14 -112t43 -26zM813 702q-27 0 -39 -24t-12 -103q0 -77 12 -101t39 -24t39 26q12 24 12 100t-12 100q-12 26 -39 26z
M991 223q0 -231 -178 -231t-178 231q0 137 70 185q-61 47 -62 167q0 219 170 220q168 0 168 -220q0 -119 -59 -167q69 -50 69 -185zM270 0q-18 0 -27 11t-3 28l450 1235q14 39 49 39h41q16 0 26 -11t3 -28l-451 -1235q-14 -39 -47 -39h-41z" />
    <glyph glyph-name="fiveeighths" unicode="&#x215d;" horiz-adv-x="1034" 
d="M391 776q0 -135 -40 -197q-40 -63 -132 -63t-129 49t-37 154q0 33 31 33h55q29 0 25 -39q-6 -100 51 -101q31 0 45 34t14 132t-13 132t-46 34q-51 0 -51 -63q0 -37 -23 -37h-45q-31 0 -30 28v416q0 25 24 25h268q23 0 23 -25v-55q0 -23 -23 -23h-174v-196q23 23 68 22
q74 0 106 -62t33 -198zM803 86q29 0 43 26t14 112q0 85 -13 111q-13 25 -44 25t-44 -26t-13 -110q0 -86 14 -112t43 -26zM803 702q-27 0 -39 -24t-12 -103q0 -77 12 -101t39 -24t39 26q12 24 12 100t-12 100q-12 26 -39 26zM981 223q0 -231 -178 -231t-178 231q0 137 69 185
q-61 47 -61 167q0 219 170 220q168 0 168 -220q0 -119 -60 -167q70 -50 70 -185zM260 0q-18 0 -28 11q-9 11 -3 28l451 1235q14 39 49 39h41q16 0 26 -11t3 -28l-451 -1235q-14 -39 -47 -39h-41z" />
    <glyph glyph-name="seveneighths" unicode="&#x215e;" horiz-adv-x="890" 
d="M367 1243q0 -8 -7 -39l-174 -659q-6 -20 -24 -21h-72q-23 0 -22 23q0 10 8 47l170 616h-180q-23 0 -23 23v55q0 25 23 25h280q20 0 21 -23v-47zM659 86q29 0 43 26t15 112q1 85 -13 111q-14 25 -45 25t-44 -26t-13 -110q0 -86 14 -112t43 -26zM659 702q-27 0 -39 -24
t-12 -103q0 -77 12 -101t40 -24q26 0 38 26q12 24 12 100t-12 100q-12 26 -39 26zM838 223q0 -231 -178 -231t-179 231q0 137 70 185q-61 47 -62 167q0 219 170 220q168 0 168 -220q0 -119 -59 -167q70 -50 70 -185zM117 0q-18 0 -28 11q-9 11 -3 28l451 1235q14 39 49 39
h41q16 0 25 -11t3 -28l-450 -1235q-14 -39 -47 -39h-41z" />
    <glyph glyph-name="partialdiff" unicode="&#x2202;" horiz-adv-x="622" 
d="M271 111q56 0 95 55q38 55 52 217t-14 217t-84 55t-89 -54t-47 -218t8 -218t79 -54zM364 1325q126 0 181 -88t54 -258q-1 -169 -25 -451t-94 -411q-69 -129 -208 -129t-196 92t-39 303t87 303t185 92q43 0 82 -20t55 -60q27 266 8 382t-100 116q-70 0 -94 -49t-26 -127
q-1 -78 -48 -78h-49q-53 0 -47 55q16 182 82 255t192 73z" />
    <glyph glyph-name="Delta" unicode="&#x2206;" horiz-adv-x="684" 
d="M158 125h368l-184 895zM45 0q-33 0 -33 37q0 10 17 82l247 1157q8 37 46 37h40q37 0 46 -37l247 -1157q16 -72 17 -82q0 -37 -33 -37h-594z" />
    <glyph glyph-name="product" unicode="&#x220f;" horiz-adv-x="757" 
d="M729 1225q0 -39 -39 -39h-59v-1381q0 -39 -39 -38h-74q-39 0 -39 38v1381h-200v-1381q0 -39 -39 -38h-74q-39 0 -39 38v1381h-59q-39 0 -39 39v49q0 39 39 39h622q39 0 39 -39v-49z" />
    <glyph glyph-name="summation" unicode="&#x2211;" horiz-adv-x="598" 
d="M578 -195q0 -39 -39 -38h-473q-39 0 -39 38v76q0 14 20 56l293 616l-293 596q-14 29 -14 47v78q0 39 39 39h450q39 0 39 -39v-51q0 -39 -39 -39h-336l269 -547q20 -41 20 -68t-18 -67l-289 -606h371q39 0 39 -39v-52z" />
    <glyph glyph-name="minus" unicode="&#x2212;" 
d="M90 594q-39 0 -39 39v49q0 39 39 39h434q39 0 39 -39v-49q0 -39 -39 -39h-434z" />
    <glyph glyph-name="radical" unicode="&#x221a;" horiz-adv-x="716" 
d="M639 1466h49q16 0 24 -11t5 -28l-385 -1409q-10 -38 -62 -38t-61 38l-168 639q-10 39 31 39h69q39 0 47 -39l86 -467l316 1237q10 39 49 39z" />
    <glyph glyph-name="infinity" unicode="&#x221e;" horiz-adv-x="968" 
d="M260 764q-49 0 -83 -28t-34 -80t33 -78t84 -27q88 0 162 106q-76 107 -162 107zM709 764q-86 0 -166 -107q78 -106 166 -106q49 0 84 27q35 26 35 78t-35 80t-84 28zM700 879q112 0 176 -61t64 -160t-64 -160q-64 -62 -176 -62q-110 0 -215 119q-111 -119 -220 -119
t-173 62t-63 160q0 100 63 160t172 60t221 -120q104 121 215 121z" />
    <glyph glyph-name="integral" unicode="&#x222b;" horiz-adv-x="401" 
d="M-37 -457q-37 -1 -69 17t-31 47l4 51q4 33 33 33q12 0 29 -10q17 -11 48 -11q76 -1 84 142l99 1413q18 262 237 262q37 1 70 -17t31 -47l-4 -51q-4 -33 -33 -33q-11 1 -29 11t-49 10q-74 0 -84 -141l-98 -1414q-18 -262 -238 -262z" />
    <glyph glyph-name="approxequal" unicode="&#x2248;" 
d="M181 918q48 0 124 -35t121 -35t102 49q8 8 22 4t13 -20v-50q0 -39 -41 -75t-90 -35q-49 0 -125 35t-121 35t-102 -50q-8 -8 -21 -4q-12 4 -12 21v49q0 39 41 75t89 36zM181 594q48 0 124 -35t121 -35t102 49q8 8 22 5q13 -4 13 -21v-49q0 -39 -41 -75t-90 -36t-125 35
t-121 35t-102 -49q-8 -8 -21 -4q-12 4 -12 20v49q0 39 41 75t89 36z" />
    <glyph glyph-name="notequal" unicode="&#x2260;" 
d="M90 756q-39 0 -39 39v49q0 39 39 39h250l74 190q16 39 49 39h33q16 0 25 -12t3 -27l-73 -190h73q39 0 39 -39v-49q0 -39 -39 -39h-123l-77 -197h200q39 0 39 -39v-49q0 -39 -39 -39h-250l-73 -190q-16 -39 -49 -39h-33q-16 0 -26 11q-9 11 -3 28l74 190h-74q-39 0 -39 39
v49q0 39 39 39h123l78 197h-201z" />
    <glyph glyph-name="lessequal" unicode="&#x2264;" 
d="M51 657q0 45 43 76l430 311q16 10 28 3q11 -8 11 -27v-74q0 -25 -39 -53l-327 -236l327 -235q39 -29 39 -53v-74q0 -19 -11 -27t-28 2l-432 312q-41 30 -41 75zM90 0q-39 0 -39 39v49q0 39 39 39h434q39 0 39 -39v-49q0 -39 -39 -39h-434z" />
    <glyph glyph-name="greaterequal" unicode="&#x2265;" 
d="M524 0h-434q-39 0 -39 39v49q0 39 39 39h434q39 0 39 -39v-49q0 -39 -39 -39zM563 657q0 -45 -41 -75l-432 -312q-16 -10 -28 -2q-11 8 -11 27v74q0 25 39 53l328 235l-328 236q-39 29 -39 53v74q0 18 11 26t28 -2l430 -311q43 -31 43 -76z" />
    <glyph glyph-name="lozenge" unicode="&#x25ca;" horiz-adv-x="784" 
d="M616 688l-223 565l-223 -565l223 -565zM394 1417q58 0 75 -41l270 -649q16 -41 0 -78l-270 -649q-19 -41 -77 -41t-75 43l-270 647q-16 39 0 78l270 647q19 43 77 43z" />
    <glyph glyph-name="zero.oprp" horiz-adv-x="626" 
d="M313 111q39 0 59 19q20 20 36 112t16 270t-16 270t-36 112t-58 19q-40 0 -59 -19q-19 -20 -35 -112t-17 -270q0 -178 16 -270q15 -92 35 -112t59 -19zM313 -12q-127 0 -188 116t-62 408q-1 293 61 409q62 115 189 115t189 -115q61 -116 61 -409t-61 -409
q-62 -115 -189 -115z" />
    <glyph glyph-name="one.oprp" horiz-adv-x="393" 
d="M293 39q0 -39 -39 -39h-70q-39 0 -39 39v702h-86q-39 0 -39 39v45q0 39 39 39h19q96 0 96 107v14q0 39 39 39h41q39 0 39 -39v-946z" />
    <glyph glyph-name="two.oprp" horiz-adv-x="575" 
d="M487 131q39 0 39 -39v-53q0 -39 -39 -39h-421q-37 0 -37 37v49q0 78 74 159q44 48 93 93q48 45 93 96q106 120 104 271q-1 111 -29 157t-88 45q-117 0 -104 -186q4 -68 -41 -68h-49q-51 0 -51 56q0 180 61 254t191 73q258 0 258 -352q0 -90 -35 -170t-86 -135
q-52 -55 -104 -100t-92 -83t-46 -65h309z" />
    <glyph glyph-name="three.oprp" horiz-adv-x="593" 
d="M229 326q-39 0 -39 39v43q0 39 39 38h58q49 0 73 46t23 184q0 139 -27 185t-80 46q-111 0 -98 -186q4 -68 -41 -68h-49q-51 0 -51 56q0 182 59 255t187 72q248 0 247 -356q0 -213 -100 -289q115 -78 115 -317q0 -375 -262 -375q-129 0 -188 77q-58 77 -58 273q0 55 51 55
h49q45 0 41 -67q-10 -209 103 -209q61 0 89 45t27 201q0 156 -27 204q-28 48 -83 48h-58z" />
    <glyph glyph-name="four.oprp" horiz-adv-x="581" 
d="M309 131v234q0 39 39 38h66q39 0 39 -38v-234h79q39 0 39 -39v-53q0 -39 -39 -39h-79v-250q0 -39 -39 -39h-66q-39 0 -39 39v250h-264q-37 0 -37 37v49q0 10 12 66l209 837q10 35 41 35h64q37 0 37 -37q0 -20 -17 -82l-202 -774h157z" />
    <glyph glyph-name="five.oprp" horiz-adv-x="600" 
d="M311 440q-107 0 -105 -126q0 -58 -36 -58h-35q-49 0 -49 49v680q0 39 39 39h383q39 0 39 -39v-53q0 -39 -39 -39h-279v-369q35 39 107 39q117 0 169 -103q52 -104 52 -330t-57 -328q-56 -102 -192 -103q-136 0 -190 80t-55 248q0 55 52 55h49q45 0 41 -68q0 -34 -2 -76
q-1 -42 23 -77t79 -35t84 62t29 244t-26 244q-26 64 -81 64z" />
    <glyph glyph-name="six.oprp" horiz-adv-x="622" 
d="M329 111q56 0 84 54t27 218q0 164 -27 218q-28 54 -84 54t-89 -55t-33 -217t33 -217t89 -55zM573 997q0 -55 -51 -55h-47q-45 0 -41 68q12 186 -98 186q-84 0 -108 -105t-23 -393q20 40 61 60t84 20q117 0 177 -91q61 -91 61 -304t-66 -304t-192 -91q-152 0 -209 129
t-57 465t12 412q12 75 27 145t72 128q58 58 169 58t170 -74t59 -254z" />
    <glyph glyph-name="seven.oprp" horiz-adv-x="518" 
d="M164 -289h-68q-37 0 -37 37q0 20 17 82l276 1063h-303q-39 0 -39 39v53q0 39 39 39h414q37 0 37 -37v-49q0 -10 -13 -66l-282 -1126q-10 -35 -41 -35z" />
    <glyph glyph-name="eight.oprp" 
d="M49 362q0 240 115 318q-100 76 -101 289q0 356 244 356t244 -356q0 -213 -100 -289q115 -78 114 -318q0 -375 -258 -374q-258 0 -258 374zM307 111q55 0 83 48q28 47 28 203t-28 204t-83 48t-83 -48t-28 -204t28 -204t83 -47zM307 735q49 0 73 45q24 44 24 188t-24 189
t-73 45t-73 -45t-24 -188t24 -189q24 -45 73 -45z" />
    <glyph glyph-name="nine.oprp" horiz-adv-x="622" 
d="M294 913q-56 0 -84 -54t-28 -218t28 -218t84 -54t89 55t33 217t-33 217t-89 55zM287 -301q-119 0 -178 74t-60 254q0 55 51 55h47q45 0 41 -68q-12 -186 99 -186q84 0 107 105q24 105 24 393q-20 -40 -62 -60t-84 -20q-117 0 -177 91t-60 304t65 304q66 91 193 91
q152 0 209 -129t57 -469t-12 -411q-29 -174 -54 -211q-58 -88 -119 -106q-38 -11 -87 -11z" />
    <glyph glyph-name="zero.otab" 
d="M307 111q37 0 57 20q46 49 47 379t-47 383q-18 20 -56 20t-57 -20q-48 -51 -48 -381q0 -331 48 -381q19 -20 56 -20zM307 -12q-125 0 -184 114t-60 410q-1 295 59 410q60 114 185 114t185 -114q59 -115 59 -410t-59 -410q-60 -114 -185 -114z" />
    <glyph glyph-name="one.otab" 
d="M403 39q0 -39 -38 -39h-70q-39 0 -39 39v702h-86q-39 0 -39 39v45q0 39 39 39h18q96 0 97 107v14q0 39 39 39h41q39 0 38 -39v-946z" />
    <glyph glyph-name="two.otab" 
d="M506 131q39 0 39 -39v-53q0 -39 -39 -39h-422q-37 0 -37 37v49q0 79 75 159q44 48 92 93t93 96q105 119 105 271q0 111 -29 157t-88 45q-117 0 -105 -186q4 -68 -40 -68h-50q-51 0 -51 56q-1 180 61 254t191 73q258 0 258 -352q0 -90 -35 -170t-86 -135t-103 -100
t-92 -83t-46 -65h309z" />
    <glyph glyph-name="three.otab" 
d="M240 326q-39 0 -39 39v43q0 39 39 38h57q49 0 73 46t24 184q0 139 -27 185t-80 46q-111 0 -99 -186q4 -68 -41 -68h-49q-51 0 -51 56q0 182 59 255t187 72q248 0 248 -356q0 -213 -101 -289q115 -78 115 -317q0 -375 -262 -375q-129 0 -188 77q-58 77 -58 273q0 55 51 55
h49q45 0 41 -67q-10 -209 103 -209q61 0 89 45t28 201t-28 204t-83 48h-57z" />
    <glyph glyph-name="four.otab" 
d="M326 131v234q0 39 39 38h65q39 0 39 -38v-234h80q39 0 39 -39v-53q0 -39 -39 -39h-80v-250q0 -39 -39 -39h-65q-39 0 -39 39v250h-265q-37 0 -36 37v49q0 10 12 66l209 837q10 35 41 35h63q37 0 37 -37q0 -20 -16 -82l-203 -774h158z" />
    <glyph glyph-name="five.otab" 
d="M92 985q0 39 39 39h383q39 0 39 -39v-53q0 -39 -39 -39h-278v-369q35 39 106 39q117 0 169 -103q52 -104 52 -330t-57 -328q-56 -102 -192 -103q-136 0 -190 80t-54 248q0 55 51 55h49q45 0 41 -68q0 -34 -2 -76q-1 -42 23 -77t79 -35t84 62t29 244t-26 244
q-26 64 -81 64q-104 0 -104 -123q0 -61 -37 -61h-35q-49 0 -49 49v680z" />
    <glyph glyph-name="six.otab" 
d="M315 111q45 0 67 17q50 39 50 254t-50 256q-22 17 -56 17q-57 0 -88 -55t-31 -217t31 -217t77 -55zM565 997q0 -55 -51 -55h-47q-45 0 -41 68q12 186 -94 186q-82 0 -105 -105t-22 -393q41 80 149 80t167 -91t59 -304t-65 -304t-189 -91q-152 0 -207 128t-55 463t10 413
q26 176 52 215q25 38 53 67q49 51 161 51q111 0 168 -74t57 -254z" />
    <glyph glyph-name="seven.otab" 
d="M211 -289h-68q-37 0 -37 37q0 20 17 82l276 1063h-303q-39 0 -39 39v53q0 39 39 39h414q37 0 37 -37v-49q0 -10 -12 -66l-283 -1126q-10 -35 -41 -35z" />
    <glyph glyph-name="eight.otab" 
d="M49 362q0 240 115 318q-100 76 -101 289q0 356 244 356t244 -356q0 -213 -100 -289q115 -78 114 -318q0 -375 -258 -374q-258 0 -258 374zM307 111q55 0 83 48q28 47 28 203t-28 204t-83 48t-83 -48t-28 -204t28 -204t83 -47zM307 735q49 0 73 45q24 44 24 188t-24 189
t-73 45t-73 -45t-24 -188t24 -189q24 -45 73 -45z" />
    <glyph glyph-name="nine.otab" 
d="M300 913q-46 0 -68 -17q-48 -37 -49 -252t49 -258q22 -17 68 -17t77 55t31 217t-31 217t-77 55zM283 -301q-119 0 -177 74q-57 74 -57 254q0 55 51 55h47q45 0 41 -68q-12 -186 95 -186q82 0 104 105q23 105 23 393q-41 -80 -150 -80t-167 91t-58 304t64 304
q65 91 190 91q152 0 207 -128t55 -467t-11 -412q-25 -171 -51 -211q-59 -91 -108 -105t-98 -14z" />
    <glyph glyph-name="zero.ltab" 
d="M307 121q37 0 54 31q42 77 42 509q0 433 -42 501q-17 30 -54 30t-54 -30q-42 -74 -42 -507t42 -503q17 -31 54 -31zM307 -12q-88 0 -137 51q-107 111 -107 618t107 618q49 50 137 50t137 -50q107 -109 107 -616t-107 -620q-49 -51 -137 -51z" />
    <glyph glyph-name="one.ltab" 
d="M403 39q0 -39 -38 -39h-70q-39 0 -39 39v991h-86q-39 0 -39 39v45q0 39 39 39h18q96 0 97 107v14q0 39 39 39h41q39 0 38 -39v-1235z" />
    <glyph glyph-name="two.ltab" 
d="M506 131q39 0 39 -39v-53q0 -39 -39 -39h-422q-37 0 -37 37v49q-1 39 29 109q30 69 128 239t152 301q56 131 56 250t-29 165t-88 46q-117 0 -105 -186q4 -68 -40 -68h-50q-51 0 -51 55q-1 180 61 254t191 74q258 0 258 -352q0 -129 -63 -269q-62 -140 -160 -305
q-98 -164 -139 -268h309z" />
    <glyph glyph-name="three.ltab" 
d="M240 614q-39 0 -39 39v43q0 39 39 39h57q49 0 73 45q24 44 24 184t-27 186t-80 46q-111 0 -99 -186q4 -68 -41 -68h-49q-51 0 -51 55q0 182 59 255t187 73q248 0 248 -356q0 -213 -101 -289q115 -78 115 -318q0 -375 -262 -374q-129 0 -188 77q-58 77 -58 273q0 55 51 55
h49q45 0 41 -67q-10 -209 103 -209q61 0 89 45q28 44 28 200t-28 204t-83 48h-57z" />
    <glyph glyph-name="four.ltab" 
d="M326 420v233q0 39 39 39h65q39 0 39 -39v-233h80q39 0 39 -39v-53q0 -39 -39 -39h-80v-250q0 -39 -39 -39h-65q-39 0 -39 39v250h-265q-37 0 -36 37v49q0 10 12 65l209 838q10 35 41 35h63q37 0 37 -37q0 -20 -16 -82l-203 -774h158z" />
    <glyph glyph-name="five.ltab" 
d="M92 1274q0 39 39 39h383q39 0 39 -39v-53q0 -39 -39 -39h-278v-369q35 39 106 39q117 0 169 -103t52 -329t-57 -330q-56 -102 -192 -102t-190 80t-54 247q0 55 51 56h49q45 0 41 -68q0 -35 -2 -77q-1 -42 23 -76t79 -35q55 0 84 62q29 61 29 243t-26 246t-81 63
q-104 0 -104 -123q0 -61 -37 -61h-35q-49 0 -49 49v680z" />
    <glyph glyph-name="six.ltab" 
d="M315 111q45 0 67 17q50 39 50 254t-50 256q-22 17 -56 17q-57 0 -88 -55t-31 -217t31 -217t77 -55zM565 997q0 -55 -51 -55h-47q-45 0 -41 68q12 186 -94 186q-82 0 -105 -105t-22 -393q41 80 149 80t167 -91t59 -304t-65 -304t-189 -91q-152 0 -207 128t-55 463t10 413
q26 176 52 215q25 38 53 67q49 51 161 51q111 0 168 -74t57 -254z" />
    <glyph glyph-name="seven.ltab" 
d="M211 0h-68q-37 0 -37 37q0 20 17 82l276 1063h-303q-39 0 -39 39v53q0 39 39 39h414q37 0 37 -37v-49q0 -10 -12 -66l-283 -1126q-10 -35 -41 -35z" />
    <glyph glyph-name="eight.ltab" 
d="M49 362q0 240 115 318q-100 76 -101 289q0 356 244 356t244 -356q0 -213 -100 -289q115 -78 114 -318q0 -375 -258 -374q-258 0 -258 374zM307 111q55 0 83 48q28 47 28 203t-28 204t-83 48t-83 -48t-28 -204t28 -204t83 -47zM307 735q49 0 73 45q24 44 24 188t-24 189
t-73 45t-73 -45t-24 -188t24 -189q24 -45 73 -45z" />
    <glyph glyph-name="nine.ltab" 
d="M300 1202q-46 0 -68 -17q-48 -37 -49 -252t49 -258q22 -17 68 -17t77 54q31 56 31 218t-31 217t-77 55zM283 -12q-119 0 -177 73q-57 74 -57 254q0 55 51 56h47q45 0 41 -68q-12 -186 95 -186q82 0 104 105q23 105 23 392q-41 -80 -150 -80t-167 92q-58 91 -58 304
t64 304q65 91 190 91q152 0 207 -128t55 -467t-11 -412q-26 -172 -51 -212q-58 -89 -119 -107q-38 -11 -87 -11z" />
    <glyph glyph-name="zero.nfra" horiz-adv-x="499" 
d="M309 864q0 186 -7 252t-18 83t-35 17t-35 -16q-22 -35 -23 -224t5 -255t18 -84q11 -19 35 -19t35 19q25 40 25 227zM430 918q0 -234 -44 -318t-136 -84t-136 83t-44 320t44 319t136 81q92 0 136 -83q44 -84 44 -318z" />
    <glyph glyph-name="one.nfra" horiz-adv-x="327" 
d="M236 547q0 -23 -25 -23h-74q-23 0 -22 23v588h-43q-25 0 -25 22v35q0 25 25 25h8q63 0 63 63v8q0 25 23 25h45q25 0 25 -25v-741z" />
    <glyph glyph-name="two.nfra" horiz-adv-x="452" 
d="M397 1102q0 -78 -36 -158t-96 -173t-85 -144h185q25 0 24 -25v-55q0 -23 -24 -23h-289q-23 0 -23 23v41q0 45 84 181t114 204t30 137q-1 111 -61 111t-54 -111q2 -37 -23 -37h-59q-31 0 -31 33q0 115 41 164t127 49q176 0 176 -217z" />
    <glyph glyph-name="three.nfra" horiz-adv-x="464" 
d="M403 748q0 -231 -178 -232q-88 0 -128 50t-40 177q0 35 31 35h57q27 0 23 -41q-6 -121 55 -121q31 0 44 25t14 109t-13 110t-43 27h-32q-23 0 -23 22v37q0 25 23 25h32q25 -1 37 25t12 101t-13 99t-42 25q-55 0 -51 -107q0 -41 -23 -41h-57q-31 0 -31 33q0 117 40 165
t128 48q168 0 168 -219q0 -119 -59 -168q69 -47 69 -184z" />
    <glyph glyph-name="four.nfra" horiz-adv-x="458" 
d="M430 721q0 -23 -24 -23h-50v-151q0 -23 -22 -23h-70q-25 0 -24 23v151h-172q-23 0 -23 21v43l8 41l127 487q6 23 25 23h65q23 0 23 -23q0 -4 -10 -49l-119 -444h76v123q0 25 24 24h70q23 0 22 -24v-123h50q25 0 24 -23v-53z" />
    <glyph glyph-name="five.nfra" horiz-adv-x="468" 
d="M408 776q0 -135 -40 -197q-40 -63 -132 -63t-130 49q-37 49 -36 154q0 33 30 33h56q29 0 24 -39q-6 -100 51 -101q31 0 45 34t14 132t-12 132q-13 34 -47 34q-51 0 -51 -63q0 -37 -22 -37h-45q-31 0 -31 28v416q0 25 24 25h271q23 0 22 -25v-55q0 -23 -22 -23h-176v-196
q23 23 67 22q74 0 107 -62t33 -198z" />
    <glyph glyph-name="six.nfra" horiz-adv-x="477" 
d="M305 756q0 88 -14 116t-44 29q-30 0 -45 -30q-16 -29 -16 -115t16 -116t45 -30q30 0 44 29t14 117zM270 989q150 -1 150 -237t-172 -236q-104 0 -142 82q-36 82 -36 303t33 320q34 98 149 98q80 0 119 -49t39 -164q0 -33 -31 -33h-53q-23 0 -23 37q4 111 -53 111
q-43 -1 -55 -57t-13 -218q29 43 88 43z" />
    <glyph glyph-name="seven.nfra" horiz-adv-x="413" 
d="M367 1243q0 -8 -7 -39l-174 -659q-6 -20 -24 -21h-72q-23 0 -22 23q0 10 8 47l170 616h-180q-23 0 -23 23v55q0 25 23 25h280q20 0 21 -23v-47z" />
    <glyph glyph-name="eight.nfra" horiz-adv-x="483" 
d="M299 749q0 85 -13 111t-44 25q-31 0 -44 -26q-14 -27 -14 -111t14 -111t44 -27q29 0 43 27t14 112zM242 1227q-27 0 -39 -25q-13 -24 -13 -102t12 -102t40 -24q27 0 39 26q12 24 12 100t-12 102t-39 25zM420 748q0 -231 -178 -232q-178 0 -179 232q0 137 70 184
q-61 47 -61 168q0 219 169 219t169 -219q0 -119 -60 -168q70 -49 70 -184z" />
    <glyph glyph-name="nine.nfra" horiz-adv-x="477" 
d="M291 1081q1 86 -15 116t-46 30t-44 -29t-14 -117q0 -89 14 -117t44 -28t46 30t15 115zM229 1319q103 -1 141 -81t38 -302t-34 -320q-34 -100 -149 -100q-80 0 -119 50t-38 165q0 31 30 31h54q25 0 22 -37q-6 -109 51 -109q45 0 57 56t13 217q-29 -43 -88 -43
q-150 0 -150 236t172 237z" />
    <glyph glyph-name="zero.dfra" horiz-adv-x="499" 
d="M309 340q0 186 -7 252t-18 83t-35 17t-35 -17q-22 -34 -23 -224q-1 -189 5 -255t18 -83q11 -19 35 -19t35 19q25 41 25 227zM250 795q92 1 136 -83t44 -318t-44 -318t-136 -84t-136 83t-44 319t44 319q44 82 136 82z" />
    <glyph glyph-name="one.dfra" horiz-adv-x="327" 
d="M236 23q0 -23 -25 -23h-74q-23 0 -22 23v587h-43q-25 0 -25 23v35q0 25 25 24h8q63 0 63 64v8q0 25 23 24h45q25 0 25 -24v-741z" />
    <glyph glyph-name="two.dfra" horiz-adv-x="452" 
d="M397 578q0 -78 -36 -158t-96 -173t-85 -145h185q25 0 24 -24v-55q0 -23 -24 -23h-289q-23 0 -23 23v40q0 44 84 181t114 205t30 137q0 111 -62 110q-59 0 -53 -110q2 -37 -23 -37h-59q-31 0 -31 33q0 116 41 164t127 49q176 0 176 -217z" />
    <glyph glyph-name="three.dfra" horiz-adv-x="464" 
d="M403 223q0 -231 -178 -231q-88 0 -128 50t-40 177q0 35 31 35h57q27 0 23 -41q-6 -121 55 -121q31 0 44 25t13 109t-12 110q-14 27 -43 26h-32q-23 0 -23 23v37q0 25 23 24h32q25 0 37 26t12 100t-13 100q-13 25 -42 24q-55 0 -51 -106q0 -41 -23 -41h-57q-31 0 -31 33
q0 116 40 164t128 49q168 0 168 -220q0 -119 -59 -167q69 -48 69 -185z" />
    <glyph glyph-name="four.dfra" horiz-adv-x="458" 
d="M430 197q0 -23 -24 -23h-50v-151q0 -23 -22 -23h-70q-25 0 -24 23v151h-172q-23 0 -23 21v43l8 41l127 487q6 23 25 22h65q23 0 23 -22q0 -4 -10 -49l-119 -445h76v123q0 25 24 25h70q23 0 22 -25v-123h50q25 0 24 -22v-53z" />
    <glyph glyph-name="five.dfra" horiz-adv-x="468" 
d="M268 512q74 0 107 -62t33 -198t-40 -198t-132 -62t-130 49q-37 49 -36 154q0 33 30 32h56q29 0 24 -39q-6 -100 51 -100q31 0 45 34t14 132t-12 132q-13 34 -47 34q-51 0 -51 -64q0 -37 -22 -37h-45q-31 0 -31 29v416q0 25 24 24h271q23 0 22 -24v-55q0 -23 -22 -23h-176
v-197q23 23 67 23z" />
    <glyph glyph-name="six.dfra" horiz-adv-x="477" 
d="M305 231q0 88 -14 117t-44 29t-45 -30q-16 -30 -16 -116q0 -85 16 -115t45 -30q30 0 44 28t14 117zM420 228q0 -236 -172 -236q-104 0 -142 82q-36 82 -36 303t33 319q34 98 149 99q80 1 119 -49t39 -164q0 -33 -31 -33h-53q-23 0 -23 37q4 111 -53 110q-43 0 -55 -56
t-13 -218q29 43 88 43q150 -1 150 -237z" />
    <glyph glyph-name="seven.dfra" horiz-adv-x="413" 
d="M367 719q0 -8 -7 -39l-174 -660q-6 -20 -24 -20h-72q-23 0 -22 23q0 10 8 47l170 616h-180q-23 0 -23 23v55q0 25 23 24h280q20 0 21 -22v-47z" />
    <glyph glyph-name="eight.dfra" horiz-adv-x="483" 
d="M242 86q29 0 43 26t14 112q0 85 -13 111q-13 25 -44 25t-44 -26q-14 -26 -14 -110q0 -86 14 -112t44 -26zM242 702q-27 0 -39 -24q-13 -24 -13 -103q0 -77 12 -101t40 -24q27 0 39 26q12 24 12 100t-12 100q-12 26 -39 26zM420 223q0 -231 -178 -231t-179 231
q0 137 70 185q-61 47 -61 167q0 219 170 220q168 0 168 -220q0 -119 -60 -167q70 -50 70 -185z" />
    <glyph glyph-name="nine.dfra" horiz-adv-x="477" 
d="M291 557q1 86 -15 116q-16 29 -46 29t-44 -28t-14 -117q0 -88 14 -117q14 -28 44 -28t46 30t15 115zM229 795q103 0 141 -81q38 -80 38 -302t-34 -321t-149 -99q-80 0 -119 50t-38 165q0 31 30 31h54q25 0 22 -37q-6 -109 51 -109q45 0 58 56q12 56 12 217
q-29 -43 -88 -43q-150 0 -150 236t172 237z" />
    <glyph glyph-name="questiondown.caps" horiz-adv-x="565" 
d="M279 1120q-43 0 -73 30t-30 73t30 73t73 29q43 0 73 -30q30 -31 29 -73q1 -42 -29 -72t-73 -30zM174 332q0 -117 28 -161t92 -44t86 48t16 125t40 77h49q51 0 52 -55q1 -182 -59 -255t-187 -73q-256 0 -256 352q0 158 87 270t87 193v121q0 39 39 39h61q39 0 39 -39v-121
q0 -94 -50 -174q-4 -8 -24 -37t-24 -35q-76 -114 -76 -231z" />
    <glyph glyph-name="exclamdown.caps" horiz-adv-x="352" 
d="M176 1120q-43 0 -73 30t-29 73q0 43 30 73t72 29q43 0 73 -30q30 -31 30 -73t-30 -72t-73 -30zM100 39v506q0 57 15 196l20 191q4 39 35 39h12q31 0 35 -39l21 -191q14 -143 14 -196v-506q0 -39 -39 -39h-74q-39 0 -39 39z" />
    </font>
</defs>
</svg>
