<?xml version="1.0" standalone="no"?>
<!DOCTYPE svg PUBLIC "-//W3C//DTD SVG 1.1//EN" "http://www.w3.org/Graphics/SVG/1.1/DTD/svg11.dtd" >
<svg xmlns="http://www.w3.org/2000/svg">
<metadata>
Created by FontPrep 20130207 at Thu Mar  6 12:11:35 2014
 By Taylor Eke
Copyright (c) Emigre Inc, 2013. Designed by Zuzana Licko. All rights reserved.
</metadata>
<defs>
<font id="1bc6bbfc33a79b83b2006f84a7a7af8d" horiz-adv-x='1024' >
  <font-face 
    font-family="ProgramOT-Medium"
    font-weight="500"
    font-stretch="normal"
    units-per-em="2048"
    panose-1="2 0 6 6 3 0 0 2 0 4"
    ascent="1581"
    descent="-467"
    x-height="983"
    cap-height="1313"
    bbox="-252 -457.02 1825 1819"
    underline-thickness="61"
    underline-position="-154"
    unicode-range="U+0020-FB02"
  />
<missing-glyph horiz-adv-x="1024" 
 />
    <glyph glyph-name="fi" unicode="fi" horiz-adv-x="1083" 
d="M977 39q0 -39 -39 -39h-176q-39 0 -39 39v905q0 39 39 39h176q39 0 39 -39v-905zM850 1395q53 0 91 -38t38 -91t-38 -90t-91 -37t-91 38t-38 90t38 90t91 38zM391 983h168q39 0 39 -39v-90q0 -39 -39 -39h-168v-776q0 -39 -39 -39h-176q-39 0 -39 39v776h-88
q-39 0 -39 39v90q0 39 39 39h88v213q0 291 314 291q76 0 129 -17q33 -10 32 -45v-116q0 -31 -28 -31l-31 6q-47 10 -70 10q-92 0 -92 -102v-209z" />
    <glyph glyph-name="fl" unicode="fl" horiz-adv-x="1083" 
d="M977 39q0 -39 -39 -39h-176q-39 0 -39 39v1388q0 39 39 39h176q39 0 39 -39v-1388zM391 983h168q39 0 39 -39v-90q0 -39 -39 -39h-168v-776q0 -39 -39 -39h-176q-39 0 -39 39v776h-88q-39 0 -39 39v90q0 39 39 39h88v213q0 291 314 291q76 0 129 -17q33 -10 32 -45v-116
q0 -31 -28 -31l-31 6q-47 10 -70 10q-92 0 -92 -102v-209z" />
    <glyph glyph-name=".notdef" horiz-adv-x="1024" 
 />
    <glyph glyph-name=".null" horiz-adv-x="0" 
 />
    <glyph glyph-name="nonmarkingreturn" horiz-adv-x="681" 
 />
    <glyph glyph-name="space" unicode=" " horiz-adv-x="350" 
 />
    <glyph glyph-name="exclam" unicode="!" horiz-adv-x="501" 
d="M391 126q0 -58 -41 -99t-99 -41t-99 42t-41 99t41 98t100 41t99 -41t40 -99zM342 1313q39 0 39 -39v-443q0 -41 -21 -215l-22 -170q-6 -39 -35 -38h-104q-31 0 -35 38l-23 170q-20 170 -20 215v443q0 39 39 39h182z" />
    <glyph glyph-name="quotedbl" unicode="&#x22;" horiz-adv-x="665" 
d="M281 1217q0 -38 -23 -218l-25 -186q-6 -39 -34 -39h-58q-29 0 -35 39l-24 186q-23 180 -23 218t30 73t81 35t81 -35t30 -73zM496 1325q50 0 80 -35t30 -73t-22 -218l-25 -186q-6 -39 -35 -39h-57q-29 0 -35 39l-24 186q-23 180 -23 218t30 73t81 35z" />
    <glyph glyph-name="numbersign" unicode="#" horiz-adv-x="954" 
d="M907 1028q39 0 33 -39l-16 -84q-6 -39 -45 -39h-125l-39 -231h125q39 0 32 -39l-16 -84q-6 -39 -45 -39h-125l-43 -246q-6 -39 -45 -39h-78q-39 0 -33 39l43 246h-208l-43 -246q-6 -39 -46 -39h-77q-39 0 -33 39l43 246h-121q-39 0 -33 39l17 84q6 39 45 39h121l38 231
h-120q-39 0 -33 39l16 84q6 39 45 39h123l43 246q6 39 47 39h78q37 0 31 -39l-43 -246h209l43 246q6 39 47 39h78q37 0 30 -39l-43 -246h123zM598 866h-209l-39 -231h209z" />
    <glyph glyph-name="dollar" unicode="$" horiz-adv-x="952" 
d="M43 174v117q0 53 45 53q25 0 57 -22q162 -109 291 -109q80 0 134 39t54 122t-50 124q-52 41 -158 69q-352 92 -353 387q-1 166 99 259t256 110v109q0 39 39 38h49q39 0 39 -38v-109q145 -14 260 -78q59 -35 59 -92v-121q0 -51 -43 -51q-17 1 -37 13t-57 38t-57 38
q-69 38 -156 38q-174 0 -174 -154q0 -66 46 -104t138 -62q184 -49 280 -139t97 -264q0 -174 -100 -272t-256 -119v-113q0 -39 -39 -39h-49q-39 0 -39 39v109q-193 10 -314 86q-61 41 -61 98z" />
    <glyph glyph-name="percent" unicode="%" horiz-adv-x="1265" 
d="M420 1013q0 89 -24 131t-81 42t-81 -43t-23 -131q0 -174 104 -174q57 0 81 43t24 132zM45 1012q0 154 76 238q75 84 195 83t195 -83t75 -237t-75 -239t-195 -84t-196 84t-75 238zM1055 302q0 89 -24 131t-81 42t-81 -43t-23 -131q0 -174 104 -174q57 0 81 43t24 132z
M1221 302q0 -155 -75 -239q-75 -83 -195 -83q-119 0 -195 84t-76 237q0 154 76 238t196 84t194 -83q75 -83 75 -238zM297 0q-18 0 -27 11q-8 11 0 28l576 1235q18 39 51 39h72q18 0 26 -11t0 -28l-575 -1235q-18 -39 -51 -39h-72z" />
    <glyph glyph-name="ampersand" unicode="&#x26;" horiz-adv-x="1099" 
d="M499 170q92 0 160 55l-258 387q-51 -29 -86 -90t-34 -123q0 -105 63 -167t155 -62zM1104 37q0 -37 -37 -37h-168q-74 0 -129 72q-51 -43 -133 -69t-158 -26q-203 0 -317 117t-115 287q0 129 70 232t176 157q-100 152 -100 274t88 206q88 83 254 83t274 -65q57 -35 57 -86
v-78q0 -53 -41 -53q-14 0 -47 16q-115 57 -184 57q-127 0 -127 -118q0 -68 63 -162l287 -428q25 74 25 168v78q0 39 39 38h110q39 0 39 -38v-82q0 -195 -94 -340l82 -121q18 -29 52 -44t34 -38z" />
    <glyph glyph-name="quotesingle" unicode="'" horiz-adv-x="339" 
d="M281 1217q0 -38 -23 -218l-25 -186q-6 -39 -34 -39h-58q-29 0 -35 39l-24 186q-23 180 -23 218t30 73t81 35t81 -35t30 -73z" />
    <glyph glyph-name="parenleft" unicode="(" horiz-adv-x="638" 
d="M651 -342q0 -29 -33 -29h-104q-33 0 -68 47q-324 438 -324 914t324 913q35 47 68 47h104q33 0 33 -28q0 -14 -10 -31q-53 -82 -80 -123t-81 -144q-161 -307 -161 -598q0 -338 120 -586q60 -124 98 -188t104 -163q10 -14 10 -31z" />
    <glyph glyph-name="parenright" unicode=")" horiz-adv-x="638" 
d="M-12 1522q0 29 32 28h105q33 0 68 -47q323 -438 323 -913t-323 -914q-35 -47 -68 -47h-105q-33 0 -32 29q0 15 10 31q66 99 104 163q144 243 188 450q103 472 -131 922q-55 103 -113 192t-58 106z" />
    <glyph glyph-name="asterisk" unicode="*" horiz-adv-x="849" 
d="M336 1237q0 96 88 96t88 -96q0 -57 -33 -211l-8 -37l29 25q133 117 166 135q84 45 128 -30t-40 -124q-31 -18 -199 -75l-37 -13l37 -12q168 -57 199 -76q84 -49 40 -124t-128 -29q-33 18 -166 135l-29 24l8 -37q33 -154 33 -210q0 -96 -88 -97q-88 0 -88 97q0 57 33 210
l8 37l-29 -24q-147 -125 -166 -135q-84 -44 -127 30t39 123q31 18 199 76l37 12l-37 13q-168 57 -199 75q-82 49 -39 124t127 30q18 -10 166 -135l29 -25l-8 37q-33 154 -33 211z" />
    <glyph glyph-name="plus" unicode="+" horiz-adv-x="997" 
d="M938 606q0 -39 -39 -39h-311v-311q0 -39 -39 -39h-100q-39 0 -39 39v311h-314q-39 0 -39 39v103q0 39 39 39h314v311q0 39 39 39h100q39 0 39 -39v-311h311q39 0 39 -39v-103z" />
    <glyph glyph-name="comma" unicode="," horiz-adv-x="448" 
d="M365 104q0 -168 -154 -374q-23 -31 -43 -31h-68q-16 0 -22 11t4 32q88 158 98 260q-36 12 -62 50t-26 86t39 86t96 38t97 -44t41 -114z" />
    <glyph glyph-name="hyphen" unicode="-" horiz-adv-x="620" 
d="M551 516q0 -39 -39 -39h-403q-39 0 -39 39v119q0 39 39 39h403q39 0 39 -39v-119z" />
    <glyph glyph-name="period" unicode="." horiz-adv-x="448" 
d="M224 266q58 0 100 -41t41 -99q0 -58 -41 -99q-40 -41 -98 -41t-100 42t-42 99t41 98t99 41z" />
    <glyph glyph-name="slash" unicode="/" horiz-adv-x="720" 
d="M25 0q-18 0 -27 11q-8 11 0 28l575 1235q18 39 52 39h71q18 0 26 -11t1 -28l-576 -1235q-18 -39 -51 -39h-71z" />
    <glyph glyph-name="zero" unicode="0" horiz-adv-x="1026" 
d="M512 1110q-66 0 -106 -34q-90 -77 -89 -420q0 -343 90 -419q40 -34 105 -34q102 0 150 94q47 94 47 359t-47 360q-48 94 -150 94zM512 1333q457 0 457 -677t-457 -676q-457 0 -457 676t457 677z" />
    <glyph glyph-name="one" unicode="1" horiz-adv-x="518" 
d="M399 39q0 -39 -39 -39h-178q-39 0 -39 39v944h-82q-39 0 -38 39v92q0 39 38 39h19q119 0 119 107v14q0 39 39 39h122q39 0 39 -39v-1235z" />
    <glyph glyph-name="two" unicode="2" horiz-adv-x="882" 
d="M418 1333q178 0 296 -98t118 -284t-117 -335q-116 -148 -231 -256t-142 -135h449q39 0 38 -39v-147q0 -39 -38 -39h-725q-37 0 -37 37v94q0 49 36 101t143 165t132 140q111 119 164 207t53 182q0 96 -52 142t-141 46t-154 -40q-27 -15 -69 -46q-45 -29 -63 -29
q-45 0 -45 52v108q0 57 59 92q148 82 326 82z" />
    <glyph glyph-name="three" unicode="3" horiz-adv-x="909" 
d="M856 369q0 -189 -125 -289t-325 -100t-336 92q-55 37 -56 92v100q0 55 43 55q23 0 58 -24q147 -96 276 -96q201 0 201 192q0 88 -55 140t-156 53h-100q-39 0 -39 39v102q0 39 39 39h92q96 0 145 48t49 130q0 172 -182 172q-104 0 -179 -45q-56 -30 -73 -47
q-41 -25 -55 -25q-43 0 -43 54v108q0 57 59 92q143 82 335 82t297 -100t105 -272q0 -90 -43 -167t-118 -116q84 -41 135 -124t51 -185z" />
    <glyph glyph-name="four" unicode="4" horiz-adv-x="972" 
d="M649 795h78q39 0 39 -39v-252h129q39 0 39 -39v-137q0 -39 -39 -39h-129v-250q0 -39 -39 -39h-178q-39 0 -39 39v250h-451q-37 0 -36 37v94q0 35 20 88l358 770q16 35 48 35h186q37 0 37 -35t-25 -84l-340 -690h225l72 254q10 37 45 37z" />
    <glyph glyph-name="five" unicode="5" horiz-adv-x="929" 
d="M887 401q0 -206 -122 -314q-123 -107 -325 -107t-319 77q-51 35 -51 80v92q0 55 41 56q18 0 51 -17q145 -70 250 -69q219 0 219 215t-203 215q-90 0 -158 -54q-43 -33 -71 -32h-86q-39 0 -39 39v692q0 39 39 39h708q39 0 39 -39v-148q0 -39 -39 -39h-489v-294
q104 41 203 34q166 -10 259 -115t93 -311z" />
    <glyph glyph-name="six" unicode="6" horiz-adv-x="1026" 
d="M526 182q197 0 197 250t-191 250q-90 0 -148 -65t-58 -183t50 -184q50 -68 150 -68zM578 877q190 0 294 -112t103 -328q0 -216 -119 -337q-119 -120 -337 -120t-337 154t-119 437q0 495 235 670q123 92 283 92q159 0 277 -57q59 -27 60 -92v-92q0 -51 -44 -52
q-18 0 -27 4q-102 51 -145 61q-43 9 -98 9q-118 0 -194 -87t-86 -269q38 49 106 84t148 35z" />
    <glyph glyph-name="seven" unicode="7" horiz-adv-x="870" 
d="M825 1182q0 -45 -20 -99l-391 -1048q-12 -35 -47 -35h-195q-37 0 -37 37q0 25 23 82l381 968h-465q-39 0 -39 39v148q0 39 39 39h714q37 0 37 -37v-94z" />
    <glyph glyph-name="eight" unicode="8" 
d="M733 383q0 92 -55 144q-56 53 -156 53t-155 -52t-55 -145q0 -92 54 -144q56 -53 156 -53t156 52t55 145zM719 947q0 85 -52 134q-53 49 -145 49t-144 -49t-52 -134t52 -134t144 -49t145 49q52 49 52 134zM991 392q0 -196 -127 -305q-127 -107 -342 -107t-342 108
t-127 304t176 286q-151 88 -151 267t119 283t325 105q206 0 326 -104q119 -103 119 -283t-152 -268q176 -90 176 -286z" />
    <glyph glyph-name="nine" unicode="9" horiz-adv-x="1026" 
d="M700 878q0 118 -50 186t-148 66q-199 0 -199 -250t191 -249q90 1 148 65t58 182zM963 741q0 -495 -233 -669q-123 -92 -285 -92q-161 0 -275 57q-59 29 -59 92v92q0 51 43 51q16 0 26 -4t80 -36t175 -33q105 0 181 87t86 269q-38 -49 -106 -84t-147 -35q-190 0 -294 112
q-103 112 -103 328t118 336q119 120 337 121t337 -153t119 -439z" />
    <glyph glyph-name="colon" unicode=":" horiz-adv-x="448" 
d="M224 266q58 0 100 -41t41 -99q0 -58 -41 -99q-40 -41 -98 -41t-100 42t-42 99t41 98t99 41zM365 842q0 -60 -41 -100q-42 -40 -100 -40t-99 41t-41 99t42 100q42 41 99 41t99 -41t41 -100z" />
    <glyph glyph-name="semicolon" unicode=";" horiz-adv-x="448" 
d="M365 842q0 -60 -41 -100q-42 -40 -100 -40t-99 41t-41 99t42 100q42 41 99 41t99 -41t41 -100zM365 104q0 -168 -154 -374q-23 -31 -43 -31h-68q-16 0 -22 11t4 32q88 158 98 260q-36 12 -62 50t-26 86t39 86t96 38t97 -44t41 -114z" />
    <glyph glyph-name="less" unicode="&#x3c;" horiz-adv-x="714" 
d="M641 227q0 -18 -11 -25t-28 5l-514 373q-41 32 -41 76t43 75l512 373q16 12 28 5t11 -26v-129q0 -31 -39 -59l-332 -240l332 -239q39 -29 39 -60v-129z" />
    <glyph glyph-name="equal" unicode="=" horiz-adv-x="788" 
d="M727 428q0 -39 -39 -39h-588q-39 0 -39 39v102q0 39 39 39h588q39 0 39 -39v-102zM727 784q0 -39 -39 -39h-588q-39 0 -39 39v103q0 39 39 39h588q39 0 39 -39v-103z" />
    <glyph glyph-name="greater" unicode="&#x3e;" horiz-adv-x="714" 
d="M668 655q0 -45 -41 -75l-514 -373q-16 -12 -28 -5q-11 7 -11 25v129q0 31 39 60l331 239l-331 240q-39 29 -39 59v129q0 17 11 25t28 -4l512 -373q43 -31 43 -76z" />
    <glyph glyph-name="question" unicode="?" horiz-adv-x="876" 
d="M553 127q0 -57 -41 -99t-99 -42t-100 41q-41 41 -41 99t40 99t100 41t100 -41q41 -41 41 -98zM420 1333q184 0 296 -83t113 -259q0 -176 -147 -295q-14 -12 -44 -34q-88 -66 -102 -109q-7 -20 -8 -45v-84q0 -39 -39 -39h-155q-39 0 -39 39v88q0 43 9 65q9 23 13 34
q3 11 17 29t18 26t23 27q18 19 21 23t30 29q129 118 129 211q0 158 -180 158q-115 0 -216 -74q-62 -41 -83 -41q-43 0 -43 52v108q0 57 59 92q144 82 328 82z" />
    <glyph glyph-name="at" unicode="@" horiz-adv-x="1476" 
d="M792 844q-58 0 -108 -71t-70 -200q-43 -260 76 -260q113 0 150 222l45 274q-35 35 -93 35zM1247 123q19 0 19 -48t-37 -75q-213 -152 -493 -152t-479 199q-198 199 -198 511q1 312 219 544q218 231 537 231q260 0 428 -165t168 -431q0 -219 -129 -394t-267 -175t-173 96
q-72 -106 -199 -106t-191 118t-33 306q32 186 138 299t246 112q74 0 149 -51q74 23 107 -1t22 -77l-80 -467q-9 -63 3 -90t49 -26q81 0 157 139t76 311q0 217 -130 344t-320 127q-250 0 -424 -194t-174 -459q0 -266 152 -424t390 -158q236 0 449 150q10 6 18 6z" />
    <glyph glyph-name="A" unicode="A" horiz-adv-x="1101" 
d="M563 932q0 24 -12 24t-12 -24t-56 -197l-86 -254h308l-87 254q-55 173 -55 197zM1100 37q0 -37 -37 -37h-168q-33 0 -47 35l-84 248h-426l-84 -248q-12 -35 -47 -35h-168q-37 0 -37 37q0 14 23 82l401 1157q14 37 43 37h164q29 0 43 -37l401 -1157q23 -68 23 -82z" />
    <glyph glyph-name="B" unicode="B" horiz-adv-x="1069" 
d="M764 395q0 197 -229 197h-156v-397h158q115 0 171 47t56 153zM709 958q0 160 -213 160h-117v-336h137q193 0 193 176zM1022 375q0 -171 -114 -273t-314 -102h-434q-39 0 -39 39v1235q0 39 39 39h407q189 0 291 -90t103 -244q0 -193 -170 -277q231 -98 231 -327z" />
    <glyph glyph-name="C" unicode="C" horiz-adv-x="1028" 
d="M987 119q0 -33 -51 -70q-100 -70 -311 -69q-258 0 -417 160t-159 515q0 354 159 516t417 162q207 0 311 -69q51 -35 51 -70v-137q0 -39 -35 -39q-18 0 -45 16q-119 74 -254 74q-340 0 -340 -453q0 -229 89 -340q90 -111 238 -111t267 75q27 16 45 16q35 0 35 -39v-137z
" />
    <glyph glyph-name="D" unicode="D" horiz-adv-x="1181" 
d="M870 659q0 231 -83 331t-236 102h-172v-871h172q319 0 319 438zM569 0h-409q-39 0 -39 39v1235q0 39 39 39h409q239 0 400 -148t161 -499q0 -350 -156 -508t-405 -158z" />
    <glyph glyph-name="E" unicode="E" horiz-adv-x="923" 
d="M877 39q0 -39 -39 -39h-678q-39 0 -39 39v1235q0 39 39 39h661q39 0 39 -39v-148q0 -39 -39 -39h-442v-284h346q39 0 39 -39v-148q0 -39 -39 -38h-346v-353h459q39 0 39 -39v-147z" />
    <glyph glyph-name="F" unicode="F" horiz-adv-x="876" 
d="M860 1126q0 -39 -39 -39h-442v-284h366q39 0 39 -39v-148q0 -39 -39 -38h-366v-539q0 -39 -39 -39h-180q-39 0 -39 39v1235q0 39 39 39h661q39 0 39 -39v-148z" />
    <glyph glyph-name="G" unicode="G" horiz-adv-x="1134" 
d="M1055 123q0 -59 -115 -101t-295 -42q-274 0 -435 160t-161 520q0 361 168 517t438 156q213 0 330 -69q51 -31 51 -70v-137q0 -39 -37 -39q-15 0 -59 22q-45 22 -52 26q-6 3 -26 12q-20 10 -30 12t-30 7q-42 11 -124 11q-365 0 -365 -452t340 -451q78 1 122 23t44 55v190
h-135q-39 0 -39 39v145q0 39 39 39h332q39 0 39 -39v-534z" />
    <glyph glyph-name="H" unicode="H" horiz-adv-x="1224" 
d="M1104 39q0 -39 -39 -39h-180q-39 0 -39 39v539h-467v-539q0 -39 -39 -39h-180q-39 0 -39 39v1235q0 39 39 39h180q39 0 39 -39v-471h467v471q0 39 39 39h180q39 0 39 -39v-1235z" />
    <glyph glyph-name="I" unicode="I" horiz-adv-x="499" 
d="M379 39q0 -39 -39 -39h-180q-39 0 -39 39v1235q0 39 39 39h180q39 0 39 -39v-1235z" />
    <glyph glyph-name="J" unicode="J" horiz-adv-x="567" 
d="M446 289q0 -309 -278 -309q-76 0 -124 24t-48 55v134q0 33 31 32q11 0 35 -11t55 -11q70 0 69 106v965q0 39 39 39h183q39 0 38 -39v-985z" />
    <glyph glyph-name="K" unicode="K" horiz-adv-x="1116" 
d="M1126 37q0 -37 -36 -37h-195q-39 0 -67 22t-64 78l-289 445q-23 35 -43 48t-53 13v-567q0 -39 -39 -39h-180q-39 0 -39 39v1235q0 39 39 39h182q37 0 37 -37v-512q66 0 108 59l285 389q47 64 71 82t60 19h176q37 0 37 -37q0 -23 -23 -33t-53 -49l-299 -393
q-41 -53 -69 -77t-60 -30q33 -6 56 -28t65 -84l318 -463q25 -37 50 -48t25 -34z" />
    <glyph glyph-name="L" unicode="L" horiz-adv-x="872" 
d="M860 39q0 -39 -39 -39h-661q-39 0 -39 39v1235q0 39 39 39h180q39 0 39 -39v-1049h442q39 0 39 -39v-147z" />
    <glyph glyph-name="M" unicode="M" horiz-adv-x="1396" 
d="M666 305q-27 0 -43 35l-193 385q-41 87 -49 121t-14 35q-9 0 -5 -31t5 -125v-686q0 -39 -39 -39h-168q-39 0 -39 39v1235q0 39 39 39h178q27 0 41 -31l258 -530q53 -109 53 -126t8 -18q8 0 8 19t54 125l258 530q14 31 41 31h178q39 0 39 -39v-1235q0 -39 -39 -39h-168
q-39 0 -39 39v686q0 95 4 125t-4 31q-6 0 -14 -37t-49 -119l-193 -385q-16 -35 -43 -35h-65z" />
    <glyph glyph-name="N" unicode="N" horiz-adv-x="1193" 
d="M354 686v-647q0 -39 -39 -39h-155q-39 0 -39 39v1235q0 39 39 39h157q27 0 43 -31l371 -635q80 -141 89 -169q10 -28 18 -29t5 37t-3 141v647q0 39 39 39h155q39 0 39 -39v-1235q0 -39 -39 -39h-157q-25 0 -43 31l-371 635q-78 134 -88 166q-11 32 -19 32t-5 -38t3 -140z
" />
    <glyph glyph-name="O" unicode="O" horiz-adv-x="1261" 
d="M631 1098q-147 0 -233 -106t-85 -336q0 -230 85 -335q84 -105 232 -105t233 104q85 106 85 336t-85 336t-232 106zM631 1333q254 0 418 -168q163 -168 163 -509t-164 -509q-164 -167 -417 -167q-254 0 -418 168t-164 508q0 341 164 509t418 168z" />
    <glyph glyph-name="P" unicode="P" horiz-adv-x="1021" 
d="M729 893q0 109 -51 162t-168 53h-131v-430h135q215 0 215 215zM573 1313q199 -1 307 -107t109 -308t-111 -314t-300 -111h-199v-434q0 -39 -39 -39h-180q-39 0 -39 39v1235q0 39 39 39h413z" />
    <glyph glyph-name="Q" unicode="Q" horiz-adv-x="1261" 
d="M631 1098q-147 0 -233 -106t-85 -336q0 -230 85 -335q84 -105 232 -105t233 104q85 106 85 336t-85 336t-232 106zM1350 -315q0 -45 -50 -76q-78 -47 -182 -47t-179 36t-122 90t-85 111t-81 111t-90 76q-231 20 -372 187q-140 167 -140 495t164 497q164 168 418 168
t418 -168t163 -508q0 -279 -112 -443t-297 -212q27 -16 129 -110t189 -93q87 0 163 56q14 12 33 12q33 0 33 -35v-147z" />
    <glyph glyph-name="R" unicode="R" horiz-adv-x="1114" 
d="M524 713q116 0 172 46t56 151q0 106 -54 152t-168 46h-151v-395h145zM1114 37q0 -37 -37 -37h-194q-47 0 -77 27t-71 102l-190 340q-23 41 -58 41h-108v-471q0 -39 -39 -39h-180q-39 0 -39 39v1235q0 39 39 39h454q184 0 290 -109t108 -289q0 -133 -69 -238t-198 -138
q51 -23 117 -133l172 -287q18 -31 49 -45t31 -37z" />
    <glyph glyph-name="S" unicode="S" horiz-adv-x="976" 
d="M915 374q0 -186 -127 -290q-128 -104 -330 -104t-339 90q-61 41 -62 98v117q0 53 45 53q25 0 58 -23q154 -102 291 -102q80 0 134 39t54 122t-51 124t-158 69q-352 92 -352 387q0 182 120 280t296 99q176 0 325 -82q59 -35 60 -92v-121q0 -51 -43 -51q-24 1 -42 13
t-44 31t-42 29q-77 48 -180 48q-174 0 -174 -154q0 -66 46 -104t139 -62q184 -49 280 -139t96 -275z" />
    <glyph glyph-name="T" unicode="T" horiz-adv-x="968" 
d="M956 1126q0 -39 -38 -39h-304v-1048q0 -39 -39 -39h-182q-39 0 -39 39v1048h-303q-39 0 -39 39v148q0 39 39 39h867q39 0 38 -39v-148z" />
    <glyph glyph-name="U" unicode="U" horiz-adv-x="1177" 
d="M1069 512q0 -274 -128 -403t-352 -129t-352 128t-128 404v762q0 39 38 39h181q39 0 39 -39v-785q0 -270 225 -270q109 0 165 70t56 200v785q0 39 39 39h178q39 0 39 -39v-762z" />
    <glyph glyph-name="V" unicode="V" horiz-adv-x="1093" 
d="M1092 1276q0 -14 -23 -82l-395 -1157q-14 -37 -43 -37h-168q-29 0 -43 37l-395 1157q-23 68 -23 82q0 37 37 37h176q35 0 47 -35l223 -684q49 -154 49 -174t13 -21q12 1 12 21t49 174l223 684q12 35 48 35h176q37 0 37 -37z" />
    <glyph glyph-name="W" unicode="W" horiz-adv-x="1527" 
d="M1487 1276q0 -18 -14 -80l-273 -1159q-8 -37 -41 -37h-174q-31 0 -41 37l-133 518q-39 152 -39 184q0 31 -8 31t-8 -32t-39 -183l-133 -518q-10 -37 -41 -37h-174q-33 0 -41 37l-273 1159q-14 61 -14 80q0 37 35 37h174q39 0 47 -35l154 -703q29 -127 29 -159t7 -33
q9 0 9 35t32 157l136 519q8 35 47 34h106q39 0 47 -34l135 -519q33 -123 33 -157t8 -35q8 0 8 33t29 159l154 703q8 35 47 35h174q35 0 35 -37z" />
    <glyph glyph-name="X" unicode="X" horiz-adv-x="1069" 
d="M1053 39q0 -39 -39 -39h-185q-39 0 -59 43l-141 274q-82 160 -82 180t-12 19q-13 0 -13 -19t-82 -180l-141 -274q-20 -43 -59 -43h-185q-39 0 -39 39q0 23 27 67l319 568l-309 532q-27 45 -26 68q0 39 39 39h184q37 0 59 -43l131 -246q82 -154 82 -176t12 -21
q12 -1 13 21q0 22 82 176l131 246q14 27 25 35t34 8h185q39 0 38 -39q0 -23 -26 -68l-309 -532l319 -568q27 -44 27 -67z" />
    <glyph glyph-name="Y" unicode="Y" horiz-adv-x="1032" 
d="M1001 1313q39 -1 39 -41q0 -20 -28 -72l-367 -715v-446q0 -39 -39 -39h-180q-39 0 -39 39v446l-367 715q-28 52 -28 72q1 40 39 41h170q37 0 55 -35l174 -356q74 -152 74 -172t12 -21q12 0 12 23t74 170l174 356q18 35 55 35h170z" />
    <glyph glyph-name="Z" unicode="Z" horiz-adv-x="929" 
d="M891 39q0 -39 -39 -39h-772q-37 0 -37 37v94q0 45 25 88l489 868h-467q-39 0 -39 39v148q0 39 39 39h744q37 0 36 -37v-94q0 -45 -24 -88l-490 -869h496q39 0 39 -39v-147z" />
    <glyph glyph-name="bracketleft" unicode="[" horiz-adv-x="524" 
d="M338 -205h149q39 0 39 -39v-88q0 -39 -39 -39h-299q-39 0 -38 39v1843q0 39 38 39h299q39 0 39 -39v-88q0 -39 -39 -39h-149v-1589z" />
    <glyph glyph-name="backslash" unicode="\" horiz-adv-x="720" 
d="M694 0h-71q-33 0 -52 39l-575 1235q-8 16 0 28t27 11h71q33 0 51 -39l576 -1235q8 -15 0 -27t-27 -12z" />
    <glyph glyph-name="bracketright" unicode="]" horiz-adv-x="524" 
d="M186 -205v1589h-149q-39 0 -39 39v88q0 39 39 39h299q39 0 39 -39v-1843q0 -39 -39 -39h-299q-39 0 -39 39v88q0 39 39 39h149z" />
    <glyph glyph-name="asciicircum" unicode="^" horiz-adv-x="804" 
d="M643 739q-31 0 -53 39l-187 318l-186 -318q-23 -39 -53 -39h-123q-19 -1 -27 11t2 28l312 512q26 43 76 43t75 -41l312 -514q10 -16 2 -27t-27 -12h-123z" />
    <glyph glyph-name="underscore" unicode="_" horiz-adv-x="956" 
d="M999 -80q0 -39 -38 -39h-965q-39 0 -39 39v41q0 39 39 39h965q39 0 38 -39v-41z" />
    <glyph glyph-name="grave" unicode="`" horiz-adv-x="819" 
d="M487 1081q-33 0 -71 39l-217 215q-16 16 -11 29q6 12 25 12h139q37 0 72 -39l194 -215q14 -18 8 -29t-26 -12h-113z" />
    <glyph glyph-name="a" unicode="a" horiz-adv-x="972" 
d="M388 -12q-154 0 -244 72q-89 72 -89 222q-1 150 103 238t293 88q90 0 182 -18v18q0 113 -26 156q-27 43 -137 43t-255 -62q-41 -18 -63 -18q-35 0 -35 43v90q0 51 65 82q127 62 336 62t286 -83t77 -262v-471q0 -66 45 -65v-25q0 -111 -148 -110q-125 0 -145 100
q-91 -100 -245 -100zM504 473q-201 0 -201 -168q0 -154 160 -153q104 -1 170 73v232q-66 16 -129 16z" />
    <glyph glyph-name="b" unicode="b" horiz-adv-x="1087" 
d="M778 492q0 297 -209 296q-133 0 -209 -112v-369q76 -113 209 -112q209 0 209 297zM246 0h-101q-39 0 -39 39v1388q0 39 39 39h177q39 0 38 -39v-550q90 121 272 121t292 -132q108 -130 108 -374t-108 -375t-292 -131t-274 118q0 -44 -30 -74t-82 -30z" />
    <glyph glyph-name="c" unicode="c" horiz-adv-x="915" 
d="M858 127q0 -47 -51 -80q-109 -68 -277 -67q-223 0 -349 135t-126 377t126 376t349 136q174 0 277 -68q51 -35 51 -80v-90q0 -49 -35 -49q-14 0 -47 16q-106 55 -219 55t-181 -72t-67 -224q0 -152 68 -225q69 -73 181 -73t218 56q33 16 47 16q35 0 35 -49v-90z" />
    <glyph glyph-name="d" unicode="d" horiz-adv-x="1087" 
d="M55 492q0 244 109 374t291 131q182 0 272 -120v550q0 39 39 39h176q39 0 39 -39v-1239q0 -66 45 -65v-25q0 -111 -142 -111t-153 113q-94 -114 -276 -114t-291 131t-109 375zM309 492q0 -296 211 -297q131 -1 207 112v369q-76 113 -207 112q-211 0 -211 -296z" />
    <glyph glyph-name="e" unicode="e" horiz-adv-x="976" 
d="M688 651q0 84 -48 130t-135 46q-172 0 -194 -237h373q4 45 4 61zM915 596q0 -90 -12 -147h-596q0 -268 291 -269q98 0 176 35t96 35q35 0 35 -45v-45q0 -63 -33 -86q-139 -94 -359 -94t-339 139t-119 371t120 373q119 141 323 141t310 -102t107 -306z" />
    <glyph glyph-name="f" unicode="f" horiz-adv-x="616" 
d="M391 983h168q39 0 39 -39v-90q0 -39 -39 -39h-168v-776q0 -39 -39 -39h-176q-39 0 -39 39v776h-88q-39 0 -39 39v90q0 39 39 39h88v213q0 291 314 291q76 0 129 -17q33 -10 32 -45v-116q0 -31 -28 -31l-31 6q-47 10 -70 10q-92 0 -92 -102v-209z" />
    <glyph glyph-name="g" unicode="g" horiz-adv-x="919" 
d="M602 655q0 87 -41 135t-119 48t-120 -48t-41 -134q0 -86 42 -135q41 -48 119 -48t119 48t41 134zM668 -145q0 125 -212 125t-212 -125t212 -125t212 125zM932 905q0 -33 -31 -33q-16 0 -59 25t-103 0q103 -92 103 -252t-113 -249t-287 -89q-18 0 -67 6q-47 -18 -47 -74
t45 -75q61 6 84 6q219 0 335 -84t116 -231t-116 -230q-116 -82 -336 -82t-336 82t-116 230q0 178 158 256q-47 47 -47 132t61 136q-135 88 -135 267t114 268t287 90q76 0 146 -25q86 121 225 121q45 0 82 -20t37 -54v-121z" />
    <glyph glyph-name="h" unicode="h" horiz-adv-x="1056" 
d="M958 39q0 -39 -38 -39h-177q-39 0 -38 39v596q0 131 -127 131q-106 0 -189 -37l-29 -12v-678q0 -39 -38 -39h-177q-39 0 -39 39v1388q0 39 39 39h177q39 0 38 -39v-565q41 49 121 91t189 42q289 0 288 -321v-635z" />
    <glyph glyph-name="i" unicode="i" horiz-adv-x="466" 
d="M233 1135q-53 0 -92 39t-39 92t39 92t92 39t93 -39t39 -92q1 -53 -39 -92t-93 -39zM360 39q0 -39 -38 -39h-177q-39 0 -39 39v905q0 39 39 39h177q39 0 38 -39v-905z" />
    <glyph glyph-name="j" unicode="j" horiz-adv-x="466" 
d="M233 1135q-53 0 -92 39t-39 92t39 92t92 39t93 -39t39 -92q1 -53 -39 -92t-93 -39zM360 -145q0 -309 -274 -310q-76 0 -123 23t-47 57v101q0 33 31 32q7 0 37 -12t59 -12q63 0 63 108v1102q0 39 39 39h177q39 0 38 -39v-1089z" />
    <glyph glyph-name="k" unicode="k" horiz-adv-x="1011" 
d="M1010 37q0 -37 -37 -37h-180q-72 0 -111 57l-229 334q-21 33 -39 43t-54 10v-405q0 -39 -38 -39h-177q-39 0 -39 39v1388q0 39 39 39h177q39 0 38 -36v-834q66 0 105 49l225 279q49 59 111 59h162q37 0 36 -37q0 -23 -22 -33t-55 -49l-242 -289q-33 -41 -64 -47
q27 -8 62 -51l254 -358q26 -35 52 -47t26 -35z" />
    <glyph glyph-name="l" unicode="l" horiz-adv-x="466" 
d="M360 39q0 -39 -38 -39h-177q-39 0 -39 39v1388q0 39 39 39h177q39 0 38 -39v-1388z" />
    <glyph glyph-name="m" unicode="m" horiz-adv-x="1601" 
d="M1231 995q272 0 272 -317v-639q0 -39 -39 -39h-176q-39 0 -39 39v602q0 125 -116 125q-85 0 -170 -37l-31 -12v-678q0 -39 -39 -39h-176q-39 0 -39 39v602q0 125 -119 125q-80 0 -168 -37l-31 -12v-678q0 -39 -38 -39h-177q-39 0 -39 39v905q0 39 39 39h101q52 -1 82 -31
t30 -71q152 115 301 114q176 0 236 -129q49 49 142 89t194 40z" />
    <glyph glyph-name="n" unicode="n" horiz-adv-x="1056" 
d="M958 39q0 -39 -38 -39h-177q-39 0 -38 39v596q0 131 -127 131q-106 0 -189 -37l-29 -12v-678q0 -39 -38 -39h-177q-39 0 -39 39v905q0 39 39 39h101q52 -1 82 -31t30 -71q141 115 312 114q289 0 288 -321v-635z" />
    <glyph glyph-name="o" unicode="o" horiz-adv-x="1067" 
d="M758 492q0 297 -223 296q-225 0 -225 -296t224 -297q224 0 224 297zM1012 492q0 -242 -130 -377t-348 -135t-349 135q-130 135 -130 377t130 376q131 134 349 136q218 0 348 -135t130 -377z" />
    <glyph glyph-name="p" unicode="p" horiz-adv-x="1087" 
d="M778 492q0 297 -209 296q-133 0 -209 -112v-369q76 -113 209 -112q209 0 209 297zM633 -14q-182 0 -273 120v-509q0 -39 -38 -39h-177q-39 0 -39 39v1347q0 39 39 39h101q52 1 82 -29t30 -75q90 119 274 119t292 -132q108 -130 108 -374t-108 -375t-291 -131z" />
    <glyph glyph-name="q" unicode="q" horiz-adv-x="1087" 
d="M309 492q0 -297 209 -297q133 0 209 112v369q-76 113 -209 112q-209 1 -209 -296zM842 983h100q39 0 39 -39v-1347q0 -39 -39 -39h-176q-39 0 -39 39v509q-90 -120 -272 -120t-291 131t-109 375t109 374t292 132q183 0 273 -119q0 45 31 75t82 29z" />
    <glyph glyph-name="r" unicode="r" horiz-adv-x="743" 
d="M608 987q45 0 83 -20t38 -54v-192q0 -37 -37 -37q-16 0 -56 26t-91 25q-98 0 -185 -71v-625q0 -39 -38 -39h-177q-39 0 -39 39v905q0 39 39 39h101q51 0 82 -31t30 -71v-15q106 121 250 121z" />
    <glyph glyph-name="s" unicode="s" horiz-adv-x="811" 
d="M309 711q1 -82 145 -112q144 -31 225 -97t81 -212t-104 -229q-104 -81 -270 -81q-165 0 -286 73q-51 29 -51 78v102q0 45 35 46q18 0 45 -15q143 -78 238 -78q143 0 143 101q0 53 -35 81t-115 44q-297 59 -297 288q1 140 101 222t249 82t263 -68q53 -33 53 -78v-98
q0 -45 -37 -45q-20 0 -34 8t-36 23q-24 15 -53 32q-50 29 -133 29q-127 0 -127 -96z" />
    <glyph glyph-name="t" unicode="t" horiz-adv-x="622" 
d="M141 815h-86q-39 0 -39 39v90q0 39 39 39h86v199q0 39 39 39h176q39 0 39 -39v-199h148q39 0 39 -39v-90q0 -39 -39 -39h-148v-575q0 -66 60 -66q29 0 63 11t39 12q29 0 29 -37v-43q0 -57 -27 -78q-68 -53 -213 -53q-90 0 -147 49t-58 141v639z" />
    <glyph glyph-name="u" unicode="u" horiz-adv-x="1056" 
d="M696 944q0 39 39 39h176q39 0 39 -39v-756q0 -66 45 -65v-25q0 -111 -147 -110q-68 0 -109 32t-41 93v16q-147 -141 -321 -141q-279 0 -279 321v635q0 39 39 39h176q39 0 39 -39v-596q0 -131 127 -131q53 0 117 24t100 56v647z" />
    <glyph glyph-name="v" unicode="v" horiz-adv-x="978" 
d="M977 946q0 -16 -27 -82l-332 -827q-14 -37 -43 -37h-172q-29 0 -43 37l-331 827q-27 66 -27 82t11 26t26 11h176q35 0 47 -35l162 -456q53 -144 53 -166t12 -23q13 -1 13 19t53 170l162 456q14 35 47 35h176q14 0 26 -10q11 -11 11 -27z" />
    <glyph glyph-name="w" unicode="w" horiz-adv-x="1433" 
d="M1411 946q0 -27 -16 -80l-269 -829q-14 -37 -41 -37h-155q-33 0 -41 37l-115 379q-49 172 -49 198t-8 25q-8 0 -8 -26t-50 -197l-114 -379q-12 -37 -41 -37h-156q-27 0 -41 37l-268 829q-16 49 -16 83t34 34h166q35 0 47 -35l127 -450q41 -141 41 -167t8 -26t8 33t38 160
l126 450q8 35 48 35h102q39 0 47 -35l129 -450q35 -121 35 -157t8 -36t8 23t43 170l125 450q8 35 47 35h166q35 0 35 -37z" />
    <glyph glyph-name="x" unicode="x" horiz-adv-x="974" 
d="M965 37q0 -37 -37 -37h-191q-27 0 -51 35l-121 184q-65 103 -65 117t-12 14t-13 -14q0 -14 -65 -117l-121 -184q-25 -35 -51 -35h-191q-37 0 -37 37q0 20 33 67l283 394l-271 381q-33 47 -32 67q0 37 36 37h191q29 0 51 -35l107 -164q68 -102 68 -121t11 -20q13 -1 13 19
t67 122l107 164q23 35 51 35h190q37 0 37 -37q0 -20 -32 -67l-271 -381l283 -394q33 -44 33 -67z" />
    <glyph glyph-name="y" unicode="y" horiz-adv-x="1056" 
d="M950 45q0 -502 -495 -502q-88 1 -168 19t-80 59v131q0 37 33 37q14 0 64 -17t136 -18q143 0 200 69q56 69 56 220v57q-150 -113 -309 -112q-289 0 -289 321v635q0 39 39 39h176q39 0 39 -39v-606q0 -131 127 -131q106 0 189 37l28 12v688q0 39 39 39h176q39 0 39 -39
v-899z" />
    <glyph glyph-name="z" unicode="z" horiz-adv-x="849" 
d="M811 37q0 -37 -37 -37h-696q-35 0 -35 35v84q0 37 29 78l426 577h-398q-16 0 -27 11t-12 28v133q1 16 11 26t26 11h660q37 0 37 -35v-84q0 -37 -31 -78l-424 -577h432q39 0 39 -39v-133z" />
    <glyph glyph-name="braceleft" unicode="{" horiz-adv-x="694" 
d="M729 -332q0 -39 -39 -39h-10q-211 -1 -297 139t-86 431q0 163 -36 243t-134 80h-23q-39 0 -38 39v62q0 39 38 39h23q98 0 134 80t36 241q0 291 86 429t297 138h10q39 0 39 -39v-59q0 -39 -39 -39h-10q-117 0 -156 -100t-39 -324q0 -328 -168 -399q168 -66 168 -397
q0 -219 39 -323t156 -103h10q39 0 39 -39v-60z" />
    <glyph glyph-name="bar" unicode="|" horiz-adv-x="536" 
d="M352 -332q0 -39 -39 -39h-90q-39 0 -39 39v1843q0 39 39 39h90q39 0 39 -39v-1843z" />
    <glyph glyph-name="braceright" unicode="}" horiz-adv-x="694" 
d="M629 561q0 -39 -39 -39h-23q-98 0 -134 -80t-36 -243q0 -291 -86 -430t-297 -140h-10q-39 0 -39 39v60q0 39 39 39h10q117 0 156 103t39 323q0 332 168 397q-168 72 -168 399q0 223 -39 323t-156 101h-10q-39 0 -39 39v59q0 39 39 39h10q211 0 297 -138t86 -429
q0 -162 36 -242t134 -79h23q39 0 39 -39v-62z" />
    <glyph glyph-name="asciitilde" unicode="~" horiz-adv-x="829" 
d="M786 688q0 -127 -52 -204q-52 -76 -148 -76t-193 74q-98 74 -135 73q-78 0 -78 -94v-10q0 -39 -39 -39h-59q-39 0 -39 39v10q0 127 52 204t159 76q78 1 179 -73t138 -74q78 0 78 94v10q0 39 39 39h60q39 0 38 -39v-10z" />
    <glyph glyph-name="nbspace" unicode="&#xa0;" horiz-adv-x="350" 
 />
    <glyph glyph-name="exclamdown" unicode="&#xa1;" horiz-adv-x="501" 
d="M111 856q0 57 41 99t99 42t99 -41t41 -99t-40 -99t-99 -41t-100 41t-41 98zM381 -293q0 -39 -39 -39h-182q-39 0 -39 39v443q0 47 20 215l23 172q6 39 35 38h104q29 0 35 -38l22 -172q20 -170 21 -215v-443z" />
    <glyph glyph-name="cent" unicode="&#xa2;" horiz-adv-x="915" 
d="M53 655q0 225 111 359t309 151v129q0 39 39 39h49q39 0 39 -39v-131q127 -12 205 -63q51 -35 51 -80v-90q0 -49 -35 -49q-14 0 -47 16q-106 55 -219 55t-181 -72t-67 -225q0 -153 68 -225q69 -72 181 -72t218 56q33 16 47 16q35 0 35 -49v-90q0 -47 -51 -80
q-78 -51 -205 -64v-129q0 -39 -39 -38h-49q-39 0 -39 38v127q-199 17 -309 151t-111 359z" />
    <glyph glyph-name="sterling" unicode="&#xa3;" horiz-adv-x="1024" 
d="M205 573h-117q-39 0 -39 39v82q0 39 39 39h111l-11 180q-6 103 24 181t77 123t137 81t200 35q109 0 200 -18t92 -49v-152q0 -31 -31 -31q-8 -1 -69 19t-146 20q-133 0 -179 -55t-47 -170v-164h279q39 0 39 -39v-82q0 -39 -39 -39h-279v-24q0 -227 -81 -313
q114 56 292 -13q95 -37 155 -37t60 72q0 39 39 39h54q39 0 43 -47q8 -117 -54 -193q-62 -75 -149 -75q-88 0 -243 36t-210 37q-55 0 -98 -10t-98 -35q-54 -26 -70 -32t-28 2t-11 24v127q0 33 39 51q119 53 119 367v24z" />
    <glyph glyph-name="currency" unicode="&#xa4;" horiz-adv-x="1079" 
d="M385 655v-53h385q39 0 39 -39v-49q0 -39 -39 -39h-369q59 -270 304 -270q135 0 253 74q27 16 46 16q35 0 34 -39v-137q0 -33 -51 -70q-100 -69 -310 -69t-358 118q-147 119 -186 377h-72q-39 0 -38 39v49q0 39 38 39h60v107h-60q-39 0 -38 39v49q0 39 38 39h72
q39 258 186 378t355 119q208 0 313 -69q51 -35 51 -70v-137q0 -39 -34 -39q-18 0 -46 16q-119 74 -253 74q-244 0 -304 -272h369q39 0 39 -39v-49q0 -39 -39 -39h-383q-2 -18 -2 -54z" />
    <glyph glyph-name="yen" unicode="&#xa5;" horiz-adv-x="1032" 
d="M1001 1313q39 0 39 -37q0 -23 -28 -76l-310 -604h175q39 0 38 -39v-49q0 -39 -38 -39h-232v-94h232q39 0 38 -39v-49q0 -39 -38 -39h-232v-209q0 -39 -39 -39h-180q-39 0 -39 39v209h-231q-39 0 -39 39v49q0 39 39 39h231v94h-231q-39 0 -39 39v49q0 39 39 39h174
l-310 604q-28 52 -28 72q1 40 39 41h170q37 0 55 -35l174 -356q74 -152 74 -172t12 -21q12 0 12 23t74 170l174 356q18 35 55 35h170z" />
    <glyph glyph-name="brokenbar" unicode="&#xa6;" horiz-adv-x="536" 
d="M352 -332q0 -39 -39 -39h-90q-39 0 -39 39v752q0 39 39 39h90q39 0 39 -39v-752zM352 760q0 -39 -39 -39h-90q-39 0 -39 39v751q0 39 39 39h90q39 0 39 -39v-751z" />
    <glyph glyph-name="section" unicode="&#xa7;" horiz-adv-x="962" 
d="M678 475q0 59 -50 98t-159 70q-4 2 -63 23q-54 -8 -88 -46t-34 -98t50 -97q49 -38 160 -71q59 -23 61 -22q123 16 123 143zM903 485q0 -178 -143 -262q94 -85 94 -235t-109 -237t-281 -87t-298 74q-53 35 -53 84v98q0 45 37 45q20 0 43 -14q135 -86 256 -86q69 0 115 34
t46 100t-39 101t-157 71t-237 111q-118 75 -118 240q0 166 144 252q-94 84 -94 234t109 238q110 87 284 87t295 -73q53 -35 53 -84v-99q0 -45 -37 -45q-18 0 -41 15q-135 86 -258 86q-70 0 -116 -34q-46 -35 -46 -101t39 -102t139 -62q273 -85 341 -211q32 -60 32 -138z" />
    <glyph glyph-name="dieresis" unicode="&#xa8;" horiz-adv-x="819" 
d="M588 1300q47 0 79 -32q31 -32 31 -77q0 -46 -32 -78t-78 -32q-47 0 -79 32t-32 78q0 45 32 77t79 32zM231 1300q47 0 79 -32t32 -77q0 -46 -32 -78t-79 -32t-79 32t-31 78q-1 45 31 77t79 32z" />
    <glyph glyph-name="copyright" unicode="&#xa9;" horiz-adv-x="1519" 
d="M760 88q236 0 402 166t165 402q0 236 -166 401q-165 166 -401 166t-402 -166t-166 -402q0 -235 166 -401t402 -166zM760 -25q-280 0 -480 201q-200 202 -200 480t200 479t480 201t480 -202q200 -200 200 -479t-200 -479t-480 -201zM1038 365q0 -41 -41 -66
q-90 -53 -221 -53q-180 0 -280 108t-100 302q0 192 100 300t280 109q139 0 221 -53q41 -25 41 -66v-72q0 -39 -28 -38q-12 0 -37 12q-82 45 -172 45q-201 0 -201 -238t201 -237q90 0 172 45q25 12 37 12q29 0 28 -39v-71z" />
    <glyph glyph-name="ordfeminine" unicode="&#xaa;" horiz-adv-x="790" 
d="M406 905q-147 0 -148 -129q0 -117 121 -117q68 1 123 52v180q-53 14 -96 14zM752 616q0 -96 -125 -96q-102 0 -125 80q-68 -80 -193 -80t-195 60t-71 179q0 119 83 189t230 70q68 0 146 -17v17q0 82 -20 114t-110 32q-92 0 -196 -48q-39 -14 -57 -14q-27 0 -27 37v75
q0 43 53 70q103 49 273 49q170 1 234 -65t65 -209v-371q0 -51 35 -51v-21z" />
    <glyph glyph-name="guillemotleft" unicode="&#xab;" horiz-adv-x="870" 
d="M487 168q0 -18 -12 -24t-29 10l-372 348q-39 39 -39 71v7q0 33 39 71l372 348q16 16 29 11q12 -6 12 -25v-125q0 -33 -38 -72l-232 -213l232 -213q39 -35 38 -69v-125zM823 168q0 -18 -12 -24t-29 10l-372 348q-39 39 -39 71v7q0 33 39 71l372 348q16 16 29 11
q12 -6 12 -25v-125q0 -35 -39 -72l-231 -213l231 -213q39 -35 39 -69v-125z" />
    <glyph glyph-name="logicalnot" unicode="&#xac;" horiz-adv-x="999" 
d="M885 352q0 -39 -39 -39h-101q-39 0 -38 39v217h-609q-39 0 -39 39v99q0 39 39 38h748q39 0 39 -38v-355z" />
    <glyph glyph-name="registered" unicode="&#xae;" horiz-adv-x="1255" 
d="M563 973v-162h80q80 0 80 81t-78 81h-82zM936 466q0 -17 -18 -17h-132q-29 0 -43 14t-34 53l-76 152q-12 20 -29 20h-41v-219q0 -20 -18 -20h-123q-20 0 -21 20v616q0 20 21 21h272q86 0 138 -58t53 -140q0 -82 -34 -132q-34 -49 -91 -65q39 -16 71 -80l66 -123
q10 -16 27 -23q12 -2 12 -19zM1079 777q0 187 -132 321t-319 133q-186 0 -320 -133q-134 -132 -134 -320t133 -321t321 -133t319 133q132 133 132 320zM1184 778q0 -229 -163 -393t-393 -164t-394 164q-163 164 -162 393q0 229 164 392t393 163t392 -163t163 -392z" />
    <glyph glyph-name="macron" unicode="&#xaf;" horiz-adv-x="819" 
d="M651 1120q0 -39 -39 -39h-407q-39 0 -39 39v72q0 39 39 39h407q39 0 39 -39v-72z" />
    <glyph glyph-name="degree" unicode="&#xb0;" horiz-adv-x="700" 
d="M350 1178q-70 0 -119 -50t-49 -118q0 -70 49 -118t119 -48t119 48t49 118t-49 119t-119 49zM350 1333q134 0 228 -94t94 -227q0 -134 -94 -228t-228 -94t-227 94q-94 94 -94 228t94 227q94 94 227 94z" />
    <glyph glyph-name="plusminus" unicode="&#xb1;" horiz-adv-x="860" 
d="M803 39q0 -39 -39 -39h-666q-39 0 -39 39v92q0 39 39 39h666q39 0 39 -39v-92zM803 649q0 -39 -39 -39h-248v-262q0 -39 -39 -39h-92q-39 0 -39 39v262h-248q-39 0 -39 39v92q0 39 39 39h248v262q0 39 39 39h92q39 0 39 -39v-262h248q39 0 39 -39v-92z" />
    <glyph glyph-name="twosuperior" unicode="&#xb2;" horiz-adv-x="620" 
d="M296 1571q110 1 182 -59t71 -172q0 -112 -73 -203t-138 -152t-74 -70h258q25 0 25 -22v-100q0 -23 -25 -23h-440q-23 0 -23 23v63q-1 32 17 56t80 90t108 116q108 117 107 207q0 51 -30 78q-29 27 -63 27t-50 -4t-33 -10q-29 -12 -59 -35t-48 -23q-27 0 -27 33v71
q0 35 37 58q88 51 198 51z" />
    <glyph glyph-name="threesuperior" unicode="&#xb3;" horiz-adv-x="636" 
d="M565 993q0 -115 -77 -175q-76 -60 -202 -60t-200 57q-35 27 -35 57v68q0 35 25 35q12 0 37 -17q86 -59 166 -59q115 0 114 109q0 52 -31 80t-88 28h-61q-23 0 -23 23v69q0 23 23 23h57q109 0 109 102q0 96 -103 97q-49 0 -72 -12q-24 -12 -34 -16t-39 -24t-41 -20
q-27 0 -27 33v71q0 35 37 58q88 51 205 51q117 1 181 -61t65 -172q0 -110 -94 -160q47 -25 78 -75q30 -51 30 -110z" />
    <glyph glyph-name="acute" unicode="&#xb4;" horiz-adv-x="819" 
d="M471 1376h139q18 0 24 -12t-9 -29l-217 -215q-39 -39 -72 -39h-113q-18 -1 -25 11t7 30l194 215q35 39 72 39z" />
    <glyph glyph-name="mu" unicode="&#xb5;" horiz-adv-x="1056" 
d="M98 944q0 39 39 39h176q39 0 39 -39v-596q0 -131 127 -131q53 0 117 24t100 56v647q0 39 39 39h176q39 0 39 -39v-756q0 -66 45 -65v-25q0 -111 -147 -110q-68 0 -109 32t-41 93v16q-147 -141 -321 -141h-25v-391q0 -39 -39 -39h-176q-39 0 -39 39v1347z" />
    <glyph glyph-name="paragraph" unicode="&#xb6;" horiz-adv-x="1046" 
d="M1020 1188q0 -39 -39 -39h-84v-1567q0 -39 -39 -39h-84q-39 0 -39 39v1567h-211v-1567q0 -39 -39 -39h-86q-39 0 -39 39v987q-141 15 -236 121t-95 255q1 149 109 259t263 109h580q39 0 39 -39v-86z" />
    <glyph glyph-name="periodcentered" unicode="&#xb7;" horiz-adv-x="428" 
d="M346 577q0 -53 -39 -93t-93 -40t-93 39t-39 93t39 94q39 39 93 39t93 -39t39 -93z" />
    <glyph glyph-name="cedilla" unicode="&#xb8;" horiz-adv-x="819" 
d="M629 -258q-1 -100 -63 -150t-156 -49q-94 0 -183 47q-37 20 -37 48v57q0 19 12 29t21 5q10 -5 64 -33t104 -28q82 0 82 67t-90 66q-37 -1 -48 11t-7 36l34 228h117l-22 -158q172 -29 172 -176z" />
    <glyph glyph-name="onesuperior" unicode="&#xb9;" horiz-adv-x="401" 
d="M291 793q0 -23 -25 -23h-119q-23 0 -22 23v563h-47q-23 0 -23 22v60q0 25 23 24h10q72 0 72 64v8q0 25 24 25h82q25 0 25 -25v-741z" />
    <glyph glyph-name="ordmasculine" unicode="&#xba;" horiz-adv-x="862" 
d="M598 924q0 223 -167 223t-167 -223t168 -224q166 1 166 224zM819 924q0 -194 -106 -302q-105 -108 -281 -108t-282 108t-106 302t106 302t281 108t281 -108q106 -107 107 -302z" />
    <glyph glyph-name="guillemotright" unicode="&#xbb;" horiz-adv-x="870" 
d="M498 573q0 -37 -39 -71l-373 -348q-16 -16 -29 -11q-12 6 -12 25v125q0 35 39 69l233 213l-233 213q-39 39 -39 72v125q0 19 12 25t29 -11l373 -348q39 -35 39 -71v-7zM836 573q0 -33 -39 -71l-373 -348q-16 -16 -29 -11q-12 6 -12 25v125q0 35 39 69l231 213l-231 213
q-39 37 -39 72v125q0 19 12 25t29 -11l373 -348q39 -39 39 -71v-7z" />
    <glyph glyph-name="onequarter" unicode="&#xbc;" horiz-adv-x="1177" 
d="M291 547q0 -23 -25 -23h-119q-23 0 -22 23v563h-47q-23 0 -23 23v59q0 25 23 25h10q72 0 72 63v8q0 25 24 25h82q25 0 25 -25v-741zM207 0q-18 0 -27 11q-8 11 0 28l576 1235q18 39 51 39h72q18 0 26 -11t0 -28l-575 -1235q-18 -39 -51 -39h-72zM1149 197q0 -23 -23 -23
h-73v-151q0 -23 -25 -23h-119q-23 0 -22 23v151h-269q-20 0 -20 21v65q0 23 12 51l209 455q12 23 29 22h121q27 0 26 -26q0 -14 -32 -84l-181 -367h129l41 144q6 23 29 22h47q25 0 25 -24v-142h73q23 0 23 -22v-92z" />
    <glyph glyph-name="onehalf" unicode="&#xbd;" horiz-adv-x="1280" 
d="M291 547q0 -23 -25 -23h-119q-23 0 -22 23v563h-47q-23 0 -23 23v59q0 25 23 25h10q72 0 72 63v8q0 25 24 25h82q25 0 25 -25v-741zM958 801q111 1 183 -59q71 -60 71 -173t-71 -201t-138 -151t-75 -72h258q25 0 24 -22v-100q0 -23 -24 -23h-441q-23 0 -22 23v63
q0 32 17 56q16 24 78 90t108 116q109 119 108 207q0 51 -35 83t-90 21q-56 -10 -99 -41q-42 -30 -58 -30q-27 0 -27 33v71q0 35 37 58q85 51 196 51zM207 0q-18 0 -27 11q-8 11 0 28l576 1235q18 39 51 39h72q18 0 26 -11t0 -28l-575 -1235q-18 -39 -51 -39h-72z" />
    <glyph glyph-name="threequarters" unicode="&#xbe;" horiz-adv-x="1351" 
d="M369 0q-18 0 -27 11q-8 11 0 28l576 1235q18 39 51 39h71q18 0 26 -11t1 -28l-575 -1235q-18 -39 -52 -39h-71zM1309 197q0 -23 -23 -23h-74v-151q0 -23 -24 -23h-119q-23 0 -22 23v151h-269q-20 0 -20 21v65q0 23 12 51l209 455q12 23 29 22h120q27 0 27 -26
q0 -14 -33 -84l-180 -367h129l41 144q6 23 29 22h47q25 0 24 -24v-142h74q23 0 23 -22v-92zM565 748q0 -116 -77 -176q-76 -60 -202 -60t-200 57q-35 27 -35 58v67q0 35 25 35q12 0 37 -16q86 -59 166 -60q115 0 114 109q0 51 -31 80t-88 28h-61q-23 0 -23 23v70q0 23 23 22
h57q109 0 109 102q0 96 -103 97q-52 0 -74 -12q-21 -12 -37 -19q-16 -8 -41 -24q-24 -17 -34 -17q-27 0 -27 33v72q0 35 37 57q88 51 205 51t181 -61t65 -171q0 -110 -94 -161q47 -25 77 -75t31 -109z" />
    <glyph glyph-name="questiondown" unicode="&#xbf;" horiz-adv-x="876" 
d="M47 -2q0 100 45 173t139 145t110 114q7 20 7 45v84q0 39 39 39h156q39 0 39 -39v-88q0 -44 -10 -66t-13 -33q-4 -12 -17 -30q-14 -18 -18 -26t-22 -26q-18 -20 -22 -24l-24 -24q-87 -81 -111 -130q-23 -49 -23 -85q0 -158 180 -158q112 0 193 58q80 57 106 57
q43 0 43 -52v-108q0 -57 -60 -92q-143 -82 -327 -82t-297 83t-113 265zM324 856q0 57 41 99t99 42t99 -41t41 -99t-40 -99t-99 -41t-100 41t-41 98z" />
    <glyph glyph-name="Agrave" unicode="&#xc0;" horiz-adv-x="1101" 
d="M655 1399h-112q-33 0 -72 39l-217 215q-16 16 -10 28t24 13h140q37 0 71 -39l195 -215q14 -18 7 -30t-26 -11zM563 932q0 24 -12 24t-12 -24t-56 -197l-86 -254h308l-87 254q-55 173 -55 197zM1100 37q0 -37 -37 -37h-168q-33 0 -47 35l-84 248h-426l-84 -248
q-12 -35 -47 -35h-168q-37 0 -37 37q0 14 23 82l401 1157q14 37 43 37h164q29 0 43 -37l401 -1157q23 -68 23 -82z" />
    <glyph glyph-name="Aacute" unicode="&#xc1;" horiz-adv-x="1101" 
d="M698 1694h140q18 0 24 -12t-10 -29l-217 -215q-39 -39 -72 -39h-112q-18 0 -26 11q-7 12 7 30l195 215q35 39 71 39zM563 932q0 24 -12 24t-12 -24t-56 -197l-86 -254h308l-87 254q-55 173 -55 197zM1100 37q0 -37 -37 -37h-168q-33 0 -47 35l-84 248h-426l-84 -248
q-12 -35 -47 -35h-168q-37 0 -37 37q0 14 23 82l401 1157q14 37 43 37h164q29 0 43 -37l401 -1157q23 -68 23 -82z" />
    <glyph glyph-name="Acircumflex" unicode="&#xc2;" horiz-adv-x="1101" 
d="M848 1399h-131q-37 0 -72 39l-96 102l-96 -102q-35 -39 -72 -39h-131q-18 0 -24 12q-5 12 10 29l219 225q39 39 71 39h45q29 0 72 -39l219 -225q14 -16 9 -28t-23 -13zM563 932q0 24 -12 24t-12 -24t-56 -197l-86 -254h308l-87 254q-55 173 -55 197zM1100 37
q0 -37 -37 -37h-168q-33 0 -47 35l-84 248h-426l-84 -248q-12 -35 -47 -35h-168q-37 0 -37 37q0 14 23 82l401 1157q14 37 43 37h164q29 0 43 -37l401 -1157q23 -68 23 -82z" />
    <glyph glyph-name="Atilde" unicode="&#xc3;" horiz-adv-x="1101" 
d="M844 1618q0 -227 -168 -227q-68 0 -140 63t-100 64q-57 0 -57 -76v-12q0 -12 -9 -22t-22 -9h-61q-12 0 -22 9q-9 9 -9 22v16q0 229 168 229q68 0 175 -95q36 -32 65 -32q57 0 57 74v12q0 33 31 33h59q33 0 33 -33v-16zM563 932q0 24 -12 24t-12 -24t-56 -197l-86 -254
h308l-87 254q-55 173 -55 197zM1100 37q0 -37 -37 -37h-168q-33 0 -47 35l-84 248h-426l-84 -248q-12 -35 -47 -35h-168q-37 0 -37 37q0 14 23 82l401 1157q14 37 43 37h164q29 0 43 -37l401 -1157q23 -68 23 -82z" />
    <glyph glyph-name="Adieresis" unicode="&#xc4;" horiz-adv-x="1101" 
d="M727 1618q47 0 79 -33t32 -78t-32 -77t-79 -31q-47 0 -79 32q-32 33 -32 77t32 77t79 33zM371 1618q47 0 79 -33t32 -78t-32 -77t-79 -31q-47 0 -79 32q-32 33 -32 77t32 77t79 33zM563 932q0 24 -12 24t-12 -24t-56 -197l-86 -254h308l-87 254q-55 173 -55 197zM1100 37
q0 -37 -37 -37h-168q-33 0 -47 35l-84 248h-426l-84 -248q-12 -35 -47 -35h-168q-37 0 -37 37q0 14 23 82l401 1157q14 37 43 37h164q29 0 43 -37l401 -1157q23 -68 23 -82z" />
    <glyph glyph-name="Aring" unicode="&#xc5;" horiz-adv-x="1101" 
d="M668 1592q0 48 -35 83t-82 35t-82 -35t-35 -83t35 -82t82 -34t82 34t35 82zM551 1819q93 0 159 -67t66 -160q0 -94 -66 -160t-159 -66q-94 0 -161 67q-66 67 -66 159t66 160q67 67 161 67zM563 932q0 24 -12 24t-12 -24t-56 -197l-86 -254h308l-87 254q-55 173 -55 197z
M1100 37q0 -37 -37 -37h-168q-33 0 -47 35l-84 248h-426l-84 -248q-12 -35 -47 -35h-168q-37 0 -37 37q0 14 23 82l401 1157q14 37 43 37h164q29 0 43 -37l401 -1157q23 -68 23 -82z" />
    <glyph glyph-name="AE" unicode="&#xc6;" horiz-adv-x="1370" 
d="M1268 1313q39 0 39 -39v-148q0 -39 -39 -39h-531l103 -284h331q39 0 39 -39v-148q0 -39 -39 -38h-253l124 -353h242q39 0 39 -39v-147q0 -39 -39 -39h-389q-33 0 -47 35l-84 248h-426l-84 -248q-12 -35 -47 -35h-168q-37 0 -37 37q0 14 23 82l401 1157q14 37 43 37h799z
M563 932q0 24 -12 24t-12 -24t-56 -197l-86 -254h308l-87 254q-55 173 -55 197z" />
    <glyph glyph-name="Ccedilla" unicode="&#xc7;" horiz-adv-x="1028" 
d="M49 674q0 334 159 497q159 162 417 162q207 0 311 -69q51 -35 51 -70v-137q0 -39 -35 -39q-18 0 -45 16q-119 74 -254 74q-340 0 -340 -453q0 -229 89 -340q90 -111 238 -111t267 75q27 16 45 16q35 0 35 -39v-137q0 -33 -51 -70q-90 -68 -297 -69l-8 -62
q172 -29 172 -176q-1 -100 -63 -150t-156 -49q-94 0 -183 47q-37 20 -36 48v57q0 19 11 29t21 5t64 -33t104 -28q82 0 82 67t-90 66q-37 -1 -48 11t-7 36l20 138q-217 30 -345 192t-128 496z" />
    <glyph glyph-name="Egrave" unicode="&#xc8;" horiz-adv-x="923" 
d="M649 1399h-112q-33 0 -72 39l-217 215q-16 16 -10 28t24 13h139q37 0 72 -39l195 -215q14 -18 7 -30t-26 -11zM877 39q0 -39 -39 -39h-678q-39 0 -39 39v1235q0 39 39 39h661q39 0 39 -39v-148q0 -39 -39 -39h-442v-284h346q39 0 39 -39v-148q0 -39 -39 -38h-346v-353
h459q39 0 39 -39v-147z" />
    <glyph glyph-name="Eacute" unicode="&#xc9;" horiz-adv-x="923" 
d="M616 1694h140q18 0 24 -12t-10 -29l-217 -215q-39 -39 -72 -39h-112q-18 0 -26 11q-7 12 7 30l195 215q35 39 71 39zM877 39q0 -39 -39 -39h-678q-39 0 -39 39v1235q0 39 39 39h661q39 0 39 -39v-148q0 -39 -39 -39h-442v-284h346q39 0 39 -39v-148q0 -39 -39 -38h-346
v-353h459q39 0 39 -39v-147z" />
    <glyph glyph-name="Ecircumflex" unicode="&#xca;" horiz-adv-x="923" 
d="M793 1399h-131q-37 0 -72 39l-96 102l-97 -102q-35 -39 -71 -39h-131q-18 0 -24 12q-5 12 9 29l219 225q39 39 72 39h45q29 0 72 -39l219 -225q14 -16 9 -28t-23 -13zM877 39q0 -39 -39 -39h-678q-39 0 -39 39v1235q0 39 39 39h661q39 0 39 -39v-148q0 -39 -39 -39h-442
v-284h346q39 0 39 -39v-148q0 -39 -39 -38h-346v-353h459q39 0 39 -39v-147z" />
    <glyph glyph-name="Edieresis" unicode="&#xcb;" horiz-adv-x="923" 
d="M672 1618q45 0 78 -33q32 -33 32 -78t-32 -77t-78 -31q-47 0 -79 32q-32 33 -32 77t33 77t78 33zM315 1618q45 0 78 -33t33 -78t-32 -77t-79 -31q-47 0 -79 32q-32 33 -31 77t33 77t77 33zM877 39q0 -39 -39 -39h-678q-39 0 -39 39v1235q0 39 39 39h661q39 0 39 -39v-148
q0 -39 -39 -39h-442v-284h346q39 0 39 -39v-148q0 -39 -39 -38h-346v-353h459q39 0 39 -39v-147z" />
    <glyph glyph-name="Igrave" unicode="&#xcc;" horiz-adv-x="499" 
d="M371 1399h-113q-33 0 -72 39l-219 215q-16 16 -10 28t25 13h141q37 0 72 -39l194 -215q14 -18 7 -30t-25 -11zM379 39q0 -39 -39 -39h-180q-39 0 -39 39v1235q0 39 39 39h180q39 0 39 -39v-1235z" />
    <glyph glyph-name="Iacute" unicode="&#xcd;" horiz-adv-x="499" 
d="M381 1694h139q18 0 24 -12t-9 -29l-218 -215q-39 -39 -71 -39h-113q-18 -1 -25 11t7 30l194 215q35 39 72 39zM379 39q0 -39 -39 -39h-180q-39 0 -39 39v1235q0 39 39 39h180q39 0 39 -39v-1235z" />
    <glyph glyph-name="Icircumflex" unicode="&#xce;" horiz-adv-x="499" 
d="M547 1399h-131q-37 0 -72 39l-96 102l-96 -102q-35 -39 -72 -39h-131q-18 0 -24 12q-5 12 9 29l220 225q39 39 71 39h45q29 0 72 -39l219 -225q14 -16 9 -28t-23 -13zM379 39q0 -39 -39 -39h-180q-39 0 -39 39v1235q0 39 39 39h180q39 0 39 -39v-1235z" />
    <glyph glyph-name="Idieresis" unicode="&#xcf;" horiz-adv-x="499" 
d="M428 1618q47 0 79 -33t32 -78t-32 -77t-79 -31q-47 0 -79 32q-32 33 -32 77t32 77t79 33zM72 1618q47 0 79 -33q31 -33 31 -78t-32 -77t-78 -31q-47 0 -80 32q-33 33 -33 77t33 77t80 33zM379 39q0 -39 -39 -39h-180q-39 0 -39 39v1235q0 39 39 39h180q39 0 39 -39v-1235
z" />
    <glyph glyph-name="Eth" unicode="&#xd0;" horiz-adv-x="1181" 
d="M121 578h-58q-39 0 -38 38v101q0 39 38 39h58v518q0 39 39 39h409q239 0 400 -148t161 -499q0 -350 -156 -508t-405 -158h-409q-39 0 -39 39v539zM379 756h170q39 0 39 -39v-101q0 -39 -39 -38h-170v-357h172q319 0 319 438q0 231 -83 331t-236 102h-172v-336z" />
    <glyph glyph-name="Ntilde" unicode="&#xd1;" horiz-adv-x="1193" 
d="M895 1618q0 -227 -168 -227q-67 0 -139 63t-101 64q-57 0 -57 -76v-12q0 -12 -9 -22t-22 -9h-61q-12 0 -22 9q-9 9 -9 22v16q0 229 168 229q68 0 175 -95q36 -32 65 -32q57 0 57 74v12q0 33 31 33h59q33 0 33 -33v-16zM354 686v-647q0 -39 -39 -39h-155q-39 0 -39 39
v1235q0 39 39 39h157q27 0 43 -31l371 -635q80 -141 89 -169q10 -28 18 -29t5 37t-3 141v647q0 39 39 39h155q39 0 39 -39v-1235q0 -39 -39 -39h-157q-25 0 -43 31l-371 635q-78 134 -88 166q-11 32 -19 32t-5 -38t3 -140z" />
    <glyph glyph-name="Ograve" unicode="&#xd2;" horiz-adv-x="1261" 
d="M731 1399h-113q-33 0 -71 39l-217 215q-16 16 -11 28q6 12 25 13h139q37 0 72 -39l195 -215q14 -18 7 -30t-26 -11zM631 1098q-147 0 -233 -106t-85 -336q0 -230 85 -335q84 -105 232 -105t233 104q85 106 85 336t-85 336t-232 106zM631 1333q254 0 418 -168
q163 -168 163 -509t-164 -509q-164 -167 -417 -167q-254 0 -418 168t-164 508q0 341 164 509t418 168z" />
    <glyph glyph-name="Oacute" unicode="&#xd3;" horiz-adv-x="1261" 
d="M780 1694h140q18 0 24 -12t-10 -29l-217 -215q-39 -39 -72 -39h-113q-18 -1 -25 11t7 30l195 215q35 39 71 39zM631 1098q-147 0 -233 -106t-85 -336q0 -230 85 -335q84 -105 232 -105t233 104q85 106 85 336t-85 336t-232 106zM631 1333q254 0 418 -168
q163 -168 163 -509t-164 -509q-164 -167 -417 -167q-254 0 -418 168t-164 508q0 341 164 509t418 168z" />
    <glyph glyph-name="Ocircumflex" unicode="&#xd4;" horiz-adv-x="1261" 
d="M930 1399h-131q-37 0 -72 39l-96 102l-96 -102q-35 -39 -72 -39h-131q-18 0 -24 12q-5 12 9 29l220 225q39 39 71 39h45q29 0 72 -39l219 -225q14 -16 9 -28t-23 -13zM631 1098q-147 0 -233 -106t-85 -336q0 -230 85 -335q84 -105 232 -105t233 104q85 106 85 336
t-85 336t-232 106zM631 1333q254 0 418 -168q163 -168 163 -509t-164 -509q-164 -167 -417 -167q-254 0 -418 168t-164 508q0 341 164 509t418 168z" />
    <glyph glyph-name="Otilde" unicode="&#xd5;" horiz-adv-x="1261" 
d="M924 1618q0 -227 -168 -227q-68 0 -140 63t-100 64q-57 0 -57 -76v-12q0 -12 -9 -22t-22 -9h-61q-12 0 -22 9q-9 9 -9 22v16q0 229 168 229q68 0 175 -95q36 -32 64 -32q57 0 58 74v12q0 33 30 33h60q33 0 33 -33v-16zM631 1098q-147 0 -233 -106t-85 -336
q0 -230 85 -335q84 -105 232 -105t233 104q85 106 85 336t-85 336t-232 106zM631 1333q254 0 418 -168q163 -168 163 -509t-164 -509q-164 -167 -417 -167q-254 0 -418 168t-164 508q0 341 164 509t418 168z" />
    <glyph glyph-name="Odieresis" unicode="&#xd6;" horiz-adv-x="1261" 
d="M809 1618q47 0 79 -33t32 -78t-32 -77t-79 -31q-47 0 -79 32q-32 33 -32 77t32 77t79 33zM453 1618q47 0 79 -33t31 -78q0 -45 -32 -77q-33 -32 -79 -31q-46 0 -78 32q-32 33 -32 77t32 77t79 33zM631 1098q-147 0 -233 -106t-85 -336q0 -230 85 -335q84 -105 232 -105
t233 104q85 106 85 336t-85 336t-232 106zM631 1333q254 0 418 -168q163 -168 163 -509t-164 -509q-164 -167 -417 -167q-254 0 -418 168t-164 508q0 341 164 509t418 168z" />
    <glyph glyph-name="multiply" unicode="&#xd7;" horiz-adv-x="997" 
d="M866 360l-71 -71q-27 -27 -56 0l-241 241l-240 -241q-29 -27 -55 0l-72 71q-29 29 0 56l242 241l-242 242q-29 27 0 55l72 72q27 27 55 0l240 -242l241 242q29 27 56 0l71 -72q29 -29 0 -55l-241 -242l241 -241q29 -27 0 -56z" />
    <glyph glyph-name="Oslash" unicode="&#xd8;" horiz-adv-x="1261" 
d="M631 1333q184 0 317 -86l49 76q25 39 56 39h32q17 0 25 -11t-2 -28l-86 -133q190 -176 190 -526t-164 -517q-164 -168 -417 -167q-182 0 -320 86l-47 -76q-25 -39 -55 -39h-33q-18 0 -25 11t3 28l84 133q-188 178 -188 526t163 516q164 168 418 168zM313 672
q0 -215 68 -324l436 690q-74 59 -186 60q-147 0 -233 -106t-85 -320zM631 215q147 -1 232 105t85 321t-67 324l-437 -691q74 -59 187 -59z" />
    <glyph glyph-name="Ugrave" unicode="&#xd9;" horiz-adv-x="1177" 
d="M707 1399h-113q-33 0 -72 39l-217 215q-16 16 -10 28t24 13h140q37 0 71 -39l195 -215q14 -18 7 -30t-25 -11zM1069 512q0 -274 -128 -403t-352 -129t-352 128t-128 404v762q0 39 38 39h181q39 0 39 -39v-785q0 -270 225 -270q109 0 165 70t56 200v785q0 39 39 39h178
q39 0 39 -39v-762z" />
    <glyph glyph-name="Uacute" unicode="&#xda;" horiz-adv-x="1177" 
d="M727 1694h139q18 0 24 -12t-9 -29l-217 -215q-39 -39 -72 -39h-113q-18 -1 -25 11t7 30l194 215q35 39 72 39zM1069 512q0 -274 -128 -403t-352 -129t-352 128t-128 404v762q0 39 38 39h181q39 0 39 -39v-785q0 -270 225 -270q109 0 165 70t56 200v785q0 39 39 39h178
q39 0 39 -39v-762z" />
    <glyph glyph-name="Ucircumflex" unicode="&#xdb;" horiz-adv-x="1177" 
d="M885 1399h-131q-37 0 -72 39l-96 102l-97 -102q-35 -39 -71 -39h-131q-18 0 -24 12q-5 12 9 29l220 225q39 39 71 39h45q29 0 72 -39l219 -225q14 -16 9 -28t-23 -13zM1069 512q0 -274 -128 -403t-352 -129t-352 128t-128 404v762q0 39 38 39h181q39 0 39 -39v-785
q0 -270 225 -270q109 0 165 70t56 200v785q0 39 39 39h178q39 0 39 -39v-762z" />
    <glyph glyph-name="Udieresis" unicode="&#xdc;" horiz-adv-x="1177" 
d="M768 1618q47 0 79 -33t32 -78t-32 -77t-79 -31q-47 0 -79 32q-32 33 -32 77t32 77t79 33zM412 1618q46 0 78 -33t32 -78t-32 -77t-78 -31q-46 0 -79 32q-32 33 -32 77t32 77t79 33zM1069 512q0 -274 -128 -403t-352 -129t-352 128t-128 404v762q0 39 38 39h181
q39 0 39 -39v-785q0 -270 225 -270q109 0 165 70t56 200v785q0 39 39 39h178q39 0 39 -39v-762z" />
    <glyph glyph-name="Yacute" unicode="&#xdd;" horiz-adv-x="1032" 
d="M668 1694h139q18 0 24 -12t-10 -29l-217 -215q-39 -39 -72 -39h-112q-18 0 -26 11q-7 12 7 30l195 215q35 39 72 39zM1001 1313q39 -1 39 -41q0 -20 -28 -72l-367 -715v-446q0 -39 -39 -39h-180q-39 0 -39 39v446l-367 715q-28 52 -28 72q1 40 39 41h170q37 0 55 -35
l174 -356q74 -152 74 -172t12 -21q12 0 12 23t74 170l174 356q18 35 55 35h170z" />
    <glyph glyph-name="Thorn" unicode="&#xde;" horiz-adv-x="1021" 
d="M121 1274q0 39 39 39h180q39 0 39 -39v-187h194q199 0 308 -106t109 -308t-112 -314t-300 -111h-199v-209q0 -39 -39 -39h-180q-39 0 -39 39v1235zM729 668q0 110 -51 162t-168 53h-131v-430h135q215 0 215 215z" />
    <glyph glyph-name="germandbls" unicode="&#xdf;" horiz-adv-x="1038" 
d="M428 111v79q0 47 35 48q16 0 43 -15q90 -51 152 -51q123 0 120 102q0 41 -34 76t-80 67t-95 69q-47 38 -81 98t-34 132q0 73 33 134t71 98q104 101 104 201q0 63 -35 100t-101 37q-166 0 -166 -242v-1005q0 -39 -38 -39h-177q-39 0 -39 39v999q0 205 116 317
q116 111 295 111t279 -87t99 -216q0 -85 -34 -149t-74 -96q-107 -87 -107 -177q0 -89 119 -164q49 -32 99 -68q120 -86 120 -229t-89 -222q-89 -78 -227 -78t-223 53q-51 31 -51 78z" />
    <glyph glyph-name="agrave" unicode="&#xe0;" horiz-adv-x="972" 
d="M388 -12q-154 0 -244 72q-89 72 -89 222q-1 150 103 238t293 88q90 0 182 -18v18q0 113 -26 156q-27 43 -137 43t-255 -62q-41 -18 -63 -18q-35 0 -35 43v90q0 51 65 82q127 62 336 62t286 -83t77 -262v-471q0 -66 45 -65v-25q0 -111 -148 -110q-125 0 -145 100
q-91 -100 -245 -100zM504 473q-201 0 -201 -168q0 -154 160 -153q104 -1 170 73v232q-66 16 -129 16zM537 1081q-33 0 -72 39l-217 215q-16 17 -10 29t24 12h139q37 0 72 -39l195 -215q14 -18 7 -29t-26 -12h-112z" />
    <glyph glyph-name="aacute" unicode="&#xe1;" horiz-adv-x="972" 
d="M588 1376h139q19 0 25 -12t-11 -29l-217 -215q-39 -39 -71 -39h-113q-18 -1 -25 11t7 30l194 215q35 39 72 39zM388 -12q-154 0 -244 72q-89 72 -89 222q-1 150 103 238t293 88q90 0 182 -18v18q0 113 -26 156q-27 43 -137 43t-255 -62q-41 -18 -63 -18q-35 0 -35 43v90
q0 51 65 82q127 62 336 62t286 -83t77 -262v-471q0 -66 45 -65v-25q0 -111 -148 -110q-125 0 -145 100q-91 -100 -245 -100zM504 473q-201 0 -201 -168q0 -154 160 -153q104 -1 170 73v232q-66 16 -129 16z" />
    <glyph glyph-name="acircumflex" unicode="&#xe2;" horiz-adv-x="972" 
d="M657 1081q-37 0 -71 39l-97 103l-96 -103q-35 -39 -71 -39h-132q-18 1 -23 13t9 28l219 226q39 39 72 38h45q29 0 72 -38l219 -226q14 -16 9 -28t-24 -13h-131zM388 -12q-154 0 -244 72q-89 72 -89 222q-1 150 103 238t293 88q90 0 182 -18v18q0 113 -26 156
q-27 43 -137 43t-255 -62q-41 -18 -63 -18q-35 0 -35 43v90q0 51 65 82q127 62 336 62t286 -83t77 -262v-471q0 -66 45 -65v-25q0 -111 -148 -110q-125 0 -145 100q-91 -100 -245 -100zM504 473q-201 0 -201 -168q0 -154 160 -153q104 -1 170 73v232q-66 16 -129 16z" />
    <glyph glyph-name="atilde" unicode="&#xe3;" horiz-adv-x="972" 
d="M786 1300q0 -227 -168 -227q-68 -1 -140 63t-99 64q-57 0 -57 -76v-12q0 -12 -10 -21t-21 -10h-62q-12 -1 -21 9t-9 22v16q0 229 168 230q47 0 93 -32t82 -64t64 -31q57 0 58 74v12q0 33 30 33h60q33 0 32 -33v-17zM388 -12q-154 0 -244 72q-89 72 -89 222
q-1 150 103 238t293 88q90 0 182 -18v18q0 113 -26 156q-27 43 -137 43t-255 -62q-41 -18 -63 -18q-35 0 -35 43v90q0 51 65 82q127 62 336 62t286 -83t77 -262v-471q0 -66 45 -65v-25q0 -111 -148 -110q-125 0 -145 100q-91 -100 -245 -100zM504 473q-201 0 -201 -168
q0 -154 160 -153q104 -1 170 73v232q-66 16 -129 16z" />
    <glyph glyph-name="adieresis" unicode="&#xe4;" horiz-adv-x="972" 
d="M670 1300q47 0 79 -32q31 -32 31 -77q0 -46 -32 -78t-78 -32q-47 0 -79 32t-32 78q0 45 32 77t79 32zM313 1300q47 0 79 -32t32 -77q0 -46 -32 -78t-79 -32t-79 32t-32 78t32 78q32 31 79 31zM388 -12q-154 0 -244 72q-89 72 -89 222q-1 150 103 238t293 88q90 0 182 -18
v18q0 113 -26 156q-27 43 -137 43t-255 -62q-41 -18 -63 -18q-35 0 -35 43v90q0 51 65 82q127 62 336 62t286 -83t77 -262v-471q0 -66 45 -65v-25q0 -111 -148 -110q-125 0 -145 100q-91 -100 -245 -100zM504 473q-201 0 -201 -168q0 -154 160 -153q104 -1 170 73v232
q-66 16 -129 16z" />
    <glyph glyph-name="aring" unicode="&#xe5;" horiz-adv-x="972" 
d="M616 1287q0 48 -34 83q-35 35 -82 35t-82 -35t-35 -83t35 -82t82 -34t82 34q34 34 34 82zM725 1287q0 -93 -66 -160q-65 -67 -159 -67t-161 68q-67 66 -67 159t67 160t161 67t160 -68q66 -66 65 -159zM388 -12q-154 0 -244 72q-89 72 -89 222q-1 150 103 238t293 88
q90 0 182 -18v18q0 113 -26 156q-27 43 -137 43t-255 -62q-41 -18 -63 -18q-35 0 -35 43v90q0 51 65 82q127 62 336 62t286 -83t77 -262v-471q0 -66 45 -65v-25q0 -111 -148 -110q-125 0 -145 100q-91 -100 -245 -100zM504 473q-201 0 -201 -168q0 -154 160 -153
q104 -1 170 73v232q-66 16 -129 16z" />
    <glyph glyph-name="ae" unicode="&#xe6;" horiz-adv-x="1544" 
d="M1255 651q0 84 -48 130t-135 46q-173 0 -193 -237h372q4 45 4 61zM1092 1004q176 0 284 -102q106 -102 107 -306q0 -90 -13 -147h-596q0 -268 291 -269q98 0 176 35t97 35q35 0 35 -45v-45q0 -63 -33 -86q-139 -94 -356 -94t-341 135q-150 -127 -370 -127q-139 0 -229 72
q-89 72 -89 222q-1 150 103 238t293 88q90 0 182 -18v18q0 113 -26 156q-27 43 -137 43t-255 -62q-41 -18 -63 -18q-35 0 -35 43v90q0 51 65 82q127 62 334 62t287 -84q113 84 289 84zM504 473q-201 0 -201 -168q0 -154 160 -153q101 0 203 92q-37 98 -43 215
q-68 14 -119 14z" />
    <glyph glyph-name="ccedilla" unicode="&#xe7;" horiz-adv-x="915" 
d="M858 856v-90q0 -49 -35 -49q-14 0 -47 16q-106 55 -219 55t-181 -72t-67 -224q0 -152 68 -225q69 -73 181 -73t218 56q33 16 47 16q35 0 35 -49v-90q0 -47 -51 -80q-104 -63 -254 -67l-8 -62q172 -29 172 -176q-1 -100 -63 -150t-156 -49q-94 0 -183 47q-37 20 -36 48v57
q0 19 11 29t21 5t64 -33t104 -28q82 0 82 67t-90 66q-37 -1 -48 11t-7 36l20 138q-182 30 -281 160t-99 359t125 363q126 134 349 136q174 0 277 -68q51 -35 51 -80z" />
    <glyph glyph-name="egrave" unicode="&#xe8;" horiz-adv-x="976" 
d="M688 651q0 84 -48 130t-135 46q-172 0 -194 -237h373q4 45 4 61zM915 596q0 -90 -12 -147h-596q0 -268 291 -269q98 0 176 35t96 35q35 0 35 -45v-45q0 -63 -33 -86q-139 -94 -359 -94t-339 139t-119 371t120 373q119 141 323 141t310 -102t107 -306zM537 1081
q-33 0 -72 39l-217 215q-16 17 -10 29t24 12h139q37 0 72 -39l195 -215q14 -18 7 -29t-26 -12h-112z" />
    <glyph glyph-name="eacute" unicode="&#xe9;" horiz-adv-x="976" 
d="M688 651q0 84 -48 130t-135 46q-172 0 -194 -237h373q4 45 4 61zM915 596q0 -90 -12 -147h-596q0 -268 291 -269q98 0 176 35t96 35q35 0 35 -45v-45q0 -63 -33 -86q-139 -94 -359 -94t-339 139t-119 371t120 373q119 141 323 141t310 -102t107 -306zM643 1376h139
q18 0 24 -12t-9 -29l-217 -215q-39 -39 -72 -39h-113q-18 -1 -25 11t7 30l194 215q35 39 72 39z" />
    <glyph glyph-name="ecircumflex" unicode="&#xea;" horiz-adv-x="976" 
d="M688 651q0 84 -48 130t-135 46q-172 0 -194 -237h373q4 45 4 61zM915 596q0 -90 -12 -147h-596q0 -268 291 -269q98 0 176 35t96 35q35 0 35 -45v-45q0 -63 -33 -86q-139 -94 -359 -94t-339 139t-119 371t120 373q119 141 323 141t310 -102t107 -306zM690 1081
q-37 0 -72 39l-96 103l-96 -103q-35 -39 -72 -39h-131q-18 1 -23 13t9 28l219 226q39 39 72 38h45q29 0 71 -38l220 -226q14 -16 9 -28t-24 -13h-131z" />
    <glyph glyph-name="edieresis" unicode="&#xeb;" horiz-adv-x="976" 
d="M688 651q0 84 -48 130t-135 46q-172 0 -194 -237h373q4 45 4 61zM915 596q0 -90 -12 -147h-596q0 -268 291 -269q98 0 176 35t96 35q35 0 35 -45v-45q0 -63 -33 -86q-139 -94 -359 -94t-339 139t-119 371t120 373q119 141 323 141t310 -102t107 -306zM690 1300
q47 0 79 -32t32 -77q0 -46 -32 -78t-79 -32t-79 32q-31 32 -31 78t31 78q32 31 79 31zM334 1300q47 0 79 -32q31 -32 31 -77q0 -46 -32 -78t-78 -32q-47 0 -79 32t-32 78q0 45 32 77t79 32z" />
    <glyph glyph-name="igrave" unicode="&#xec;" horiz-adv-x="466" 
d="M360 39q0 -39 -38 -39h-177q-39 0 -39 39v905q0 39 39 39h177q39 0 38 -39v-905zM250 1081q-33 0 -72 39l-219 215q-16 17 -10 29t24 12h142q37 0 71 -39l195 -215q14 -18 7 -29t-26 -12h-112z" />
    <glyph glyph-name="iacute" unicode="&#xed;" horiz-adv-x="466" 
d="M360 39q0 -39 -38 -39h-177q-39 0 -39 39v905q0 39 39 39h177q39 0 38 -39v-905zM358 1376h140q18 0 24 -12t-10 -29l-217 -215q-39 -39 -72 -39h-112q-17 -1 -25 11t6 30l195 215q35 39 71 39z" />
    <glyph glyph-name="icircumflex" unicode="&#xee;" horiz-adv-x="466" 
d="M401 1081q-37 0 -71 39l-97 103l-96 -103q-35 -39 -71 -39h-134q-18 1 -23 13t9 28l221 226q39 39 72 38h45q29 0 72 -38l219 -226q14 -16 9 -28t-24 -13h-131zM360 39q0 -39 -38 -39h-177q-39 0 -39 39v905q0 39 39 39h177q39 0 38 -39v-905z" />
    <glyph glyph-name="idieresis" unicode="&#xef;" horiz-adv-x="466" 
d="M360 39q0 -39 -38 -39h-177q-39 0 -39 39v905q0 39 39 39h177q39 0 38 -39v-905zM410 1300q46 0 78 -32t32 -77q0 -46 -32 -78t-78 -32t-79 32q-32 32 -32 78q0 45 33 77t78 32zM53 1300q45 0 78 -32t33 -77q0 -46 -32 -78t-79 -32t-79 32t-32 78t33 78q33 31 78 31z" />
    <glyph glyph-name="eth" unicode="&#xf0;" horiz-adv-x="1067" 
d="M438 1487q71 0 193 -103l184 97q39 18 39 -23v-65q0 -37 -39 -56l-86 -43q287 -305 287 -770q0 -258 -127 -401t-349 -143t-354 135q-131 135 -131 377t131 376t349 136q96 0 188 -50q-49 135 -172 248l-232 -117q-38 -17 -38 23v66q0 35 38 55l127 63q-32 23 -98 63
t-92 59t-22 46q5 27 28 27h176zM758 492q0 297 -223 296q-225 0 -225 -296t224 -297q224 0 224 297z" />
    <glyph glyph-name="ntilde" unicode="&#xf1;" horiz-adv-x="1056" 
d="M829 1300q0 -227 -167 -227q-68 -1 -140 63t-100 64q-57 0 -57 -76v-12q1 -12 -9 -21t-22 -10h-62q-12 -1 -21 9t-9 22v16q0 229 168 230q47 0 93 -32t82 -64t64 -31q57 0 58 74v12q0 33 30 33h60q33 0 32 -33v-17zM958 39q0 -39 -38 -39h-177q-39 0 -38 39v596
q0 131 -127 131q-106 0 -189 -37l-29 -12v-678q0 -39 -38 -39h-177q-39 0 -39 39v905q0 39 39 39h101q52 -1 82 -31t30 -71q141 115 312 114q289 0 288 -321v-635z" />
    <glyph glyph-name="ograve" unicode="&#xf2;" horiz-adv-x="1067" 
d="M758 492q0 297 -223 296q-225 0 -225 -296t224 -297q224 0 224 297zM1012 492q0 -242 -130 -377t-348 -135t-349 135q-130 135 -130 377t130 376q131 134 349 136q218 0 348 -135t130 -377zM532 1081q-33 0 -71 39l-217 215q-16 16 -11 29q6 12 25 12h139q37 0 72 -39
l195 -215q14 -18 7 -29t-26 -12h-113z" />
    <glyph glyph-name="oacute" unicode="&#xf3;" horiz-adv-x="1067" 
d="M674 1376h139q19 0 25 -12t-11 -29l-217 -215q-39 -39 -71 -39h-113q-18 -1 -25 11t7 30l194 215q35 39 72 39zM758 492q0 297 -223 296q-225 0 -225 -296t224 -297q224 0 224 297zM1012 492q0 -242 -130 -377t-348 -135t-349 135q-130 135 -130 377t130 376
q131 134 349 136q218 0 348 -135t130 -377z" />
    <glyph glyph-name="ocircumflex" unicode="&#xf4;" horiz-adv-x="1067" 
d="M702 1081q-37 0 -71 39l-96 103l-97 -103q-35 -39 -71 -39h-131q-18 1 -24 13t9 28l219 226q39 39 72 38h45q29 0 72 -38l219 -226q14 -16 9 -28t-23 -13h-132zM758 492q0 297 -223 296q-225 0 -225 -296t224 -297q224 0 224 297zM1012 492q0 -242 -130 -377t-348 -135
t-349 135q-130 135 -130 377t130 376q131 134 349 136q218 0 348 -135t130 -377z" />
    <glyph glyph-name="otilde" unicode="&#xf5;" horiz-adv-x="1067" 
d="M825 1300q0 -227 -168 -227q-67 -1 -139 63t-100 64q-57 0 -58 -76v-12q0 -12 -9 -21t-21 -10h-62q-12 -1 -21 9t-9 22v16q0 229 168 230q47 0 93 -32t82 -64t64 -31q57 0 57 74v12q0 33 31 33h60q33 0 32 -33v-17zM758 492q0 297 -223 296q-225 0 -225 -296t224 -297
q224 0 224 297zM1012 492q0 -242 -130 -377t-348 -135t-349 135q-130 135 -130 377t130 376q131 134 349 136q218 0 348 -135t130 -377z" />
    <glyph glyph-name="odieresis" unicode="&#xf6;" horiz-adv-x="1067" 
d="M711 1300q47 0 79 -32t32 -77q0 -46 -32 -78t-79 -32t-79 32t-32 78q0 45 32 77t79 32zM354 1300q47 0 79 -32t32 -77q0 -46 -32 -78t-79 -32t-79 32q-31 32 -31 78t31 78q32 31 79 31zM758 492q0 297 -223 296q-225 0 -225 -296t224 -297q224 0 224 297zM1012 492
q0 -242 -130 -377t-348 -135t-349 135q-130 135 -130 377t130 376q131 134 349 136q218 0 348 -135t130 -377z" />
    <glyph glyph-name="divide" unicode="&#xf7;" horiz-adv-x="997" 
d="M499 418q48 0 82 -34q33 -34 33 -82t-34 -82t-81 -34q-48 0 -82 34t-34 82t34 82t82 34zM938 606q0 -39 -39 -39h-803q-39 0 -39 39v103q0 39 39 39h803q39 0 39 -39v-103zM383 1011q0 47 34 81t82 34t82 -34q33 -34 33 -81q0 -48 -34 -82t-81 -34q-48 0 -82 34t-34 82z
" />
    <glyph glyph-name="oslash" unicode="&#xf8;" horiz-adv-x="1067" 
d="M55 476q0 258 130 392t350 136q129 0 235 -52l29 45q25 39 55 39h33q18 0 25 -11t-3 -28l-61 -96q164 -141 164 -396t-130 -390t-347 -135q-133 0 -240 53l-29 -47q-25 -39 -55 -39h-33q-46 0 -13 52q19 30 54 85q-164 134 -164 392zM350 293l299 467q-51 29 -114 28
q-225 0 -226 -296q0 -127 41 -199zM758 492q0 126 -43 200l-297 -469q51 -29 117 -28q223 0 223 297z" />
    <glyph glyph-name="ugrave" unicode="&#xf9;" horiz-adv-x="1056" 
d="M696 944q0 39 39 39h176q39 0 39 -39v-756q0 -66 45 -65v-25q0 -111 -147 -110q-68 0 -109 32t-41 93v16q-147 -141 -321 -141q-279 0 -279 321v635q0 39 39 39h176q39 0 39 -39v-596q0 -131 127 -131q53 0 117 24t100 56v647zM512 1081q-33 0 -72 39l-217 215
q-16 17 -10 29t25 12h139q37 0 72 -39l194 -215q14 -18 7 -29t-25 -12h-113z" />
    <glyph glyph-name="uacute" unicode="&#xfa;" horiz-adv-x="1056" 
d="M674 1376h139q19 0 25 -12t-11 -29l-217 -215q-39 -39 -71 -39h-113q-18 -1 -25 11t7 30l194 215q35 39 72 39zM696 944q0 39 39 39h176q39 0 39 -39v-756q0 -66 45 -65v-25q0 -111 -147 -110q-68 0 -109 32t-41 93v16q-147 -141 -321 -141q-279 0 -279 321v635
q0 39 39 39h176q39 0 39 -39v-596q0 -131 127 -131q53 0 117 24t100 56v647z" />
    <glyph glyph-name="ucircumflex" unicode="&#xfb;" horiz-adv-x="1056" 
d="M690 1081q-37 0 -72 39l-96 103l-96 -103q-35 -39 -72 -39h-131q-18 1 -23 13t9 28l219 226q39 39 72 38h45q29 0 71 -38l220 -226q14 -16 9 -28t-24 -13h-131zM696 944q0 39 39 39h176q39 0 39 -39v-756q0 -66 45 -65v-25q0 -111 -147 -110q-68 0 -109 32t-41 93v16
q-147 -141 -321 -141q-279 0 -279 321v635q0 39 39 39h176q39 0 39 -39v-596q0 -131 127 -131q53 0 117 24t100 56v647z" />
    <glyph glyph-name="udieresis" unicode="&#xfc;" horiz-adv-x="1056" 
d="M700 1300q45 0 78 -32t33 -77q0 -46 -32 -78t-79 -32q-46 0 -78 32t-32 78q0 45 32 77t78 32zM344 1300q45 0 78 -32t33 -77q0 -46 -32 -78t-79 -32t-79 32t-32 78q0 45 33 77t78 32zM696 944q0 39 39 39h176q39 0 39 -39v-756q0 -66 45 -65v-25q0 -111 -147 -110
q-68 0 -109 32t-41 93v16q-147 -141 -321 -141q-279 0 -279 321v635q0 39 39 39h176q39 0 39 -39v-596q0 -131 127 -131q53 0 117 24t100 56v647z" />
    <glyph glyph-name="yacute" unicode="&#xfd;" horiz-adv-x="1056" 
d="M655 1376h140q18 0 24 -12t-10 -29l-217 -215q-39 -39 -72 -39h-112q-18 -1 -26 11t7 30l195 215q35 39 71 39zM950 45q0 -502 -495 -502q-88 1 -168 19t-80 59v131q0 37 33 37q14 0 64 -17t136 -18q143 0 200 69q56 69 56 220v57q-150 -113 -309 -112q-289 0 -289 321
v635q0 39 39 39h176q39 0 39 -39v-606q0 -131 127 -131q106 0 189 37l28 12v688q0 39 39 39h176q39 0 39 -39v-899z" />
    <glyph glyph-name="thorn" unicode="&#xfe;" horiz-adv-x="1087" 
d="M106 1427q0 39 39 39h177q39 0 38 -39v-546q88 117 272 117t292 -132q108 -130 108 -374t-108 -375t-291 -131q-182 0 -273 120v-509q0 -39 -38 -39h-177q-39 0 -39 39v1830zM778 492q0 297 -209 296q-133 0 -209 -112v-369q76 -113 209 -112q209 0 209 297z" />
    <glyph glyph-name="ydieresis" unicode="&#xff;" horiz-adv-x="1056" 
d="M700 1300q45 0 78 -32t33 -77q0 -46 -32 -78t-79 -32q-46 0 -78 32t-32 78q0 45 32 77t78 32zM344 1300q45 0 78 -32t33 -77q0 -46 -32 -78t-79 -32t-79 32t-32 78q0 45 33 77t78 32zM950 45q0 -502 -495 -502q-88 1 -168 19t-80 59v131q0 37 33 37q14 0 64 -17t136 -18
q143 0 200 69q56 69 56 220v57q-150 -113 -309 -112q-289 0 -289 321v635q0 39 39 39h176q39 0 39 -39v-606q0 -131 127 -131q106 0 189 37l28 12v688q0 39 39 39h176q39 0 39 -39v-899z" />
    <glyph glyph-name="dotlessi" unicode="&#x131;" horiz-adv-x="466" 
d="M360 39q0 -39 -38 -39h-177q-39 0 -39 39v905q0 39 39 39h177q39 0 38 -39v-905z" />
    <glyph glyph-name="Lslash" unicode="&#x141;" horiz-adv-x="872" 
d="M379 225h442q39 0 39 -39v-147q0 -39 -39 -39h-661q-39 0 -39 39v473l-41 -20q-39 -17 -39 22v64q0 37 39 55l41 20v621q0 39 39 39h180q39 0 39 -39v-490l113 58q39 18 38 -23v-63q0 -35 -38 -56l-113 -57v-418z" />
    <glyph glyph-name="lslash" unicode="&#x142;" horiz-adv-x="466" 
d="M360 39q0 -39 -38 -39h-177q-39 0 -39 39v559l-59 -31q-39 -18 -39 23v63q0 35 39 56l59 30v688q0 39 39 39h177q39 0 38 -39v-559l58 29q37 16 39 -23v-63q0 -37 -39 -55l-58 -29v-688z" />
    <glyph glyph-name="OE" unicode="&#x152;" horiz-adv-x="1605" 
d="M1503 1313q39 0 39 -39v-148q0 -39 -39 -39h-442v-284h346q39 0 39 -39v-148q0 -39 -39 -38h-346v-353h459q39 0 39 -39v-147q0 -39 -39 -39h-908q-248 0 -404 158t-157 509q0 351 168 504q154 142 393 142h891zM311 659q0 -438 320 -438h172v871h-172q-154 0 -237 -101
t-83 -332z" />
    <glyph glyph-name="oe" unicode="&#x153;" horiz-adv-x="1673" 
d="M1384 651q0 84 -48 130t-135 46q-173 0 -193 -237h372q4 45 4 61zM758 492q0 297 -223 296q-225 0 -225 -296t224 -297q224 0 224 297zM534 -20q-218 0 -349 135q-130 135 -130 377t130 376q131 134 349 136q218 0 345 -132q125 132 322 132t303 -102t108 -306
q0 -90 -13 -147h-595q0 -268 290 -269q98 0 176 35t97 35q35 0 35 -45v-45q0 -63 -33 -86q-139 -94 -353 -94t-339 131q-125 -131 -343 -131z" />
    <glyph glyph-name="Scaron" unicode="&#x160;" horiz-adv-x="976" 
d="M512 1399h-45q-37 0 -72 39l-219 225q-14 17 -9 29t23 12h132q37 0 71 -39l96 -102l97 102q35 39 71 39h131q18 0 24 -12q5 -13 -9 -29l-219 -225q-35 -39 -72 -39zM915 374q0 -186 -127 -290q-128 -104 -330 -104t-339 90q-61 41 -62 98v117q0 53 45 53q25 0 58 -23
q154 -102 291 -102q80 0 134 39t54 122t-51 124t-158 69q-352 92 -352 387q0 182 120 280t296 99q176 0 325 -82q59 -35 60 -92v-121q0 -51 -43 -51q-24 1 -42 13t-44 31t-42 29q-77 48 -180 48q-174 0 -174 -154q0 -66 46 -104t139 -62q184 -49 280 -139t96 -275z" />
    <glyph glyph-name="scaron" unicode="&#x161;" horiz-adv-x="811" 
d="M428 1081h-45q-37 0 -72 39l-219 226q-14 16 -9 28t23 12h132q37 0 71 -38l97 -103l96 103q35 39 71 38h132q18 0 23 -12t-9 -28l-219 -226q-35 -39 -72 -39zM309 711q1 -82 145 -112q144 -31 225 -97t81 -212t-104 -229q-104 -81 -270 -81q-165 0 -286 73q-51 29 -51 78
v102q0 45 35 46q18 0 45 -15q143 -78 238 -78q143 0 143 101q0 53 -35 81t-115 44q-297 59 -297 288q1 140 101 222t249 82t263 -68q53 -33 53 -78v-98q0 -45 -37 -45q-20 0 -34 8t-36 23q-24 15 -53 32q-50 29 -133 29q-127 0 -127 -96z" />
    <glyph glyph-name="Ydieresis" unicode="&#x178;" horiz-adv-x="1032" 
d="M692 1618q45 0 78 -33t33 -78t-32 -77t-79 -31q-47 0 -79 32q-31 33 -31 77t32 77q33 33 78 33zM336 1618q45 0 78 -33q32 -33 32 -78t-32 -77t-78 -31q-47 0 -79 32q-32 33 -32 77t33 77t78 33zM1001 1313q39 -1 39 -41q0 -20 -28 -72l-367 -715v-446q0 -39 -39 -39
h-180q-39 0 -39 39v446l-367 715q-28 52 -28 72q1 40 39 41h170q37 0 55 -35l174 -356q74 -152 74 -172t12 -21q12 0 12 23t74 170l174 356q18 35 55 35h170z" />
    <glyph glyph-name="Zcaron" unicode="&#x17d;" horiz-adv-x="929" 
d="M489 1399h-45q-37 0 -71 39l-219 225q-14 16 -10 29q5 12 24 12h131q37 0 72 -39l96 -102l96 102q35 39 72 39h131q18 0 24 -12q4 -13 -10 -29l-219 -225q-35 -39 -72 -39zM891 39q0 -39 -39 -39h-772q-37 0 -37 37v94q0 45 25 88l489 868h-467q-39 0 -39 39v148
q0 39 39 39h744q37 0 36 -37v-94q0 -45 -24 -88l-490 -869h496q39 0 39 -39v-147z" />
    <glyph glyph-name="zcaron" unicode="&#x17e;" horiz-adv-x="849" 
d="M451 1081h-45q-37 0 -72 39l-219 226q-14 16 -10 28q5 12 24 12h131q37 0 72 -38l96 -103l96 103q35 39 72 38h131q18 0 23 -12t-9 -28l-219 -226q-35 -39 -71 -39zM811 37q0 -37 -37 -37h-696q-35 0 -35 35v84q0 37 29 78l426 577h-398q-16 0 -27 11t-12 28v133
q1 16 11 26t26 11h660q37 0 37 -35v-84q0 -37 -31 -78l-424 -577h432q39 0 39 -39v-133z" />
    <glyph glyph-name="florin" unicode="&#x192;" horiz-adv-x="591" 
d="M563 854q15 0 27 -11t10 -28l-10 -88q-4 -39 -41 -39h-166l-80 -848q-12 -150 -93 -222t-208 -73q-66 0 -113 22t-45 52l11 100q4 33 34 33q12 0 36 -11q23 -11 53 -11q66 0 77 116l80 842h-86q-16 0 -27 11t-10 28l8 88q4 39 43 39h87l34 363q12 129 100 199t230 71
q82 0 131 -17q35 -10 31 -43l-12 -112q-4 -31 -33 -31l-103 19q-90 0 -100 -103l-31 -346h166z" />
    <glyph glyph-name="circumflex" unicode="&#x2c6;" horiz-adv-x="819" 
d="M578 1081q-37 0 -72 39l-96 103l-97 -103q-35 -39 -71 -39h-131q-17 1 -23 13t8 28l219 226q39 39 72 38h45q29 0 72 -38l219 -226q14 -16 9 -28t-23 -13h-131z" />
    <glyph glyph-name="caron" unicode="&#x2c7;" horiz-adv-x="819" 
d="M432 1081h-45q-37 0 -72 39l-219 226q-14 16 -9 28t24 12h131q37 0 71 -38l97 -103l96 103q35 39 72 38h131q18 0 23 -12t-9 -28l-219 -226q-35 -39 -72 -39z" />
    <glyph glyph-name="breve" unicode="&#x2d8;" horiz-adv-x="819" 
d="M692 1339q0 -131 -76 -194t-200 -63t-201 62q-76 64 -76 195v11q0 39 39 39h70q39 0 39 -39v-11q0 -115 129 -115t129 115v11q0 39 39 39h69q39 0 39 -39v-11z" />
    <glyph glyph-name="dotaccent" unicode="&#x2d9;" horiz-adv-x="819" 
d="M416 1331q51 0 88 -37t37 -88t-37 -88t-88 -37t-88 37t-37 88t37 88t88 37z" />
    <glyph glyph-name="ring" unicode="&#x2da;" horiz-adv-x="819" 
d="M526 1287q0 48 -34 83q-35 35 -82 35t-82 -35t-35 -83t35 -82t82 -34t82 34q34 34 34 82zM635 1287q0 -93 -66 -160q-65 -67 -159 -67t-161 68q-67 66 -67 159t67 160t161 67t160 -68q66 -66 65 -159z" />
    <glyph glyph-name="ogonek" unicode="&#x2db;" horiz-adv-x="819" 
d="M610 -223q0 -23 -30 -45q-70 -51 -153 -51t-138 48t-55 125q0 78 56 150q58 72 146 109l84 -47q-135 -80 -135 -164q0 -34 22 -54q21 -20 61 -20t110 47q14 8 23 2t9 -22v-78z" />
    <glyph glyph-name="tilde" unicode="&#x2dc;" horiz-adv-x="819" 
d="M702 1300q0 -227 -167 -227q-68 -1 -140 63t-100 64q-57 0 -57 -76v-12q0 -12 -10 -21t-21 -10h-62q-12 -1 -21 9t-9 22v16q0 229 168 230q47 0 93 -32t82 -64t64 -31q57 0 58 74v12q0 33 30 33h60q33 0 32 -33v-17z" />
    <glyph glyph-name="hungarumlaut" unicode="&#x2dd;" horiz-adv-x="819" 
d="M158 1081h-103q-18 -1 -25 11t7 30l194 215q35 39 72 39h129q18 0 25 -12q5 -13 -11 -29l-217 -215q-39 -39 -71 -39zM489 1081h-102q-17 -1 -25 11t7 30l196 215q35 39 72 39h127q18 0 24 -12t-10 -29l-217 -215q-39 -39 -72 -39z" />
    <glyph glyph-name="pi" unicode="&#x3c0;" horiz-adv-x="1075" 
d="M1038 834q0 -39 -39 -39h-61v-551q0 -52 12 -66t44 -14t32 -23v-92q0 -39 -35 -51q-51 -10 -90 -10q-117 0 -164 58t-47 185v564h-309v-756q0 -39 -39 -39h-170q-39 0 -39 39v756h-61q-39 0 -39 39v110q0 39 39 39h927q39 0 39 -39v-110z" />
    <glyph glyph-name="endash" unicode="&#x2013;" horiz-adv-x="1140" 
d="M1071 537q0 -39 -39 -39h-923q-39 0 -39 39v77q0 39 39 39h923q39 0 39 -39v-77z" />
    <glyph glyph-name="emdash" unicode="&#x2014;" horiz-adv-x="1230" 
d="M1235 537q0 -39 -39 -39h-1161q-39 0 -39 39v77q0 39 39 39h1161q39 0 39 -39v-77z" />
    <glyph glyph-name="quoteleft" unicode="&#x2018;" horiz-adv-x="403" 
d="M328 1325q16 0 22 -11t-4 -32q-88 -158 -98 -260q36 -12 62 -51t26 -86t-39 -86t-96 -39t-98 44q-40 44 -40 116q0 168 154 374q20 31 43 31h68z" />
    <glyph glyph-name="quoteright" unicode="&#x2019;" horiz-adv-x="403" 
d="M340 1167q0 -168 -154 -374q-23 -31 -43 -31h-69q-16 0 -23 11q-6 11 4 32q90 156 99 260q-35 12 -61 50q-25 38 -25 86t37 87q39 39 97 39t98 -45t40 -115z" />
    <glyph glyph-name="quotesinglbase" unicode="&#x201a;" horiz-adv-x="403" 
d="M340 104q0 -168 -154 -374q-23 -31 -43 -31h-69q-16 0 -23 11q-6 11 4 32q90 158 99 260q-35 12 -61 50q-25 38 -25 86t37 86q39 38 97 38t98 -44t40 -114z" />
    <glyph glyph-name="quotedblleft" unicode="&#x201c;" horiz-adv-x="759" 
d="M328 1325q16 0 22 -11t-4 -32q-88 -158 -98 -260q36 -12 62 -51t26 -86t-39 -86t-96 -39t-98 44q-40 44 -40 116q0 168 154 374q20 31 43 31h68zM684 1325q16 0 22 -11t-4 -32q-88 -158 -98 -260q35 -12 62 -51q26 -39 26 -86t-39 -86t-96 -39t-97 44t-40 116
q0 168 153 374q20 31 43 31h68z" />
    <glyph glyph-name="quotedblright" unicode="&#x201d;" horiz-adv-x="759" 
d="M340 1167q0 -168 -154 -374q-23 -31 -43 -31h-69q-16 0 -23 11q-6 11 4 32q90 156 99 260q-35 12 -61 50q-25 38 -25 86t37 87q39 39 97 39t98 -45t40 -115zM696 1167q0 -168 -153 -374q-23 -31 -43 -31h-68q-16 0 -22 11t4 32q88 158 98 260q-36 12 -62 50t-26 86t39 87
t96 39t97 -45t40 -115z" />
    <glyph glyph-name="quotedblbase" unicode="&#x201e;" horiz-adv-x="759" 
d="M340 104q0 -168 -154 -374q-23 -31 -43 -31h-69q-16 0 -23 11q-6 11 4 32q90 158 99 260q-35 12 -61 50q-25 38 -25 86t37 86q39 38 97 38t98 -44t40 -114zM696 104q0 -168 -153 -374q-23 -31 -43 -31h-68q-16 0 -22 11t4 32q88 158 98 260q-36 12 -62 50t-26 86t39 86
t96 38t97 -44t40 -114z" />
    <glyph glyph-name="dagger" unicode="&#x2020;" horiz-adv-x="655" 
d="M645 860q0 -39 -39 -39h-196v-1153q0 -39 -39 -39h-86q-39 0 -39 39v1153h-197q-39 0 -39 39v86q0 39 39 39h197v463q0 39 39 39h86q39 0 39 -39v-463h196q39 0 39 -39v-86z" />
    <glyph glyph-name="daggerdbl" unicode="&#x2021;" horiz-adv-x="655" 
d="M645 170q0 -39 -39 -39h-196v-463q0 -39 -39 -39h-86q-39 0 -39 39v463h-197q-39 0 -39 39v86q0 39 39 39h197v526h-197q-39 0 -39 39v86q0 39 39 39h197v463q0 39 39 39h86q39 0 39 -39v-463h196q39 0 39 -39v-86q0 -39 -39 -39h-196v-526h196q39 0 39 -39v-86z" />
    <glyph glyph-name="bullet" unicode="&#x2022;" horiz-adv-x="614" 
d="M307 811q96 0 166 -70t70 -167q0 -98 -70 -166t-166 -68t-166 69q-69 69 -69 165t69 167q70 70 166 70z" />
    <glyph glyph-name="ellipsis" unicode="&#x2026;" horiz-adv-x="1345" 
d="M1121 266q57 0 99 -41t42 -99t-41 -99t-99 -41t-99 42q-42 42 -42 99t41 98t99 41zM813 126q0 -58 -41 -99t-99 -41t-100 42q-41 42 -41 99t41 98t101 41t99 -41q40 -41 40 -99zM224 266q58 0 100 -41t41 -99q0 -58 -41 -99q-40 -41 -98 -41t-100 42t-42 99t41 98t99 41z
" />
    <glyph glyph-name="perthousand" unicode="&#x2030;" horiz-adv-x="1869" 
d="M1055 302q0 89 -24 131t-81 42t-81 -43t-23 -131q0 -174 104 -174q57 0 81 43t24 132zM1221 302q0 -155 -75 -239q-75 -83 -195 -83q-119 0 -195 84t-76 237q0 154 76 238t196 84t194 -83q75 -83 75 -238zM420 1013q0 89 -24 131t-81 42t-81 -43t-23 -131
q0 -174 104 -174q57 0 81 43t24 132zM45 1012q0 154 76 238q75 84 195 83t195 -83t75 -237t-75 -239t-195 -84t-196 84t-75 238zM1659 302q0 89 -24 131t-81 42q-56 0 -80 -43t-24 -131q0 -174 104 -174q57 0 81 43t24 132zM1825 302q0 -155 -75 -239q-75 -83 -195 -83
q-119 0 -195 84t-76 237q0 154 76 238t196 84t194 -83q75 -83 75 -238zM297 0q-18 0 -27 11q-8 11 0 28l576 1235q18 39 51 39h72q18 0 26 -11t0 -28l-575 -1235q-18 -39 -51 -39h-72z" />
    <glyph glyph-name="guilsinglleft" unicode="&#x2039;" horiz-adv-x="532" 
d="M487 168q0 -18 -12 -24t-29 10l-372 348q-39 39 -39 71v7q0 33 39 71l372 348q16 16 29 11q12 -6 12 -25v-125q0 -33 -38 -72l-232 -213l232 -213q39 -35 38 -69v-125z" />
    <glyph glyph-name="guilsinglright" unicode="&#x203a;" horiz-adv-x="532" 
d="M498 573q0 -37 -39 -71l-373 -348q-16 -16 -29 -11q-12 6 -12 25v125q0 35 39 69l233 213l-233 213q-39 39 -39 72v125q0 19 12 25t29 -11l373 -348q39 -35 39 -71v-7z" />
    <glyph glyph-name="fraction" unicode="&#x2044;" horiz-adv-x="229" 
d="M-221 0q-18 0 -27 11q-8 11 0 28l576 1235q18 39 51 39h72q18 0 26 -11t0 -28l-575 -1235q-18 -39 -52 -39h-71z" />
    <glyph glyph-name="zerosuperior" unicode="&#x2070;" horiz-adv-x="706" 
d="M353 1425q-56 0 -83 -54q-26 -54 -26 -208t26 -207t84 -53q57 0 83 52t26 208t-27 209t-83 53zM73 1164q0 406 280 407q280 0 280 -407t-281 -406q-279 0 -279 406z" />
    <glyph glyph-name="foursuperior" unicode="&#x2074;" horiz-adv-x="671" 
d="M485 1247q25 0 25 -24v-142h74q23 0 22 -22v-92q0 -23 -22 -23h-74v-151q0 -23 -25 -23h-118q-23 0 -23 23v151h-268q-20 0 -21 21v61q0 25 13 53l208 457q10 23 27 23h129q23 0 23 -23q0 -12 -17 -49l-198 -406h127l41 144q6 23 26 22h51z" />
    <glyph glyph-name="fivesuperior" unicode="&#x2075;" horiz-adv-x="645" 
d="M580 1018q0 -260 -285 -260q-115 0 -182 47q-31 23 -31 47v63q0 35 24 35q4 0 64 -26t117 -25q125 0 125 120t-115 120q-53 1 -79 -23t-52 -24h-60q-23 0 -22 22v420q0 25 22 25h431q25 0 24 -25v-98q0 -25 -24 -25h-285v-162q51 18 92 19q112 0 174 -64t62 -186z" />
    <glyph glyph-name="sixsuperior" unicode="&#x2076;" horiz-adv-x="704" 
d="M246 1030q0 -141 112 -141t113 141q0 141 -109 141q-52 1 -84 -35t-32 -106zM404 1296q104 0 166 -68t63 -197q0 -130 -72 -202q-72 -71 -205 -71q-134 0 -206 92t-72 262q0 254 93 356t228 103q84 0 162 -35q35 -14 35 -57v-62q0 -33 -25 -33q-14 0 -22 5l-29 14
q-52 25 -115 26t-108 -47t-49 -149q52 63 156 63z" />
    <glyph glyph-name="sevensuperior" unicode="&#x2077;" horiz-adv-x="612" 
d="M545 1473q0 -29 -13 -62l-231 -620q-6 -20 -29 -21h-131q-23 0 -22 23q0 14 12 49l227 569h-272q-23 0 -23 25v98q0 25 23 25h436q23 0 23 -23v-63z" />
    <glyph glyph-name="eightsuperior" unicode="&#x2078;" horiz-adv-x="712" 
d="M477 1001q0 51 -32 81t-88 30t-89 -30q-32 -30 -32 -81t32 -81t89 -29q56 -1 88 29t32 81zM469 1335q0 47 -30 75t-82 28t-82 -28q-29 -28 -29 -75t30 -75t81 -27q52 -1 82 27t30 75zM641 1003q0 -119 -77 -182t-207 -63q-129 0 -207 64t-78 182q0 116 100 174
q-84 52 -84 160t72 170t196 62t198 -62q73 -64 73 -172t-86 -158q100 -56 100 -175z" />
    <glyph glyph-name="ninesuperior" unicode="&#x2079;" horiz-adv-x="704" 
d="M459 1298q0 139 -113 140q-113 0 -113 -140t109 -141q51 -1 84 35t33 106zM627 1214q0 -254 -92 -355t-228 -101q-94 0 -164 35q-35 16 -34 55v61q0 35 26 35q11 0 37 -13t52 -23t83 -9q56 0 101 47t49 148q-53 -61 -144 -62q-242 0 -241 264q0 129 71 202q72 73 205 73
q133 1 206 -93t73 -264z" />
    <glyph glyph-name="zeroinferior" unicode="&#x2080;" horiz-adv-x="706" 
d="M353 410q-56 0 -83 -54q-26 -54 -26 -209t26 -207t84 -52q57 0 83 52t26 208t-27 208q-27 54 -83 54zM73 148q0 406 280 407q280 0 280 -407t-281 -406q-279 0 -279 406z" />
    <glyph glyph-name="oneinferior" unicode="&#x2081;" horiz-adv-x="401" 
d="M291 -223q0 -23 -25 -23h-119q-23 0 -22 23v563h-47q-23 0 -23 22v60q0 25 23 24h10q72 0 72 64v8q0 25 24 25h82q25 0 25 -25v-741z" />
    <glyph glyph-name="twoinferior" unicode="&#x2082;" horiz-adv-x="620" 
d="M296 555q110 0 182 -59t71 -172q0 -113 -80 -213t-205 -211h258q25 0 25 -23v-100q0 -23 -25 -23h-440q-23 0 -23 23v63q0 33 22 63t161 175q68 74 98 125q31 51 31 104t-30 80t-74 27t-66 -10q-23 -10 -29 -14t-36 -26t-48 -22q-27 0 -27 33v71q0 35 37 58q88 51 198 51
z" />
    <glyph glyph-name="threeinferior" unicode="&#x2083;" horiz-adv-x="636" 
d="M565 -23q0 -115 -77 -175q-76 -60 -202 -60t-200 57q-35 27 -35 58v67q0 35 25 35q12 0 37 -16q86 -59 166 -60q115 0 114 109q0 51 -31 80t-88 28h-61q-23 0 -23 23v70q0 23 23 22h57q109 0 109 102q0 96 -103 97q-52 0 -74 -12q-21 -12 -37 -19q-16 -8 -41 -24
q-24 -17 -34 -17q-27 0 -27 33v71q0 35 37 58q86 51 204 51t182 -61t65 -171q0 -110 -94 -161q47 -25 78 -75q30 -51 30 -110z" />
    <glyph glyph-name="fourinferior" unicode="&#x2084;" horiz-adv-x="671" 
d="M485 231q25 0 25 -24v-141h74q23 0 22 -23v-92q0 -23 -22 -23h-74v-151q0 -23 -25 -23h-118q-23 0 -23 23v151h-268q-20 0 -21 21v61q0 25 13 53l208 457q10 23 27 23h129q23 0 23 -23q0 -12 -17 -49l-198 -405h127l41 143q6 23 26 22h51z" />
    <glyph glyph-name="fiveinferior" unicode="&#x2085;" horiz-adv-x="645" 
d="M580 2q0 -260 -285 -260q-115 0 -182 47q-31 23 -31 47v64q0 35 24 34q4 0 64 -26t117 -25q125 0 125 120t-115 120q-53 1 -79 -23t-52 -24h-60q-23 0 -22 22v420q0 25 22 25h431q25 0 24 -25v-98q0 -25 -24 -25h-285v-162q51 18 92 19q112 0 174 -64t62 -186z" />
    <glyph glyph-name="sixinferior" unicode="&#x2086;" horiz-adv-x="704" 
d="M246 14q0 -141 112 -141t113 141q0 141 -109 142q-52 0 -84 -36t-32 -106zM633 15q0 -129 -72 -201t-205 -72q-134 0 -206 92t-72 262q0 254 93 356t228 103q84 0 162 -35q35 -14 35 -57v-62q0 -33 -25 -32q-14 0 -22 4l-29 14q-56 27 -117 27t-106 -48t-49 -149
q52 63 156 63t166 -67q62 -68 63 -198z" />
    <glyph glyph-name="seveninferior" unicode="&#x2087;" horiz-adv-x="612" 
d="M545 457q0 -29 -13 -62l-231 -620q-6 -20 -29 -21h-131q-23 0 -22 23q0 14 12 49l227 569h-272q-23 0 -23 25v98q0 25 23 25h436q23 0 23 -23v-63z" />
    <glyph glyph-name="eightinferior" unicode="&#x2088;" horiz-adv-x="712" 
d="M477 -14q0 51 -32 81q-32 29 -88 29t-89 -30q-32 -30 -32 -80q0 -51 32 -81t89 -30q56 0 88 30t32 81zM469 319q0 47 -30 75t-82 28t-82 -28q-29 -28 -29 -75t30 -75t81 -27q52 -1 82 27t30 75zM641 -12q0 -118 -77 -182t-207 -64q-129 0 -207 64t-78 182q0 117 100 174
q-84 51 -84 160t72 171t196 62t198 -63q73 -63 73 -171t-86 -159q100 -55 100 -174z" />
    <glyph glyph-name="nineinferior" unicode="&#x2089;" horiz-adv-x="704" 
d="M459 283q0 139 -113 139t-113 -140t109 -141q51 0 84 36t33 106zM627 199q0 -253 -92 -355t-228 -102q-94 0 -164 35q-35 16 -34 55v62q0 35 26 34q11 0 56 -22t109 -23q64 0 108 47q45 47 49 148q-53 -61 -144 -62q-242 0 -241 265q0 129 72 201t204 73q133 0 206 -93
t73 -263z" />
    <glyph glyph-name="Euro" unicode="&#x20ac;" horiz-adv-x="1079" 
d="M385 655v-53h385q39 0 39 -39v-49q0 -39 -39 -39h-369q59 -270 304 -270q135 0 253 74q27 16 46 16q35 0 34 -39v-137q0 -33 -51 -70q-100 -69 -310 -69t-358 118q-147 119 -186 377h-72q-39 0 -38 39v49q0 39 38 39h60v107h-60q-39 0 -38 39v49q0 39 38 39h72
q39 258 186 378t355 119q208 0 313 -69q51 -35 51 -70v-137q0 -39 -34 -39q-18 0 -46 16q-119 74 -253 74q-244 0 -304 -272h369q39 0 39 -39v-49q0 -39 -39 -39h-383q-2 -18 -2 -54z" />
    <glyph glyph-name="trademark" unicode="&#x2122;" horiz-adv-x="1341" 
d="M541 1192q0 -18 -21 -18h-162v-498q0 -20 -18 -21h-133q-18 0 -19 21v498h-161q-20 0 -21 18v100q0 20 21 21h493q20 0 21 -21v-100zM1122 676v420q-4 0 -8 -20t-24 -58l-93 -193q-8 -16 -20 -16h-66q-12 0 -20 16l-92 193q-21 43 -25 60t-8 18q-2 0 -1 -12t1 -66v-342
q0 -20 -18 -21h-113q-20 0 -21 21v616q0 20 21 21h129q12 0 20 -17l129 -264q27 -53 27 -62t4 -9t4 9t27 62l129 264q8 16 20 17h131q18 0 19 -21v-616q0 -20 -19 -21h-112q-20 0 -21 21z" />
    <glyph glyph-name="Omega" unicode="&#x2126;" horiz-adv-x="1134" 
d="M567 1333q240 -1 374 -151t134 -412q-1 -166 -65 -290t-166 -181v-106h164q39 0 39 -39v-115q0 -39 -39 -39h-320q-39 0 -39 39v295q0 18 35 49q131 125 131 379q0 176 -55 274t-193 99q-250 0 -250 -373q0 -248 132 -379q35 -31 34 -49v-295q0 -39 -39 -39h-319
q-39 0 -39 39v115q0 39 39 39h164v106q-100 57 -166 182t-66 289q0 262 135 412t375 151z" />
    <glyph glyph-name="onethird" unicode="&#x2153;" horiz-adv-x="1294" 
d="M291 547q0 -23 -25 -23h-119q-23 0 -22 23v563h-47q-23 0 -23 23v59q0 25 23 25h10q72 0 72 63v8q0 25 24 25h82q25 0 25 -25v-741zM207 0q-18 0 -27 11q-8 11 0 28l576 1235q18 39 51 39h72q18 0 26 -11t0 -28l-575 -1235q-18 -39 -51 -39h-72zM1227 223
q0 -115 -77 -175t-203 -60t-199 57q-35 27 -35 57v68q0 35 24 35q12 0 37 -17q86 -59 166 -59q115 0 115 109q0 52 -31 80t-88 28h-62q-23 0 -22 23v69q0 23 22 23h58q109 0 108 102q0 96 -102 96q-50 0 -73 -11t-33 -16q-10 -4 -39 -24q-28 -20 -41 -20q-27 0 -27 33v71
q0 35 37 58q86 51 204 51q118 1 182 -61t64 -172t-94 -160q47 -26 78 -76t31 -109z" />
    <glyph glyph-name="twothirds" unicode="&#x2154;" horiz-adv-x="1499" 
d="M412 0q-18 0 -27 11q-8 11 0 28l576 1235q18 39 51 39h71q19 0 27 -11t0 -28l-575 -1235q-18 -39 -52 -39h-71zM296 1325q110 0 182 -59t71 -172q0 -113 -80 -213t-205 -211h258q25 0 25 -23v-100q0 -23 -25 -23h-440q-23 0 -23 23v63q0 33 22 63t161 175q68 74 98 125
q31 51 31 104t-30 80t-74 27t-66 -10q-23 -10 -29 -14q-6 -3 -35 -24t-49 -24q-27 0 -27 33v72q0 35 37 57q88 51 198 51zM1432 223q0 -115 -77 -175t-203 -60t-200 57q-35 27 -34 57v68q0 35 24 35q12 0 37 -17q86 -59 166 -59q115 0 115 109q0 52 -31 80t-88 28h-62
q-23 0 -22 23v69q0 23 22 23h58q109 0 108 102q0 96 -102 96q-50 0 -73 -11q-24 -11 -34 -16q-10 -4 -38 -24t-42 -20q-27 0 -26 33v71q0 35 37 58q85 51 203 51q118 1 183 -61t65 -172t-95 -160q47 -26 78 -76t31 -109z" />
    <glyph glyph-name="oneeighth" unicode="&#x215b;" horiz-adv-x="1312" 
d="M1081 231q0 51 -31 81q-32 30 -88 30t-90 -30t-32 -81q0 -51 32 -81t90 -29q56 -1 88 29t31 81zM1073 565q0 47 -30 75q-29 28 -81 28t-82 -28t-30 -75t30 -75t82 -28t82 28t29 75zM1245 233q0 -119 -77 -182q-76 -63 -206 -63t-208 64t-78 182q0 116 100 174
q-84 52 -84 160t72 170t197 62t197 -62q72 -64 73 -172q0 -108 -86 -158q100 -56 100 -175zM291 547q0 -23 -25 -23h-119q-23 0 -22 23v563h-47q-23 0 -23 23v59q0 25 23 25h10q72 0 72 63v8q0 25 24 25h82q25 0 25 -25v-741zM207 0q-18 0 -27 11q-8 11 0 28l576 1235
q18 39 51 39h72q18 0 26 -11t0 -28l-575 -1235q-18 -39 -51 -39h-72z" />
    <glyph glyph-name="threeeighths" unicode="&#x215c;" horiz-adv-x="1474" 
d="M1235 565q0 47 -30 75t-82 28t-82 -28q-29 -28 -29 -75t30 -75t81 -28q52 0 82 28t30 75zM1243 231q0 51 -32 81t-88 30t-89 -30t-33 -81t33 -81t89 -29q56 -1 88 29t32 81zM369 0q-18 0 -27 11q-8 11 0 28l576 1235q18 39 51 39h71q18 0 26 -11t1 -28l-575 -1235
q-18 -39 -52 -39h-71zM565 748q0 -116 -77 -176q-76 -60 -202 -60t-200 57q-35 27 -35 58v67q0 35 25 35q12 0 37 -16q86 -59 166 -60q115 0 114 109q0 51 -31 80t-88 28h-61q-23 0 -23 23v70q0 23 23 22h57q109 0 109 102q0 96 -103 97q-52 0 -74 -12q-21 -12 -37 -19
q-16 -8 -41 -24q-24 -17 -34 -17q-27 0 -27 33v72q0 35 37 57q88 51 205 51t181 -61t65 -171q0 -110 -94 -161q47 -25 77 -75t31 -109zM1407 233q0 -119 -77 -182t-207 -63t-208 64q-77 64 -77 182q0 116 100 174q-84 52 -84 160t72 170t196 62t198 -62q73 -64 73 -172
t-86 -158q100 -56 100 -175z" />
    <glyph glyph-name="fiveeighths" unicode="&#x215d;" horiz-adv-x="1484" 
d="M580 772q0 -260 -285 -260q-115 0 -182 47q-31 23 -31 47v64q0 35 24 35q4 0 64 -26t117 -26q125 0 125 120t-115 120q-45 1 -80 -23t-51 -24h-60q-23 0 -22 22v420q0 25 22 25h431q25 0 24 -25v-98q0 -25 -24 -25h-285v-161q51 18 92 18q112 0 174 -64t62 -186z
M1253 231q0 51 -31 81q-32 30 -88 30t-90 -30t-32 -81q0 -51 32 -81t90 -29q56 -1 88 29t31 81zM1245 565q0 47 -30 75q-29 28 -81 28t-82 -28t-30 -75t30 -75t82 -28t82 28t29 75zM1417 233q0 -119 -77 -182q-76 -63 -206 -63t-208 64t-78 182q0 116 100 174
q-84 52 -84 160t72 170t197 62t197 -62q72 -64 73 -172q0 -108 -86 -158q100 -56 100 -175zM379 0q-18 0 -27 11q-8 11 0 28l576 1235q18 39 51 39h72q18 0 26 -11t0 -28l-575 -1235q-18 -39 -51 -39h-72z" />
    <glyph glyph-name="seveneighths" unicode="&#x215e;" horiz-adv-x="1341" 
d="M545 1227q0 -29 -13 -62l-231 -620q-6 -20 -29 -21h-131q-23 0 -22 23q0 14 12 49l227 569h-272q-23 0 -23 25v98q0 25 23 25h436q23 0 23 -23v-63zM1110 231q0 51 -32 81t-88 30t-89 -30t-33 -81t33 -81t89 -29q56 -1 88 29t32 81zM1102 565q0 47 -30 75t-82 28t-82 -28
t-30 -75t30 -75t82 -28t82 28t30 75zM1274 233q0 -119 -77 -182t-207 -63t-208 64t-78 182q0 116 101 174q-84 52 -84 160t72 170q73 62 197 62t197 -62q73 -64 73 -172t-86 -158q100 -56 100 -175zM236 0q-18 0 -27 11q-8 11 0 28l575 1235q18 39 52 39h71q19 0 27 -11
t0 -28l-576 -1235q-18 -39 -51 -39h-71z" />
    <glyph glyph-name="partialdiff" unicode="&#x2202;" horiz-adv-x="1026" 
d="M467 182q100 0 157 68q56 68 68 186t-39 182t-141 64q-190 0 -216 -250t171 -250zM487 877q80 0 145 -35t97 -84q8 182 -59 269q-68 87 -176 87t-178 -33t-80 -37t-27 -4q-45 0 -39 52l10 92q6 63 70 92q123 57 264 57t249 -62q109 -62 170 -221t36 -479
q-29 -285 -161 -439t-352 -152q-220 0 -326 122q-108 122 -85 336q23 215 137 327q115 112 305 112z" />
    <glyph glyph-name="Delta" unicode="&#x2206;" horiz-adv-x="1071" 
d="M823 184l-286 817l-289 -817h575zM1075 38q0 -18 -11 -28t-26 -10h-1003q-14 0 -26 10q-11 10 -11 31t20 78l418 1157q10 37 45 37h111q33 0 45 -37l418 -1157q20 -64 20 -81z" />
    <glyph glyph-name="product" unicode="&#x220f;" horiz-adv-x="1187" 
d="M1159 1157q0 -39 -39 -39h-78v-1313q0 -39 -38 -38h-179q-39 0 -39 38v1313h-387v-1313q0 -39 -39 -38h-178q-39 0 -39 38v1313h-75q-39 0 -39 39v117q0 39 39 39h1052q39 0 39 -39v-117z" />
    <glyph glyph-name="summation" unicode="&#x2211;" horiz-adv-x="1005" 
d="M987 -195q0 -39 -39 -38h-876q-39 0 -39 38v82q0 18 20 50l420 616l-422 590q-14 25 -14 41v90q0 39 39 39h856q39 0 39 -39v-109q0 -39 -39 -39h-580l355 -491q48 -73 2 -135l-373 -547h612q39 0 39 -39v-109z" />
    <glyph glyph-name="minus" unicode="&#x2212;" horiz-adv-x="997" 
d="M938 606q0 -39 -39 -39h-803q-39 0 -39 39v103q0 39 39 39h803q39 0 39 -39v-103z" />
    <glyph glyph-name="radical" unicode="&#x221a;" horiz-adv-x="987" 
d="M88 696h115q33 0 49 -39l154 -393l419 1163q12 39 54 39h100q15 0 23 -12t2 -27l-535 -1407q-18 -40 -65 -40t-68 40l-277 637q-8 15 2 27t27 12z" />
    <glyph glyph-name="infinity" unicode="&#x221e;" horiz-adv-x="1384" 
d="M373 809q-72 0 -120 -40t-48 -115q0 -74 47 -112t121 -38q125 0 231 153q-110 152 -231 152zM1012 809q-125 0 -236 -152q106 -154 236 -153q72 0 121 38t49 112t-50 115q-50 40 -120 40zM1004 973q156 1 247 -87q92 -88 92 -230t-92 -229q-91 -87 -249 -87t-310 170
q-158 -170 -313 -170t-247 87q-91 87 -91 229t91 230t246 87q155 0 314 -172q156 172 312 172z" />
    <glyph glyph-name="integral" unicode="&#x222b;" horiz-adv-x="475" 
d="M428 1487q63 1 105 -21t40 -55l-6 -92q-4 -33 -32 -33q-13 0 -29 7t-46 7q-70 0 -77 -116l-86 -1344q-20 -295 -277 -295q-63 1 -104 21t-39 53l4 94q0 31 33 31l70 -14q37 0 57 24t25 92l86 1346q18 295 276 295z" />
    <glyph glyph-name="approxequal" unicode="&#x2248;" horiz-adv-x="788" 
d="M61 494q1 38 55 74t114 36t162 -35q100 -35 160 -35t136 50q10 8 24 4t15 -21v-98q0 -39 -54 -75q-53 -36 -115 -36t-164 35t-159 35q-58 0 -135 -49q-10 -8 -24 -4t-15 20v99zM61 846q1 38 55 74t114 36t162 -34q100 -34 160 -35q60 0 136 49q10 8 24 4t15 -20v-99
q0 -39 -54 -75q-53 -36 -115 -36t-164 36q-102 34 -159 34q-58 0 -135 -49q-10 -8 -24 -4t-15 21v98z" />
    <glyph glyph-name="notequal" unicode="&#x2260;" horiz-adv-x="788" 
d="M727 430q0 -39 -39 -39h-409l-95 -149q-25 -39 -55 -39h-33q-18 0 -25 11t3 28l94 149h-68q-39 0 -39 39v100q0 39 39 39h185l110 176h-295q-39 0 -39 39v101q0 39 39 39h410l94 149q25 39 55 39h33q18 0 26 -11t-3 -28l-94 -149h67q39 0 39 -39v-101q0 -39 -39 -39h-182
l-111 -176h293q39 0 39 -39v-100z" />
    <glyph glyph-name="lessequal" unicode="&#x2264;" horiz-adv-x="860" 
d="M803 39q0 -39 -39 -39h-666q-39 0 -39 39v92q0 39 39 39h666q39 0 39 -39v-92zM803 311q0 -16 -11 -22t-28 2l-674 319q-41 20 -41 78t41 80l674 319q16 8 28 3q11 -6 11 -23v-119q0 -37 -39 -55l-485 -205l485 -203q39 -16 39 -55v-119z" />
    <glyph glyph-name="greaterequal" unicode="&#x2265;" horiz-adv-x="860" 
d="M801 39q0 -39 -39 -39h-666q-39 0 -39 39v92q0 39 39 39h666q39 0 39 -39v-92zM811 690q0 -59 -43 -80l-672 -319q-16 -8 -27 -2t-12 22v119q0 39 39 55l486 203l-486 205q-39 16 -39 55v119q-1 17 11 23t28 -3l674 -319q41 -19 41 -78z" />
    <glyph glyph-name="lozenge" unicode="&#x25ca;" horiz-adv-x="1030" 
d="M817 688l-301 514l-301 -514l301 -514zM517 -41q-50 0 -77 43l-393 647q-25 39 0 78l393 647q27 43 77 43t75 -41l393 -649q25 -39 0 -78l-393 -649q-25 -41 -75 -41z" />
    <glyph glyph-name="zero.oprp" horiz-adv-x="1067" 
d="M758 512q0 317 -224 317t-224 -317t224 -317t224 317zM1012 512q0 -256 -129 -394t-348 -138t-350 138q-130 138 -130 394t130 394q129 138 349 138t349 -138t129 -394z" />
    <glyph glyph-name="one.oprp" horiz-adv-x="518" 
d="M399 39q0 -39 -39 -39h-178q-39 0 -39 39v655h-82q-39 0 -38 39v92q0 39 38 39h19q119 0 119 107v14q0 39 39 39h122q39 0 39 -39v-946z" />
    <glyph glyph-name="two.oprp" horiz-adv-x="882" 
d="M419 1044q181 0 297 -82t116 -253q0 -170 -163 -298q-75 -59 -169 -115q-95 -56 -117 -71h408q39 0 38 -39v-147q0 -39 -38 -39h-723q-37 0 -37 37v94q1 51 31 94t117 105t168 111q81 50 146 116t64 125q0 143 -180 143q-101 0 -194 -58q-81 -58 -105 -56q-43 0 -43 51
v108q0 57 59 93q144 81 325 81z" />
    <glyph glyph-name="three.oprp" horiz-adv-x="909" 
d="M856 80q0 -188 -125 -288t-325 -101q-200 0 -336 92q-55 37 -56 92v100q0 55 43 56q23 0 58 -25q147 -96 276 -96q201 0 201 192q0 88 -55 140t-156 53h-100q-39 0 -39 39v102q0 39 39 39h92q96 0 145 48t49 130q0 172 -182 172q-104 0 -179 -45q-65 -34 -73 -47
q-41 -25 -55 -24q-43 0 -43 53v108q0 57 59 93q143 81 335 81t297 -100t105 -272q0 -90 -43 -167t-118 -116q84 -41 135 -124t51 -185z" />
    <glyph glyph-name="four.oprp" horiz-adv-x="972" 
d="M649 506h78q39 0 39 -39v-252h129q39 0 39 -39v-137q0 -39 -39 -39h-129v-250q0 -39 -39 -39h-178q-39 0 -39 39v250h-451q-37 0 -36 37v94q0 43 20 88l358 770q16 35 48 35h186q37 0 37 -35t-25 -84l-340 -690h225l72 254q10 37 45 37z" />
    <glyph glyph-name="five.oprp" horiz-adv-x="929" 
d="M887 112q0 -206 -122 -314q-123 -108 -325 -108t-319 79q-51 35 -51 79v93q0 55 41 55q18 0 51 -16q145 -70 250 -70q219 0 219 215t-203 215q-90 0 -144 -43t-85 -43h-86q-39 0 -39 39v692q0 39 39 39h708q39 0 39 -39v-147q0 -39 -39 -39h-489v-295q104 41 203 35
q166 -9 259 -115t93 -312z" />
    <glyph glyph-name="six.oprp" horiz-adv-x="1026" 
d="M526 182q197 0 197 250t-191 250q-90 0 -148 -65t-58 -183t50 -184q50 -68 150 -68zM578 877q190 0 294 -112t103 -328q0 -216 -119 -337q-119 -120 -337 -120t-337 154t-119 437q0 495 235 670q123 92 283 92q159 0 277 -57q59 -27 60 -92v-92q0 -51 -44 -52
q-18 0 -27 4q-102 51 -145 61q-43 9 -98 9q-118 0 -194 -87t-86 -269q38 49 106 84t148 35z" />
    <glyph glyph-name="seven.oprp" horiz-adv-x="870" 
d="M825 893q0 -45 -20 -98l-391 -1049q-12 -35 -47 -35h-195q-37 0 -37 37q0 25 23 82l381 969h-465q-39 0 -39 39v147q0 39 39 39h714q37 0 37 -37v-94z" />
    <glyph glyph-name="eight.oprp" 
d="M733 383q0 92 -55 144q-56 53 -156 53t-155 -52t-55 -145q0 -92 54 -144q56 -53 156 -53t156 52t55 145zM719 947q0 85 -52 134q-53 49 -145 49t-144 -49t-52 -134t52 -134t144 -49t145 49q52 49 52 134zM991 392q0 -196 -127 -305q-127 -107 -342 -107t-342 108
t-127 304t176 286q-151 88 -151 267t119 283t325 105q206 0 326 -104q119 -103 119 -283t-152 -268q176 -90 176 -286z" />
    <glyph glyph-name="nine.oprp" horiz-adv-x="1026" 
d="M494 342q90 0 148 64t58 183q0 117 -50 185t-148 68q-199 0 -199 -250t191 -250zM963 453q0 -496 -233 -670q-123 -92 -285 -92q-161 0 -275 57q-59 29 -59 92v92q0 51 43 52q16 0 26 -4t80 -37q70 -32 175 -33q105 0 181 87t86 269q-38 -49 -106 -84t-147 -35
q-190 0 -294 112q-103 112 -103 328t118 337q119 120 337 120t337 -153t119 -438z" />
    <glyph glyph-name="zero.otab" 
d="M733 512q0 317 -212 317t-212 -317t212 -317t212 317zM987 512q0 -254 -127 -393t-338 -139t-339 139t-128 393t128 393t339 139t338 -139t127 -393z" />
    <glyph glyph-name="one.otab" 
d="M662 39q0 -39 -39 -39h-179q-39 0 -38 39v655h-82q-39 0 -39 39v92q0 39 39 39h18q119 0 119 107v14q0 39 39 39h123q39 0 39 -39v-946z" />
    <glyph glyph-name="two.otab" 
d="M499 1044q181 0 297 -82t116 -253q0 -170 -163 -298q-75 -59 -169 -115q-95 -56 -117 -71h407q39 0 39 -39v-147q0 -39 -39 -39h-723q-37 0 -36 37v94q1 51 31 94t117 105t168 111q81 50 145 116t65 125q0 143 -180 143q-101 0 -194 -58q-81 -58 -105 -56q-43 0 -43 51
v108q0 57 59 93q144 81 325 81z" />
    <glyph glyph-name="three.otab" 
d="M922 80q0 -188 -125 -288t-326 -101q-201 0 -336 92q-55 37 -55 92v100q0 55 43 56q23 0 57 -25q147 -96 277 -96q201 0 200 192q0 88 -55 140t-156 53h-100q-39 0 -39 39v102q0 39 39 39h92q96 0 146 48q49 48 49 130q0 172 -182 172q-105 0 -180 -45q-69 -37 -72 -47
q-41 -25 -56 -24q-43 0 -43 53v108q0 57 60 93q142 81 334 81t298 -100t105 -272q0 -90 -43 -167t-119 -116q83 -41 135 -124t52 -185z" />
    <glyph glyph-name="four.otab" 
d="M684 506h78q39 0 39 -39v-252h129q39 0 39 -39v-137q0 -39 -39 -39h-129v-250q0 -39 -39 -39h-178q-39 0 -39 39v250h-451q-37 0 -37 37v94q0 43 21 88l358 770q18 35 47 35h187q37 0 37 -35t-25 -84l-340 -690h225l72 254q10 37 45 37z" />
    <glyph glyph-name="five.otab" 
d="M942 112q0 -206 -122 -314t-324 -108t-320 79q-51 35 -51 79v93q0 55 41 55q18 0 51 -16q145 -70 250 -70q219 0 219 215t-203 215q-90 0 -143 -43t-86 -43h-86q-39 0 -39 39v692q0 39 39 39h709q39 0 38 -39v-147q0 -39 -38 -39h-490v-295q104 41 203 35
q166 -9 259 -115t93 -312z" />
    <glyph glyph-name="six.otab" 
d="M535 182q196 0 196 250t-190 250q-91 0 -149 -65t-58 -183t50 -184q50 -68 151 -68zM586 877q190 0 294 -112t103 -328q0 -216 -119 -337q-118 -120 -336 -120t-338 153q-119 154 -118 438q0 495 234 670q123 92 283 92q159 0 277 -57q59 -27 60 -92v-92q0 -51 -43 -52
q-17 0 -27 4t-76 38q-66 32 -176 32t-186 -87t-86 -269q38 49 106 84t148 35z" />
    <glyph glyph-name="seven.otab" 
d="M911 893q0 -45 -20 -98l-391 -1049q-12 -35 -47 -35h-195q-37 0 -37 37q0 25 23 82l381 969h-465q-39 0 -39 39v147q0 39 39 39h714q37 0 37 -37v-94z" />
    <glyph glyph-name="eight.otab" 
d="M733 383q0 92 -55 144q-56 53 -156 53t-155 -52t-55 -145q0 -92 54 -144q56 -53 156 -53t156 52t55 145zM719 947q0 85 -52 134q-53 49 -145 49t-144 -49t-52 -134t52 -134t144 -49t145 49q52 49 52 134zM991 392q0 -196 -127 -305q-127 -107 -342 -107t-342 108
t-127 304t176 286q-151 88 -151 267t119 283t325 105q206 0 326 -104q119 -103 119 -283t-152 -268q176 -90 176 -286z" />
    <glyph glyph-name="nine.otab" 
d="M502 342q90 0 148 64t59 183q-1 117 -51 185t-148 68q-199 0 -199 -250t191 -250zM971 453q0 -496 -233 -670q-123 -92 -285 -92q-161 0 -275 57q-59 29 -59 92v92q0 51 43 52q16 0 26 -4t80 -38q69 -32 174 -32t182 87t87 269q-39 -49 -107 -84t-147 -35
q-190 0 -294 112q-103 112 -103 328t118 337q119 120 337 120t337 -153t119 -438z" />
    <glyph glyph-name="zero.ltab" 
d="M520 1110q-66 0 -106 -34q-90 -78 -89 -421t90 -418q40 -34 105 -34q102 0 150 94q47 94 47 359t-47 360q-48 94 -150 94zM520 1333q457 0 457 -677t-457 -676q-457 0 -457 676t457 677z" />
    <glyph glyph-name="one.ltab" 
d="M662 39q0 -39 -39 -39h-179q-39 0 -38 39v944h-82q-39 0 -39 39v92q0 39 39 39h18q119 0 119 107v14q0 39 39 39h123q39 0 39 -39v-1235z" />
    <glyph glyph-name="two.ltab" 
d="M498 1333q178 0 296 -98t118 -285t-119 -336q-118 -149 -231 -256q-113 -106 -140 -133h448q39 0 39 -39v-147q0 -39 -39 -39h-725q-37 0 -36 37v94q0 49 36 101t143 165t132 140q111 119 164 207t53 182q0 96 -52 142t-141 46t-154 -40q-27 -15 -69 -46q-45 -29 -63 -29
q-45 0 -45 52v108q0 57 59 92q148 82 326 82z" />
    <glyph glyph-name="three.ltab" 
d="M922 369q0 -189 -125 -289t-326 -100t-336 92q-55 37 -55 92v100q0 55 43 55q23 0 57 -24q147 -96 277 -96q201 0 200 192q0 88 -55 140t-156 53h-100q-39 0 -39 39v102q0 39 39 39h92q96 0 146 48q49 48 49 130q0 172 -182 172q-105 0 -180 -45q-15 -8 -63 -40t-65 -32
q-43 0 -43 54v108q0 57 60 92q142 82 334 82t298 -100t105 -272q0 -90 -43 -167t-119 -116q83 -41 135 -124t52 -185z" />
    <glyph glyph-name="four.ltab" 
d="M684 795h78q39 0 39 -39v-252h129q39 0 39 -39v-137q0 -39 -39 -39h-129v-250q0 -39 -39 -39h-178q-39 0 -39 39v250h-451q-37 0 -37 37v94q0 35 21 88l358 770q18 35 47 35h187q37 0 37 -35t-25 -84l-340 -690h225l72 254q10 37 45 37z" />
    <glyph glyph-name="five.ltab" 
d="M942 401q0 -206 -122 -314q-122 -107 -324 -107t-320 77q-51 35 -51 80v92q0 55 41 56q18 0 51 -17q145 -70 250 -69q219 0 219 215t-203 215q-90 0 -157 -54q-43 -33 -72 -32h-86q-39 0 -39 39v692q0 39 39 39h709q39 0 38 -39v-148q0 -39 -38 -39h-490v-294
q104 41 203 34q166 -10 259 -115t93 -311z" />
    <glyph glyph-name="six.ltab" 
d="M535 182q196 0 196 250t-190 250q-91 0 -149 -65t-58 -183t50 -184q50 -68 151 -68zM586 877q190 0 294 -112t103 -328q0 -216 -119 -337q-118 -120 -336 -120t-338 153q-119 154 -118 438q0 495 234 670q123 92 283 92q159 0 277 -57q59 -27 60 -92v-92q0 -51 -43 -52
q-17 0 -27 4t-76 38q-66 32 -176 32t-186 -87t-86 -269q38 49 106 84t148 35z" />
    <glyph glyph-name="seven.ltab" 
d="M911 1182q0 -45 -20 -99l-391 -1048q-12 -35 -47 -35h-195q-37 0 -37 37q0 25 23 82l381 968h-465q-39 0 -39 39v148q0 39 39 39h714q37 0 37 -37v-94z" />
    <glyph glyph-name="eight.ltab" 
d="M733 383q0 92 -55 144q-56 53 -156 53t-155 -52t-55 -145q0 -92 54 -144q56 -53 156 -53t156 52t55 145zM719 947q0 85 -52 134q-53 49 -145 49t-144 -49t-52 -134t52 -134t144 -49t145 49q52 49 52 134zM991 392q0 -196 -127 -305q-127 -107 -342 -107t-342 108
t-127 304t176 286q-151 88 -151 267t119 283t325 105q206 0 326 -104q119 -103 119 -283t-152 -268q176 -90 176 -286z" />
    <glyph glyph-name="nine.ltab" 
d="M709 878q-1 118 -51 186t-148 66q-199 0 -199 -250t191 -249q90 1 148 65t59 182zM971 741q0 -495 -233 -669q-123 -92 -285 -92q-161 0 -275 57q-59 29 -59 92v92q0 51 43 51q20 0 98 -36t182 -37q105 0 182 87t87 269q-39 -49 -107 -84t-147 -35q-190 0 -294 112
q-103 112 -103 328t118 336q119 120 337 121t337 -153t119 -439z" />
    <glyph glyph-name="zero.nfra" horiz-adv-x="706" 
d="M463 918q0 156 -27 209t-83 53t-83 -54q-26 -54 -26 -208t26 -207t84 -53q57 0 83 52t26 208zM353 1325q280 -1 280 -407t-280 -406t-280 406t280 407z" />
    <glyph glyph-name="one.nfra" horiz-adv-x="401" 
d="M291 547q0 -23 -25 -23h-119q-23 0 -22 23v563h-47q-23 0 -23 23v59q0 25 23 25h10q72 0 72 63v8q0 25 24 25h82q25 0 25 -25v-741z" />
    <glyph glyph-name="two.nfra" horiz-adv-x="620" 
d="M296 1325q110 0 182 -59t71 -172q0 -113 -80 -213t-205 -211h258q25 0 25 -23v-100q0 -23 -25 -23h-440q-23 0 -23 23v63q0 33 22 63t161 175q68 74 98 125q31 51 31 104t-30 80t-74 27t-66 -10q-23 -10 -29 -14q-6 -3 -35 -24t-49 -24q-27 0 -27 33v72q0 35 37 57
q88 51 198 51z" />
    <glyph glyph-name="three.nfra" horiz-adv-x="636" 
d="M565 748q0 -116 -77 -176q-76 -60 -202 -60t-200 57q-35 27 -35 58v67q0 35 25 35q12 0 37 -16q86 -59 166 -60q115 0 114 109q0 51 -31 80t-88 28h-61q-23 0 -23 23v70q0 23 23 22h57q109 0 109 102q0 96 -103 97q-52 0 -74 -12q-21 -12 -37 -19q-16 -8 -41 -24
q-24 -17 -34 -17q-27 0 -27 33v72q0 35 37 57q88 51 205 51t181 -61t65 -171q0 -110 -94 -161q47 -25 77 -75t31 -109z" />
    <glyph glyph-name="four.nfra" horiz-adv-x="671" 
d="M485 1001q25 0 25 -24v-141h74q23 0 22 -23v-92q0 -23 -22 -23h-74v-151q0 -23 -25 -23h-118q-23 0 -23 23v151h-268q-20 0 -21 21v61q0 25 13 54l208 456q10 23 27 23h129q23 0 23 -23q0 -12 -17 -49l-198 -405h127l41 143q6 23 26 22h51z" />
    <glyph glyph-name="five.nfra" horiz-adv-x="645" 
d="M580 772q0 -260 -285 -260q-115 0 -182 47q-31 23 -31 47v64q0 35 24 35q4 0 64 -26t117 -26q125 0 125 120t-115 120q-53 1 -79 -23t-52 -24h-60q-23 0 -22 22v420q0 25 22 25h431q25 0 24 -25v-98q0 -25 -24 -25h-285v-161q51 18 92 18q112 0 174 -64t62 -186z" />
    <glyph glyph-name="six.nfra" horiz-adv-x="704" 
d="M246 784q0 -141 112 -141t113 141q0 141 -109 142q-52 0 -84 -36t-32 -106zM633 785q0 -129 -72 -201t-205 -72q-134 0 -206 92t-72 262q0 254 93 356t228 103q84 0 162 -35q35 -14 35 -57v-62q0 -33 -25 -32q-14 0 -22 4l-29 14q-56 27 -117 27t-106 -48t-49 -149
q52 63 156 63t166 -67q62 -68 63 -198z" />
    <glyph glyph-name="seven.nfra" horiz-adv-x="612" 
d="M545 1227q0 -29 -13 -62l-231 -620q-6 -20 -29 -21h-131q-23 0 -22 23q0 14 12 49l227 569h-272q-23 0 -23 25v98q0 25 23 25h436q23 0 23 -23v-63z" />
    <glyph glyph-name="eight.nfra" horiz-adv-x="712" 
d="M477 756q0 51 -32 81q-32 29 -88 29t-89 -30q-32 -30 -32 -80q0 -51 32 -81t89 -30q56 0 88 30t32 81zM469 1090q0 46 -30 74t-82 28t-82 -28q-29 -28 -29 -74t30 -75q30 -28 81 -28q52 0 82 28t30 75zM641 758q0 -118 -77 -182t-207 -64q-129 0 -207 65t-78 181t100 174
q-84 51 -84 160t72 171t196 62t198 -63q73 -63 73 -171t-86 -159q100 -55 100 -174z" />
    <glyph glyph-name="nine.nfra" horiz-adv-x="704" 
d="M459 1053q0 139 -113 139t-113 -140t109 -141q51 0 84 36t33 106zM627 969q0 -253 -92 -355t-228 -102q-94 0 -164 35q-35 16 -34 55v62q0 35 26 34q11 0 56 -22t109 -23q64 0 108 47q45 47 49 148q-53 -61 -144 -62q-242 0 -241 265q0 129 72 201t204 73q133 0 206 -93
t73 -263z" />
    <glyph glyph-name="zero.dfra" horiz-adv-x="706" 
d="M353 655q-56 0 -83 -54q-26 -54 -26 -208t26 -207t84 -53q57 0 83 52t26 208t-27 209t-83 53zM73 394q0 406 280 407q280 0 280 -407t-281 -406q-279 0 -279 406z" />
    <glyph glyph-name="one.dfra" horiz-adv-x="401" 
d="M291 23q0 -23 -25 -23h-119q-23 0 -22 23v563h-47q-23 0 -23 22v60q0 25 23 24h10q72 0 72 64v8q0 25 24 24h82q25 0 25 -24v-741z" />
    <glyph glyph-name="two.dfra" horiz-adv-x="620" 
d="M296 801q110 1 182 -59t71 -172q0 -112 -73 -203t-138 -152t-74 -70h258q25 0 25 -22v-100q0 -23 -25 -23h-440q-23 0 -23 23v63q-1 32 17 56t80 90t108 116q108 117 107 207q0 51 -35 83t-109 18q-40 -8 -81 -38q-40 -30 -58 -30q-27 0 -27 33v71q0 35 37 58
q88 51 198 51z" />
    <glyph glyph-name="three.dfra" horiz-adv-x="636" 
d="M565 223q0 -115 -77 -175q-76 -60 -202 -60t-200 57q-35 27 -35 57v68q0 35 25 35q12 0 37 -17q86 -59 166 -59q115 0 114 109q0 52 -31 80t-88 28h-61q-23 0 -23 23v69q0 23 23 23h57q109 0 109 102q0 96 -103 96q-51 0 -73 -11q-23 -11 -33 -16q-10 -4 -39 -24t-41 -20
q-27 0 -27 33v71q0 35 37 58q86 51 204 51q118 1 182 -61t65 -172q0 -110 -94 -160q47 -25 78 -75q30 -51 30 -110z" />
    <glyph glyph-name="four.dfra" horiz-adv-x="671" 
d="M485 477q25 0 25 -24v-142h74q23 0 22 -22v-92q0 -23 -22 -23h-74v-151q0 -23 -25 -23h-118q-23 0 -23 23v151h-268q-20 0 -21 21v61q0 25 13 53l208 457q10 23 27 22h129q23 0 23 -22q0 -12 -17 -49l-198 -406h127l41 144q6 23 26 22h51z" />
    <glyph glyph-name="five.dfra" horiz-adv-x="645" 
d="M580 248q0 -260 -285 -260q-115 0 -182 47q-31 23 -31 47v63q0 35 24 35q4 0 64 -26t117 -25q125 0 125 120t-115 120q-53 1 -79 -23t-52 -24h-60q-23 0 -22 22v420q0 25 22 24h431q25 0 24 -24v-98q0 -25 -24 -25h-285v-162q51 18 92 19q112 0 174 -64t62 -186z" />
    <glyph glyph-name="six.dfra" horiz-adv-x="704" 
d="M246 260q0 -141 112 -141t113 141q0 141 -109 141q-52 1 -84 -35t-32 -106zM404 526q104 0 166 -68t63 -197q0 -130 -72 -202q-72 -71 -205 -71q-134 0 -206 92t-72 262q0 254 93 356t228 103q84 0 162 -35q35 -14 35 -57v-62q0 -33 -25 -33q-14 0 -22 4l-29 15
q-54 26 -116 26t-107 -48t-49 -148q52 63 156 63z" />
    <glyph glyph-name="seven.dfra" horiz-adv-x="612" 
d="M545 702q0 -29 -13 -61l-231 -621q-6 -20 -29 -20h-131q-23 0 -22 23q0 14 12 49l227 569h-272q-23 0 -23 25v98q0 25 23 24h436q23 0 23 -22v-64z" />
    <glyph glyph-name="eight.dfra" horiz-adv-x="712" 
d="M477 231q0 51 -32 81t-88 30t-89 -30q-32 -30 -32 -81t32 -81t89 -29q56 -1 88 29t32 81zM469 565q0 47 -30 75t-82 28t-82 -28q-29 -28 -29 -75t30 -75t81 -28q52 0 82 28t30 75zM641 233q0 -119 -77 -182t-207 -63q-129 0 -207 64t-78 182q0 116 100 174
q-84 52 -84 160t72 170t196 62t198 -62q73 -64 73 -172t-86 -158q100 -56 100 -175z" />
    <glyph glyph-name="nine.dfra" horiz-adv-x="704" 
d="M459 528q0 139 -113 140q-113 0 -113 -140t109 -141q51 -1 84 35t33 106zM627 444q0 -254 -92 -355t-228 -101q-94 0 -164 35q-35 16 -34 55v61q0 35 26 35q11 0 37 -13t52 -23t83 -9q56 0 101 47t49 148q-53 -61 -144 -62q-242 0 -241 264q0 129 71 202q72 73 205 73
q133 1 206 -93t73 -264z" />
    <glyph glyph-name="w.alt" horiz-adv-x="1568" 
d="M1481 487q0 -256 -92 -382t-293 -125q-109 0 -192 40t-120 117q-38 -76 -120 -117t-191 -40q-201 0 -293 126t-92 381v457q0 39 39 39h176q39 0 39 -39v-473q0 -141 35 -209t122 -68t123 68t35 209v473q0 39 39 39h176q39 0 39 -39v-473q0 -141 36 -209t123 -68t122 68
t35 209v473q0 39 39 39h176q39 0 39 -39v-457z" />
    <glyph glyph-name="questiondown.caps" horiz-adv-x="876" 
d="M47 328q0 100 44 172t139 144t111 116q7 20 7 45v84q0 39 39 39h156q39 0 39 -39v-88q0 -44 -10 -66q-10 -21 -13 -33q-4 -12 -17 -30q-14 -18 -18 -26t-22 -26q-18 -20 -22 -24t-24 -25q-85 -78 -110 -128q-24 -50 -24 -87q0 -158 180 -157q112 0 193 58q7 5 23 15
t40 26t43 15q43 0 43 -51v-108q0 -57 -60 -93q-143 -81 -327 -81t-297 83t-113 265zM604 1186q0 -60 -40 -100t-99 -40t-100 42q-41 41 -41 99t41 99t99 41t99 -41t41 -100z" />
    <glyph glyph-name="exclamdown.caps" horiz-adv-x="499" 
d="M111 1188q0 57 41 99t99 42t99 -41t41 -99t-40 -99t-99 -41t-100 41t-41 98zM381 39q0 -39 -39 -39h-182q-39 0 -39 39v442q0 47 20 215l23 172q6 39 35 39h104q29 0 35 -39l22 -172q20 -168 21 -215v-442z" />
    </font>
</defs>
</svg>
